<svg enable-background="new 0 0 250 250" viewBox="0 0 250 250" xmlns="http://www.w3.org/2000/svg"><path d="m103.7 36.3c0-9.8 15-15.4 21.6-29.7 7.2 14.3 21.6 20 21.6 29.7 0 8.4-5.3 13-11.9 13-4 0-7.6-3-9.7-6.3-2.2 3.3-5.7 6.3-9.7 6.3-6.6 0-11.9-4.6-11.9-13z" fill="#f8fdf4"/><path d="m125.4 43c-2.2 3.3-5.7 6.3-9.7 6.3-6.6 0-11.9-4.6-11.9-13 0-9.8 15-15.4 21.6-29.7" opacity=".1"/><path d="m47.2 77.3c-6.9-6.9-.3-21.5-5.7-36.3 15.2 5 29.4-1.2 36.3 5.7 5.9 5.9 5.4 13 .8 17.6-2.8 2.8-7.5 3.2-11.4 2.4.8 3.9.4 8.5-2.4 11.4-4.6 4.7-11.6 5.2-17.6-.8z" fill="#f8fdf4"/><path d="m36.3 146.3c-9.8 0-15.4-15-29.7-21.6 14.3-7.2 20-21.6 29.7-21.6 8.4 0 13 5.3 13 11.9 0 4-3 7.6-6.3 9.7 3.3 2.2 6.3 5.7 6.3 9.7 0 6.6-4.6 11.9-13 11.9z" fill="#f8fdf4"/><path d="m77.3 202.8c-6.9 6.9-21.5.3-36.3 5.7 5-15.2-1.2-29.4 5.7-36.3 5.9-5.9 13-5.4 17.6-.8 2.8 2.8 3.2 7.5 2.4 11.4 3.9-.8 8.5-.4 11.4 2.4 4.7 4.6 5.2 11.6-.8 17.6z" fill="#f8fdf4"/><path d="m146.3 213.7c0 9.8-15 15.4-21.6 29.7-7.2-14.3-21.6-20-21.6-29.7 0-8.4 5.3-13 11.9-13 4 0 7.6 3 9.7 6.3 2.2-3.3 5.7-6.3 9.7-6.3 6.6 0 11.9 4.6 11.9 13z" fill="#f8fdf4"/><path d="m202.8 172.7c6.9 6.9.3 21.5 5.7 36.3-15.2-5-29.4 1.2-36.3-5.7-5.9-5.9-5.4-13-.8-17.6 2.8-2.8 7.5-3.2 11.4-2.4-.8-3.9-.4-8.5 2.4-11.4 4.6-4.7 11.6-5.2 17.6.8z" fill="#f8fdf4"/><path d="m213.7 103.7c9.8 0 15.4 15 29.7 21.6-14.3 7.2-20 21.6-29.7 21.6-8.4 0-13-5.3-13-11.9 0-4 3-7.6 6.3-9.7-3.3-2.2-6.3-5.7-6.3-9.7 0-6.6 4.6-11.9 13-11.9z" fill="#f8fdf4"/><path d="m172.7 47.2c6.9-6.9 21.5-.3 36.3-5.7-5 15.2 1.2 29.4-5.7 36.3-5.9 5.9-13 5.4-17.6.8-2.8-2.8-3.2-7.5-2.4-11.4-3.9.8-8.5.4-11.4-2.4-4.7-4.6-5.2-11.6.8-17.6z" fill="#f8fdf4"/><path d="m99.8 68.7c6.9 6.9.3 21.5 5.7 36.3-15.2-5-29.4 1.2-36.3-5.7-5.9-5.9-5.4-13-.8-17.6 2.8-2.8 7.5-3.2 11.4-2.4-.8-3.9-.4-8.5 2.4-11.4 4.6-4.6 11.7-5.1 17.6.8z" fill="#b6f3f0"/><path d="m67.4 103c9.8 0 15.4 15 29.7 21.6-14.3 7.2-20 21.6-29.7 21.6-8.4 0-13-5.3-13-11.9 0-4 3-7.6 6.3-9.7-3.3-2.2-6.3-5.7-6.3-9.7 0-6.6 4.6-11.9 13-11.9z" fill="#b6f3f0"/><path d="m68.7 150.2c6.9-6.9 21.5-.3 36.3-5.7-5 15.2 1.2 29.4-5.7 36.3-5.9 5.9-13 5.4-17.6.8-2.8-2.8-3.2-7.5-2.4-11.4-3.9.8-8.5.4-11.4-2.4-4.6-4.6-5.1-11.7.8-17.6z" fill="#b6f3f0"/><path d="m103 182.6c0-9.8 15-15.4 21.6-29.7 7.2 14.3 21.6 20 21.6 29.7 0 8.4-5.3 13-11.9 13-4 0-7.6-3-9.7-6.3-2.2 3.3-5.7 6.3-9.7 6.3-6.6 0-11.9-4.6-11.9-13z" fill="#b6f3f0"/><path d="m150.2 181.3c-6.9-6.9-.3-21.5-5.7-36.3 15.2 5 29.4-1.2 36.3 5.7 5.9 5.9 5.4 13 .8 17.6-2.8 2.8-7.5 3.2-11.4 2.4.8 3.9.4 8.5-2.4 11.4-4.6 4.6-11.7 5.1-17.6-.8z" fill="#b6f3f0"/><path d="m182.6 147c-9.8 0-15.4-15-29.7-21.6 14.3-7.2 20-21.6 29.7-21.6 8.4 0 13 5.3 13 11.9 0 4-3 7.6-6.3 9.7 3.3 2.2 6.3 5.7 6.3 9.7 0 6.6-4.6 11.9-13 11.9z" fill="#b6f3f0"/><path d="m181.3 99.8c-6.9 6.9-21.5.3-36.3 5.7 5-15.2-1.2-29.4 5.7-36.3 5.9-5.9 13-5.4 17.6-.8 2.8 2.8 3.2 7.5 2.4 11.4 3.9-.8 8.5-.4 11.4 2.4 4.6 4.6 5.1 11.7-.8 17.6z" fill="#b6f3f0"/><path d="m103.7 67.4c0 9.8 15 16.1 21.6 30.4 7.2-14.3 21.6-20.7 21.6-30.4 0-8.4-5.3-13-11.9-13-4 0-7.6 3-9.7 6.3-2.2-3.3-5.7-6.3-9.7-6.3-6.6 0-11.9 4.6-11.9 13z" fill="#b6f3f0"/><path d="m125.4 60.7c-2.2-3.3-5.7-6.3-9.7-6.3-6.6 0-11.9 4.6-11.9 13 0 9.8 15 16.1 21.6 30.4" opacity=".2"/><path d="m79.8 79.3c-3.9-.8-8.5-.4-11.4 2.4-4.7 4.7-5.2 11.7.8 17.6 6.9 6.9 22 .8 36.8 6.2" opacity=".2"/><path d="m60.7 124.6c-3.3 2.2-6.3 5.7-6.3 9.7 0 6.6 4.6 11.9 13 11.9 9.8 0 16.1-15 30.4-21.6" opacity=".2"/><path d="m79.3 170.2c-.8 3.9-.4 8.5 2.4 11.4 4.7 4.7 11.7 5.2 17.6-.8 6.9-6.9.8-22 6.2-36.8" opacity=".2"/><path d="m124.6 189.3c2.2 3.3 5.7 6.3 9.7 6.3 6.6 0 11.9-4.6 11.9-13 0-9.8-15-16.1-21.6-30.4" opacity=".2"/><path d="m170.2 170.7c3.9.8 8.5.4 11.4-2.4 4.7-4.7 5.2-11.7-.8-17.6-6.9-6.9-22-.8-36.8-6.2" opacity=".2"/><path d="m189.3 125.4c3.3-2.2 6.3-5.7 6.3-9.7 0-6.6-4.6-11.9-13-11.9-9.8 0-16.1 15-30.4 21.6" opacity=".2"/><path d="m170.7 79.8c.8-3.9.4-8.5-2.4-11.4-4.7-4.7-11.7-5.2-17.6.8-6.9 6.9-.8 22-6.2 36.8" opacity=".2"/><circle cx="125" cy="125" fill="#fbe2de" r="8.8"/><circle cx="115.2" cy="100.8" fill="#fbe2de" r="4.4"/><circle cx="100.9" cy="114.8" fill="#fbe2de" r="4.4"/><circle cx="100.8" cy="134.8" fill="#fbe2de" r="4.4"/><circle cx="114.8" cy="149.1" fill="#fbe2de" r="4.4"/><circle cx="134.8" cy="149.2" fill="#fbe2de" r="4.4"/><circle cx="149.1" cy="135.2" fill="#fbe2de" r="4.4"/><circle cx="149.2" cy="115.2" fill="#fbe2de" r="4.4"/><circle cx="135.2" cy="100.9" fill="#fbe2de" r="4.4"/><path d="m125 133.8c-4.9 0-8.8-3.9-8.8-8.8s3.9-8.8 8.8-8.8z" opacity=".1"/><g fill="#f8fdf4"><circle cx="94" cy="49.3" r="6.4"/><circle cx="49.6" cy="93.4" r="6.4"/><circle cx="49.3" cy="156" r="6.4"/><circle cx="93.4" cy="200.4" r="6.4"/><circle cx="156" cy="200.7" r="6.4"/><circle cx="200.4" cy="156.6" r="6.4"/><circle cx="200.7" cy="94" r="6.4"/><circle cx="156.6" cy="49.6" r="6.4"/><circle cx="125.4" cy="74.9" r="6.4"/><circle cx="89.8" cy="89.2" r="6.4"/><circle cx="74.9" cy="124.6" r="6.4"/><circle cx="89.2" cy="160.2" r="6.4"/><circle cx="124.6" cy="175.1" r="6.4"/><circle cx="160.2" cy="160.8" r="6.4"/><circle cx="175.1" cy="125.4" r="6.4"/><circle cx="160.8" cy="89.8" r="6.4"/></g><path d="m125.4 81.2c-3.5 0-6.4-2.9-6.4-6.4s2.9-6.4 6.4-6.4z" opacity=".1"/><path d="m94.4 93.8c-2.5 2.5-6.5 2.5-9 0s-2.5-6.5 0-9z" opacity=".1"/><path d="m81.2 124.6c0 3.5-2.9 6.4-6.4 6.4s-6.4-2.9-6.4-6.4z" opacity=".1"/><path d="m93.8 155.6c2.5 2.5 2.5 6.5 0 9s-6.5 2.5-9 0z" opacity=".1"/><path d="m124.6 168.8c3.5 0 6.4 2.9 6.4 6.4s-2.9 6.4-6.4 6.4z" opacity=".1"/><path d="m155.6 156.2c2.5-2.5 6.5-2.5 9 0s2.5 6.5 0 9z" opacity=".1"/><path d="m168.8 125.4c0-3.5 2.9-6.4 6.4-6.4s6.4 2.9 6.4 6.4z" opacity=".1"/><path d="m156.2 94.4c-2.5-2.5-2.5-6.5 0-9s6.5-2.5 9 0z" opacity=".1"/><path d="m43 124.6c3.3 2.2 6.3 5.7 6.3 9.7 0 6.6-4.6 11.9-13 11.9-9.8 0-15.4-15-29.7-21.6" opacity=".1"/><path d="m183.3 67.2c-3.9.8-8.5.4-11.4-2.4-4.7-4.7-5.2-11.7.8-17.6 6.9-6.9 21.5-.3 36.3-5.7" opacity=".1"/><path d="m67.2 66.7c.8 3.9.4 8.5-2.4 11.4-4.7 4.7-11.7 5.2-17.6-.8-6.9-6.9-.3-21.5-5.7-36.3" opacity=".1"/><path d="m66.7 182.8c3.9-.8 8.5-.4 11.4 2.4 4.7 4.7 5.2 11.7-.8 17.6-6.9 6.9-21.5.3-36.3 5.7" opacity=".1"/><path d="m124.6 207c2.2-3.3 5.7-6.3 9.7-6.3 6.6 0 11.9 4.6 11.9 13 0 9.8-15 15.4-21.6 29.7" opacity=".1"/><path d="m182.8 183.3c-.8-3.9-.4-8.5 2.4-11.4 4.7-4.7 11.7-5.2 17.6.8 6.9 6.9.3 21.5 5.7 36.3" opacity=".1"/><path d="m207 125.4c-3.3-2.2-6.3-5.7-6.3-9.7 0-6.6 4.6-11.9 13-11.9 9.8 0 15.4 15 29.7 21.6" opacity=".1"/><circle cx="125.4" cy="30.2" fill="#fbe2de" r="7.9"/><circle cx="30.2" cy="124.6" fill="#fbe2de" r="7.9"/><circle cx="124.6" cy="219.8" fill="#fbe2de" r="7.9"/><circle cx="219.8" cy="125.4" fill="#fbe2de" r="7.9"/><circle cx="58.3" cy="57.7" fill="#b6f3f0" r="7.9"/><circle cx="57.7" cy="191.7" fill="#b6f3f0" r="7.9"/><circle cx="191.7" cy="192.3" fill="#b6f3f0" r="7.9"/><circle cx="192.3" cy="58.3" fill="#b6f3f0" r="7.9"/><path d="m96.3 55.3c-3.3 1.2-7-.5-8.2-3.7-1.2-3.3.5-7 3.7-8.2" opacity=".1"/><path d="m55.4 96c-1.5 3.2-5.2 4.6-8.4 3.1s-4.6-5.2-3.1-8.4" opacity=".1"/><path d="m55.3 153.7c1.2 3.3-.5 7-3.7 8.2s-7-.5-8.2-3.7" opacity=".1"/><path d="m96 194.6c3.2 1.5 4.6 5.2 3.1 8.4s-5.2 4.6-8.4 3.1" opacity=".1"/><path d="m153.7 194.7c3.3-1.2 7 .5 8.2 3.7s-.5 7-3.7 8.2" opacity=".1"/><path d="m194.6 154c1.5-3.2 5.2-4.6 8.4-3.1s4.6 5.2 3.1 8.4" opacity=".1"/><path d="m194.7 96.3c-1.2-3.3.5-7 3.7-8.2 3.3-1.2 7 .5 8.2 3.7" opacity=".1"/><path d="m154 55.4c-3.2-1.5-4.6-5.2-3.1-8.4s5.2-4.6 8.4-3.1" opacity=".1"/><path d="m125.4 38.1c-4.4 0-7.9-3.5-7.9-7.9s3.5-7.9 7.9-7.9" opacity=".1"/><path d="m63.9 63.3c-3.1 3.1-8.1 3.1-11.2 0s-3.1-8.1 0-11.2" opacity=".1"/><path d="m38.1 124.6c0 4.4-3.5 7.9-7.9 7.9s-7.9-3.5-7.9-7.9" opacity=".1"/><path d="m63.3 186.1c3.1 3.1 3.1 8.1 0 11.2s-8.1 3.1-11.2 0" opacity=".1"/><path d="m124.6 211.9c4.4 0 7.9 3.5 7.9 7.9s-3.5 7.9-7.9 7.9" opacity=".1"/><path d="m186.1 186.7c3.1-3.1 8.1-3.1 11.2 0s3.1 8.1 0 11.2" opacity=".1"/><path d="m186.7 63.9c-3.1-3.1-3.1-8.1 0-11.2s8.1-3.1 11.2 0" opacity=".1"/><path d="m211.9 125.4c0-4.4 3.5-7.9 7.9-7.9s7.9 3.5 7.9 7.9" opacity=".1"/><path d="m117 104.7c-2.2 1-4.8-.1-5.8-2.3s.1-4.8 2.3-5.8" opacity=".15"/><path d="m105 116.3c-.9 2.3-3.5 3.4-5.7 2.5s-3.4-3.5-2.5-5.7" opacity=".15"/><path d="m104.7 133c1 2.2-.1 4.8-2.3 5.8s-4.8-.1-5.8-2.3" opacity=".15"/><path d="m116.3 145c2.3.9 3.4 3.5 2.5 5.7-.9 2.3-3.5 3.4-5.7 2.5" opacity=".15"/><path d="m133 145.3c2.2-1 4.8.1 5.8 2.3s-.1 4.8-2.3 5.8" opacity=".15"/><path d="m145 133.7c.9-2.3 3.5-3.4 5.7-2.5 2.3.9 3.4 3.5 2.5 5.7" opacity=".15"/><path d="m145.3 117c-1-2.2.1-4.8 2.3-5.8s4.8.1 5.8 2.3" opacity=".15"/><path d="m133.7 105c-2.3-.9-3.4-3.5-2.5-5.7.9-2.3 3.5-3.4 5.7-2.5" opacity=".15"/><g fill="#5b6265"><path d="m135.1 52.2c-3.4 0-6.9-1.7-9.7-4.6-2.8 2.9-6.3 4.6-9.7 4.6-8.7 0-14.8-6.5-14.8-15.9 0-6.4 4.8-11 9.9-15.9 4.2-4.1 9.1-8.7 12-15l2.5-5.4 2.7 5.3c3.1 6.2 7.8 10.8 12 14.8 5.1 5 10 9.8 10 16.2-.1 9.3-6.2 15.9-14.9 15.9zm-9.7-14.5 2.4 3.7c1.6 2.4 4.3 5 7.3 5 5.6 0 9-3.9 9-10.2 0-4-3.6-7.6-8.3-12.1-3.4-3.4-7.2-7.1-10.4-11.8-3.2 4.9-7.1 8.7-10.7 12.2-4.6 4.4-8.2 7.9-8.2 11.8 0 6.3 3.5 10.2 9 10.2 3 0 5.8-2.6 7.3-5z"/><path d="m122.8 99c-2.9-6.3-7.7-11-11.9-15.3-5.1-5.1-10-10-10-16.4 0-9.3 6.1-15.9 14.8-15.9 3.4 0 6.9 1.7 9.7 4.6 2.8-2.9 6.3-4.6 9.7-4.6 8.7 0 14.8 6.5 14.8 15.9 0 6.5-4.7 11.2-10.1 16.7-4.1 4.2-8.7 8.9-11.9 15l-2.7 5.3zm5-36.7-2.4 3.7-2.4-3.7c-1.6-2.4-4.3-5-7.3-5-5.6 0-9 3.9-9 10.2 0 4 3.7 7.7 8.3 12.3 3.5 3.5 7.4 7.4 10.5 12.3 3.1-4.7 6.9-8.5 10.3-12 4.7-4.8 8.4-8.6 8.4-12.7 0-6.3-3.5-10.2-9-10.2-3.1 0-5.9 2.6-7.4 5.1z"/><path d="m125 135.5c-5.8 0-10.5-4.7-10.5-10.5s4.7-10.5 10.5-10.5 10.5 4.7 10.5 10.5-4.7 10.5-10.5 10.5zm0-17.6c-3.9 0-7.1 3.2-7.1 7.1s3.2 7.1 7.1 7.1 7.1-3.2 7.1-7.1-3.2-7.1-7.1-7.1z"/><path d="m125.4 40.3c-5.5 0-10-4.5-10-10s4.5-10 10-10 10 4.5 10 10-4.4 10-10 10zm0-15.8c-3.2 0-5.8 2.6-5.8 5.8s2.6 5.8 5.8 5.8 5.8-2.6 5.8-5.8-2.6-5.8-5.8-5.8z"/><path d="m94 57.8c-4.7 0-8.5-3.8-8.5-8.5s3.8-8.5 8.5-8.5 8.5 3.8 8.5 8.5c.1 4.7-3.8 8.5-8.5 8.5zm0-12.7c-2.3 0-4.2 1.9-4.2 4.2s1.9 4.2 4.2 4.2 4.2-1.9 4.2-4.2c.1-2.3-1.8-4.2-4.2-4.2z"/><circle cx="125" cy="109.6" r="3.3"/><circle cx="114.1" cy="114.1" r="3.3"/><circle cx="109.6" cy="125" r="3.3"/><circle cx="114.1" cy="135.9" r="3.3"/><circle cx="125" cy="140.4" r="3.3"/><circle cx="135.9" cy="135.9" r="3.3"/><circle cx="140.4" cy="125" r="3.3"/><circle cx="135.9" cy="114.1" r="3.3"/><path d="m125.4 83.4c-4.7 0-8.5-3.8-8.5-8.5s3.8-8.5 8.5-8.5 8.5 3.8 8.5 8.5-3.8 8.5-8.5 8.5zm0-12.8c-2.3 0-4.2 1.9-4.2 4.2s1.9 4.2 4.2 4.2 4.2-1.9 4.2-4.2-1.8-4.2-4.2-4.2z"/><path d="m89.8 97.8c-2.2 0-4.4-.8-6-2.5-3.3-3.3-3.3-8.7 0-12s8.7-3.3 12 0 3.3 8.7 0 12c-1.6 1.6-3.8 2.5-6 2.5zm0-12.8c-1.1 0-2.2.4-3 1.2s-1.2 1.9-1.2 3 .4 2.2 1.2 3c1.7 1.6 4.3 1.6 6 0 1.6-1.6 1.6-4.3 0-6-.8-.8-1.9-1.2-3-1.2z"/><path d="m74.9 133.1c-4.7 0-8.5-3.8-8.5-8.5s3.8-8.5 8.5-8.5 8.5 3.8 8.5 8.5-3.8 8.5-8.5 8.5zm0-12.8c-2.3 0-4.2 1.9-4.2 4.2s1.9 4.2 4.2 4.2 4.2-1.9 4.2-4.2-1.9-4.2-4.2-4.2z"/><path d="m89.2 168.7c-2.2 0-4.4-.8-6-2.5-3.3-3.3-3.3-8.7 0-12s8.7-3.3 12 0 3.3 8.7 0 12c-1.6 1.6-3.8 2.5-6 2.5zm0-12.8c-1.1 0-2.2.4-3 1.2s-1.2 1.9-1.2 3 .4 2.2 1.2 3c1.6 1.6 4.4 1.6 6 0s1.6-4.3 0-6c-.8-.7-1.8-1.2-3-1.2z"/><path d="m124.6 183.7c-4.7 0-8.5-3.8-8.5-8.5s3.8-8.5 8.5-8.5 8.5 3.8 8.5 8.5c0 4.6-3.8 8.5-8.5 8.5zm0-12.8c-2.3 0-4.2 1.9-4.2 4.2s1.9 4.2 4.2 4.2 4.2-1.9 4.2-4.2-1.9-4.2-4.2-4.2z"/><path d="m160.2 169.3c-2.3 0-4.4-.9-6-2.5-3.3-3.3-3.3-8.7 0-12s8.7-3.3 12 0 3.3 8.7 0 12c-1.6 1.6-3.8 2.5-6 2.5zm0-12.8c-1.1 0-2.2.4-3 1.2-1.6 1.6-1.6 4.3 0 6 1.6 1.6 4.4 1.6 6 0s1.6-4.3 0-6c-.9-.8-2-1.2-3-1.2z"/><path d="m175.1 133.9c-4.7 0-8.5-3.8-8.5-8.5s3.8-8.5 8.5-8.5 8.5 3.8 8.5 8.5c.1 4.7-3.8 8.5-8.5 8.5zm0-12.7c-2.3 0-4.2 1.9-4.2 4.2s1.9 4.2 4.2 4.2 4.2-1.9 4.2-4.2c.1-2.3-1.8-4.2-4.2-4.2z"/><path d="m160.8 98.4c-2.3 0-4.4-.9-6-2.5s-2.5-3.7-2.5-6 .9-4.4 2.5-6c3.2-3.2 8.8-3.2 12 0 1.6 1.6 2.5 3.7 2.5 6s-.9 4.4-2.5 6-3.8 2.5-6 2.5zm0-12.8c-1.1 0-2.2.4-3 1.2s-1.2 1.9-1.2 3 .4 2.2 1.2 3c1.6 1.6 4.4 1.6 6 0 .8-.8 1.2-1.9 1.2-3s-.4-2.2-1.2-3c-.9-.7-1.9-1.2-3-1.2z"/><path d="m110.3 109.6-5.6-1.8c-6.6-2.2-13.1-2.1-18.9-2-7.2.1-14 .2-18.5-4.4-6.6-6.6-6.9-15.5-.8-21.7 2.4-2.4 6.1-3.7 10.1-3.6-.1-4.1 1.2-7.7 3.6-10.1 6.1-6.1 15.1-5.8 21.7.8 4.5 4.5 4.4 11.2 4.2 18.3-.1 5.9-.2 12.6 2.2 19.1zm-21.3-9.6c3.9 0 8 .2 12.4 1-1.2-5.7-1.1-11.2-1-16.1.1-6.3.2-11.3-2.6-14.1-4.4-4.4-9.6-4.7-13.6-.8-2.1 2.1-2.2 5.9-1.6 8.7l.9 4.3-4.3-.9c-2.8-.6-6.6-.5-8.7 1.6-3.9 3.9-3.6 9.1.8 13.6 2.9 2.9 8 2.8 14.4 2.7z"/><path d="m67.4 149.1c-9.3 0-15.9-6.1-15.9-14.8 0-3.4 1.7-6.9 4.6-9.7-2.9-2.8-4.6-6.3-4.6-9.7 0-8.7 6.5-14.8 15.9-14.8 6.4 0 11 4.8 15.9 9.9 4.1 4.2 8.7 9.1 15 12l5.4 2.5-5.3 2.7c-6.2 3.1-10.8 7.8-14.8 12-5 5.1-9.8 9.9-16.2 9.9zm0-43.2c-6.3 0-10.2 3.5-10.2 9 0 3 2.6 5.8 5 7.3l3.7 2.4-3.7 2.4c-2.4 1.6-5 4.3-5 7.3 0 5.6 3.9 9 10.2 9 4 0 7.6-3.6 12.1-8.3 3.4-3.4 7.1-7.2 11.8-10.4-4.9-3.2-8.7-7.1-12.2-10.7-4.3-4.4-7.8-8-11.7-8z"/><path d="m89.9 188c-3.8 0-7.4-1.6-10.2-4.4-2.4-2.4-3.7-6.1-3.6-10.1-4.1.1-7.7-1.2-10.1-3.6-6.1-6.1-5.8-15.1.8-21.7 4.5-4.5 11.2-4.4 18.3-4.2 5.9.1 12.6.2 19.1-2.2l5.5-2-1.8 5.6c-2.2 6.6-2.1 13.1-2 18.9.1 7.2.2 14-4.4 18.5-3.5 3.4-7.4 5.2-11.5 5.2zm-6.9-21.5-.9 4.3c-.6 2.8-.5 6.6 1.6 8.7 1.8 1.8 3.9 2.9 6.3 2.7 2.5 0 5-1.2 7.3-3.5 2.9-2.9 2.8-8 2.7-14.4-.1-4.8-.1-10.1 1-15.7-5.7 1.2-11.2 1.1-16.1 1-6.3-.1-11.3-.2-14.1 2.6-4.4 4.4-4.7 9.6-.8 13.6 2.1 2.1 5.9 2.2 8.7 1.6z"/><path d="m134.4 198.5c-3.4 0-6.9-1.7-9.7-4.6-2.8 2.9-6.3 4.6-9.7 4.6-8.7 0-14.8-6.5-14.8-15.9 0-6.4 4.8-11 9.9-15.9 4.2-4.1 9.1-8.7 12-15l2.5-5.4 2.7 5.3c3.1 6.2 7.8 10.8 12 14.8 5.1 5 10 9.8 10 16.2-.2 9.4-6.2 15.9-14.9 15.9zm-9.8-14.5 2.4 3.7c1.6 2.4 4.3 5 7.3 5 5.6 0 9-3.9 9-10.1 0-4-3.6-7.6-8.3-12.1-3.4-3.4-7.2-7.1-10.4-11.8-3.2 4.9-7.1 8.7-10.7 12.2-4.6 4.4-8.2 7.9-8.2 11.8 0 6.3 3.5 10.1 9 10.1 3 0 5.8-2.6 7.3-5z"/><path d="m159.6 188.5c-.1 0-.1 0-.2 0-4 0-7.9-1.8-11.3-5.2-4.5-4.5-4.4-11.2-4.2-18.3.1-5.9.2-12.6-2.2-19.1l-2-5.5 5.6 1.8c6.6 2.2 13.1 2.1 18.9 2 7.2-.1 14-.2 18.5 4.4 6.6 6.6 6.9 15.5.8 21.7-2.4 2.4-6.1 3.7-10.1 3.6.1 4.1-1.2 7.7-3.6 10.1-2.8 3-6.5 4.5-10.2 4.5zm-11-39.5c1.2 5.7 1.1 11.2 1 16.1-.1 6.3-.2 11.3 2.6 14.1 2.3 2.3 4.8 3.5 7.3 3.5h.1c2.2 0 4.4-.9 6.2-2.7 2.1-2.1 2.2-5.9 1.6-8.7l-.9-4.3 4.3.9c2.8.6 6.6.5 8.7-1.6 1.8-1.8 2.8-4 2.7-6.3 0-2.5-1.2-5-3.5-7.3-2.9-2.9-8-2.8-14.4-2.7-4.8.1-10.1.1-15.7-1z"/><path d="m182.6 149.9c-6.4 0-11-4.8-15.9-9.9-4.1-4.2-8.7-9.1-15-12l-5.4-2.5 5.3-2.7c6.2-3.1 10.8-7.8 14.8-12 5-5.1 9.8-10 16.2-10 9.3 0 15.9 6.1 15.9 14.8 0 3.4-1.7 6.9-4.6 9.7 2.9 2.8 4.6 6.3 4.6 9.7 0 8.8-6.5 14.9-15.9 14.9zm-23.9-24.6c4.9 3.2 8.7 7.1 12.2 10.7 4.4 4.6 7.9 8.2 11.8 8.2 6.3 0 10.1-3.5 10.1-9 0-3-2.6-5.8-5-7.3l-3.7-2.4 3.7-2.4c2.4-1.6 5-4.3 5-7.3 0-5.6-3.9-9-10.1-9-4 0-7.6 3.6-12.1 8.3-3.5 3.2-7.2 7-11.9 10.2z"/><path d="m140.4 110.3 1.8-5.6c2.2-6.6 2.1-13.1 2-18.9-.1-7.2-.2-14 4.4-18.5 3.4-3.4 7.3-5.1 11.3-5.2 3.8.1 7.5 1.5 10.4 4.4 2.4 2.4 3.7 6.1 3.6 10.1 4.1-.1 7.7 1.2 10.1 3.6 6.1 6.2 5.8 15.1-.8 21.7-4.5 4.5-11.2 4.4-18.3 4.2-5.9-.1-12.6-.2-19.1 2.2zm19.7-42.6c-2.6 0-5.1 1.2-7.4 3.5-2.9 2.9-2.8 8-2.7 14.4.1 4.8.1 10.1-1 15.7 5.7-1.2 11.2-1.1 16.1-1 6.3.1 11.3.2 14.1-2.6 4.4-4.4 4.7-9.6.8-13.6-2.1-2.1-5.9-2.2-8.7-1.6l-4.3.9.9-4.3c.6-2.8.5-6.6-1.6-8.7-1.8-1.7-3.9-2.7-6.2-2.7z"/><path d="m56.7 84.5c-4 0-8.1-1.7-11.5-5.2-4.5-4.5-4.4-11.2-4.2-18.3.1-5.9.2-12.6-2.2-19.1l-2-5.5 5.6 1.8c6.6 2.2 13.1 2.1 18.9 2 7.2-.1 14-.2 18.5 4.4 6.6 6.6 6.9 15.5.8 21.7-2.4 2.4-6.1 3.7-10.1 3.6.1 4.1-1.2 7.7-3.6 10.1-3 3.1-6.6 4.5-10.2 4.5zm-11.1-39.5c1.2 5.7 1.1 11.2 1 16.1-.1 6.3-.2 11.3 2.6 14.1 4.4 4.4 9.6 4.7 13.6.8 2.1-2.1 2.2-5.9 1.6-8.7l-.9-4.3 4.3.9c2.8.6 6.6.5 8.7-1.6 3.9-3.9 3.6-9.1-.8-13.6-2.9-2.9-8-2.8-14.4-2.7-4.7.1-10 .1-15.7-1z"/><path d="m36.3 149.1c-6.4 0-11-4.8-15.9-9.9-4.1-4.2-8.7-9.1-15-12l-5.4-2.4 5.3-2.7c6.2-3.1 10.8-7.8 14.8-12 5-5.1 9.8-10 16.2-10 9.3 0 15.9 6.1 15.9 14.8 0 3.4-1.7 6.9-4.6 9.7 2.9 2.8 4.6 6.3 4.6 9.7 0 8.8-6.6 14.8-15.9 14.8zm-24-24.5c4.9 3.2 8.7 7.1 12.2 10.7 4.4 4.6 7.9 8.2 11.8 8.2 6.3 0 10.2-3.5 10.2-9 0-3-2.6-5.8-5-7.3l-3.7-2.4 3.7-2.4c2.4-1.6 5-4.3 5-7.3 0-5.6-3.9-9-10.2-9-4 0-7.6 3.6-12.1 8.3-3.4 3.2-7.1 7-11.9 10.2z"/><path d="m58.3 67.7c-2.7 0-5.2-1-7.1-2.9-3.9-3.9-3.9-10.3 0-14.2s10.3-3.9 14.2 0c1.9 1.9 2.9 4.4 2.9 7.1s-1 5.2-2.9 7.1-4.4 2.9-7.1 2.9zm0-15.8c-1.5 0-2.9.6-4.1 1.7-2.2 2.2-2.2 5.9 0 8.1s5.9 2.2 8.1 0 2.2-5.9 0-8.1c-1.1-1.1-2.5-1.7-4-1.7z"/><path d="m30.2 134.6c-5.5 0-10-4.5-10-10s4.5-10 10-10 10 4.5 10 10c.1 5.5-4.4 10-10 10zm0-15.8c-3.2 0-5.8 2.6-5.8 5.8s2.6 5.8 5.8 5.8 5.8-2.6 5.8-5.8-2.6-5.8-5.8-5.8z"/><path d="m57.7 201.8c-2.7 0-5.2-1-7.1-2.9-3.9-3.9-3.9-10.3 0-14.2 3.8-3.8 10.4-3.8 14.2 0 1.9 1.9 2.9 4.4 2.9 7.1s-1 5.2-2.9 7.1c-1.9 1.8-4.4 2.9-7.1 2.9zm-4.1-14.1c-2.2 2.2-2.2 5.9 0 8.1s5.9 2.2 8.1 0 2.2-5.9 0-8.1c-2.2-2.3-5.8-2.3-8.1 0z"/><path d="m36.4 213.2 1.8-5.6c2.2-6.6 2.1-13.1 2-18.9-.1-7.2-.2-14 4.4-18.5 6.6-6.6 15.5-6.9 21.7-.8 2.4 2.4 3.7 6.1 3.6 10.1 4.1-.1 7.7 1.2 10.1 3.6 2.9 2.9 4.5 6.6 4.4 10.4 0 4-1.8 7.9-5.2 11.3-4.5 4.5-11.2 4.4-18.3 4.2-5.9-.1-12.6-.2-19.1 2.2zm19.8-42.6c-2.5 0-5.1 1.2-7.4 3.5-2.9 2.9-2.8 8-2.7 14.4.1 4.8.1 10.1-1 15.7 5.7-1.2 11.2-1.1 16.1-1 6.3.1 11.3.2 14.1-2.6 2.3-2.3 3.5-4.8 3.5-7.3 0-2.3-.9-4.5-2.7-6.3-2.1-2.1-5.9-2.2-8.7-1.6l-4.3.9.9-4.3c.6-2.8.5-6.6-1.6-8.7-1.9-1.7-4.1-2.7-6.2-2.7z"/><path d="m124.6 229.8c-5.5 0-10-4.5-10-10s4.5-10 10-10 10 4.5 10 10-4.5 10-10 10zm0-15.8c-3.2 0-5.8 2.6-5.8 5.8s2.6 5.8 5.8 5.8 5.8-2.6 5.8-5.8-2.7-5.8-5.8-5.8z"/><path d="m124.8 250-2.7-5.3c-3.1-6.2-7.8-10.8-12-14.8-5.1-5-10-9.8-10-16.2 0-9.3 6.1-15.9 14.8-15.9 3.4 0 6.9 1.7 9.7 4.6 2.8-2.9 6.3-4.6 9.7-4.6 8.7 0 14.8 6.5 14.8 15.9 0 6.4-4.8 11-9.9 15.9-4.2 4.1-9.1 8.7-12 15zm-9.9-46.4c-5.6 0-9 3.9-9 10.1 0 4 3.6 7.6 8.3 12.1 3.4 3.4 7.2 7.1 10.4 11.8 3.2-4.9 7.1-8.7 10.7-12.2 4.6-4.4 8.2-7.9 8.2-11.8 0-6.3-3.5-10.1-9-10.1-3 0-5.8 2.6-7.3 5l-2.4 3.7-2.4-3.7c-1.7-2.3-4.5-4.9-7.5-4.9z"/><path d="m213.2 213.6-5.6-1.8c-6.6-2.2-13.1-2.1-18.9-2-7.2.1-14 .2-18.5-4.4-6.6-6.6-6.9-15.5-.8-21.7 2.4-2.4 6-3.7 10.1-3.6-.1-4.1 1.2-7.7 3.6-10.1 2.9-2.9 6.5-4.4 10.4-4.4 4 0 7.9 1.8 11.3 5.2 4.5 4.5 4.4 11.2 4.2 18.3-.1 5.9-.2 12.6 2.1 19.1zm-21.2-9.6c3.9 0 8 .2 12.4 1-1.2-5.7-1.1-11.2-1-16.1.1-6.3.2-11.3-2.6-14.1-2.3-2.3-4.8-3.5-7.3-3.5-2.4-.1-4.5.9-6.3 2.7-2.1 2.1-2.2 5.9-1.6 8.7l.9 4.3-4.3-.9c-2.8-.6-6.6-.5-8.7 1.6-3.9 3.9-3.6 9.1.8 13.6 2.9 2.9 8 2.8 14.4 2.7z"/><path d="m191.7 202.4c-2.7 0-5.2-1-7.1-2.9s-2.9-4.4-2.9-7.1 1-5.2 2.9-7.1c3.8-3.8 10.4-3.8 14.2 0 1.9 1.9 2.9 4.4 2.9 7.1s-1 5.2-2.9 7.1c-1.9 1.8-4.4 2.9-7.1 2.9zm0-15.8c-1.5 0-2.9.6-4.1 1.7-1.1 1.1-1.7 2.5-1.7 4.1 0 1.5.6 3 1.7 4.1 2.2 2.2 5.9 2.2 8.1 0 1.1-1.1 1.7-2.5 1.7-4.1 0-1.5-.6-3-1.7-4.1-1-1.2-2.5-1.7-4-1.7z"/><path d="m213.7 149.9c-9.3 0-15.9-6.1-15.9-14.8 0-3.4 1.7-6.9 4.6-9.7-2.9-2.8-4.6-6.3-4.6-9.7 0-8.7 6.5-14.8 15.9-14.8 6.4 0 11 4.8 15.9 9.9 4.1 4.2 8.7 9.1 15 12l5.4 2.5-5.3 2.7c-6.2 3.1-10.8 7.8-14.8 12-5 5-9.7 9.9-16.2 9.9zm0-43.3c-6.3 0-10.1 3.5-10.1 9 0 3 2.6 5.8 5 7.3l3.7 2.4-3.7 2.4c-2.4 1.6-5 4.3-5 7.3 0 5.6 3.9 9 10.1 9 4 0 7.6-3.6 12.1-8.3 3.4-3.4 7.1-7.2 11.8-10.4-4.9-3.2-8.7-7.1-12.2-10.7-4.3-4.4-7.8-8-11.7-8z"/><path d="m193.8 85c-3.7 0-7.2-1.5-10.2-4.4-2.4-2.4-3.7-6.1-3.6-10.1-4.1.1-7.7-1.2-10.1-3.6-6.1-6.2-5.8-15.1.8-21.7 4.5-4.5 11.2-4.4 18.3-4.2 5.9.1 12.6.2 19.1-2.2l5.5-2-1.8 5.6c-2.2 6.6-2.1 13.1-2 18.9.1 7.2.2 14-4.4 18.5-3.5 3.5-7.6 5.2-11.6 5.2zm-6.8-21.5-.9 4.3c-.6 2.8-.5 6.6 1.6 8.7 3.9 3.9 9.2 3.6 13.6-.8 2.9-2.9 2.8-8 2.7-14.4-.1-4.8-.1-10.1 1-15.7-5.7 1.2-11.2 1.1-16.1 1-6.4-.1-11.4-.2-14.1 2.6-4.4 4.4-4.7 9.6-.8 13.6 2.1 2.1 5.9 2.2 8.7 1.6z"/><path d="m192.3 68.3c-2.7 0-5.2-1-7.1-2.9s-2.9-4.4-2.9-7.1 1-5.2 2.9-7.1c3.8-3.8 10.4-3.8 14.2 0 1.9 1.9 2.9 4.4 2.9 7.1s-1 5.2-2.9 7.1-4.4 2.9-7.1 2.9zm0-15.8c-1.5 0-2.9.6-4.1 1.7-2.2 2.2-2.2 5.9 0 8.1s5.9 2.2 8.1 0 2.2-5.9 0-8.1c-1-1.1-2.5-1.7-4-1.7z"/><path d="m49.6 101.9c-2.2 0-4.4-.8-6-2.5-3.3-3.3-3.3-8.7 0-12s8.7-3.3 12 0 3.3 8.7 0 12c-1.7 1.6-3.8 2.5-6 2.5zm0-12.8c-1.1 0-2.2.4-3 1.2s-1.2 1.9-1.2 3 .4 2.2 1.2 3c1.7 1.6 4.3 1.6 6 0 1.6-1.6 1.6-4.3 0-6-.8-.7-1.9-1.2-3-1.2z"/><path d="m49.3 164.5c-4.7 0-8.5-3.8-8.5-8.5s3.8-8.5 8.5-8.5 8.5 3.8 8.5 8.5-3.8 8.5-8.5 8.5zm0-12.8c-2.3 0-4.2 1.9-4.2 4.2s1.9 4.2 4.2 4.2 4.2-1.9 4.2-4.2-1.9-4.2-4.2-4.2z"/><path d="m93.4 208.9c-2.3 0-4.4-.9-6-2.5s-2.5-3.7-2.5-6 .9-4.4 2.5-6c3.2-3.2 8.8-3.2 12 0 1.6 1.6 2.5 3.7 2.5 6s-.9 4.4-2.5 6c-1.6 1.7-3.8 2.5-6 2.5zm0-12.7c-1.1 0-2.2.4-3 1.2s-1.2 1.9-1.2 3 .4 2.2 1.2 3c1.6 1.6 4.4 1.6 6 0 .8-.8 1.2-1.9 1.2-3s-.4-2.2-1.2-3-1.9-1.2-3-1.2z"/><path d="m156 209.2c-4.7 0-8.5-3.8-8.5-8.5s3.8-8.5 8.5-8.5 8.5 3.8 8.5 8.5-3.8 8.5-8.5 8.5zm0-12.7c-2.3 0-4.2 1.9-4.2 4.2s1.9 4.2 4.2 4.2 4.2-1.9 4.2-4.2-1.9-4.2-4.2-4.2z"/><path d="m200.4 165.2c-2.3 0-4.4-.9-6-2.5-3.3-3.3-3.3-8.7 0-12 3.2-3.2 8.8-3.2 12 0 3.3 3.3 3.3 8.7 0 12-1.6 1.6-3.7 2.5-6 2.5zm0-12.8c-1.1 0-2.2.4-3 1.2-1.6 1.6-1.6 4.3 0 6 1.6 1.6 4.4 1.6 6 0s1.6-4.3 0-6c-.8-.8-1.9-1.2-3-1.2z"/><path d="m200.7 102.6c-4.7 0-8.5-3.8-8.5-8.5s3.8-8.5 8.5-8.5 8.5 3.8 8.5 8.5c0 4.6-3.8 8.5-8.5 8.5zm0-12.8c-2.3 0-4.2 1.9-4.2 4.2s1.9 4.2 4.2 4.2 4.2-1.9 4.2-4.2-1.9-4.2-4.2-4.2z"/><path d="m156.6 58.1c-2.2 0-4.4-.8-6-2.5-3.3-3.3-3.3-8.7 0-12s8.7-3.3 12 0 3.3 8.7 0 12c-1.6 1.7-3.8 2.5-6 2.5zm0-12.7c-1.1 0-2.2.4-3 1.2-1.6 1.6-1.6 4.3 0 6 1.7 1.6 4.3 1.6 6 0 1.6-1.6 1.6-4.3 0-6-.8-.8-1.9-1.2-3-1.2z"/><path d="m219.8 135.5c-5.5 0-10-4.5-10-10s4.5-10 10-10 10 4.5 10 10-4.5 10-10 10zm0-15.8c-3.2 0-5.8 2.6-5.8 5.8s2.6 5.8 5.8 5.8 5.8-2.6 5.8-5.8c-.1-3.2-2.6-5.8-5.8-5.8z"/><path d="m115.2 107.3c-3.6 0-6.6-2.9-6.6-6.6s2.9-6.6 6.6-6.6 6.6 2.9 6.6 6.6-3 6.6-6.6 6.6zm0-8.8c-1.2 0-2.3 1-2.3 2.3 0 1.2 1 2.3 2.3 2.3 1.2 0 2.3-1 2.3-2.3-.1-1.3-1.1-2.3-2.3-2.3z"/><path d="m100.9 121.4c-1.7 0-3.4-.6-4.6-1.9-2.6-2.6-2.6-6.7 0-9.3s6.7-2.6 9.3 0 2.6 6.7 0 9.3c-1.3 1.2-3 1.9-4.7 1.9zm0-8.8c-.6 0-1.2.2-1.6.7-.9.9-.9 2.3 0 3.2s2.3.9 3.2 0 .9-2.3 0-3.2c-.4-.5-1-.7-1.6-.7z"/><path d="m100.8 141.4c-3.6 0-6.6-2.9-6.6-6.6s2.9-6.6 6.6-6.6 6.6 2.9 6.6 6.6-3 6.6-6.6 6.6zm0-8.8c-1.2 0-2.3 1-2.3 2.3 0 1.2 1 2.3 2.3 2.3 1.2 0 2.3-1 2.3-2.3-.1-1.3-1.1-2.3-2.3-2.3z"/><path d="m114.8 155.6c-1.8 0-3.4-.7-4.6-1.9s-1.9-2.9-1.9-4.6.7-3.4 1.9-4.6c2.5-2.5 6.8-2.5 9.3 0 1.2 1.2 1.9 2.9 1.9 4.6s-.7 3.4-1.9 4.6c-1.3 1.3-2.9 1.9-4.7 1.9zm0-8.8c-.6 0-1.2.2-1.6.7-.4.4-.7 1-.7 1.6s.2 1.2.7 1.6c.9.9 2.3.9 3.2 0 .4-.4.7-1 .7-1.6s-.2-1.2-.7-1.6c-.4-.4-1-.7-1.6-.7z"/><path d="m134.8 155.8c-3.6 0-6.6-2.9-6.6-6.6s2.9-6.6 6.6-6.6 6.6 2.9 6.6 6.6-3 6.6-6.6 6.6zm0-8.8c-1.2 0-2.3 1-2.3 2.3s1 2.3 2.3 2.3 2.3-1 2.3-2.3-1-2.3-2.3-2.3z"/><path d="m149.1 141.7c-1.7 0-3.4-.6-4.6-1.9-2.6-2.6-2.6-6.7 0-9.3s6.7-2.6 9.3 0 2.6 6.7 0 9.3c-1.4 1.3-3 1.9-4.7 1.9zm0-8.8c-.6 0-1.2.2-1.6.7-.9.9-.9 2.3 0 3.2s2.3.9 3.2 0 .9-2.3 0-3.2c-.5-.5-1-.7-1.6-.7z"/><path d="m149.2 121.7c-3.6 0-6.6-2.9-6.6-6.6s2.9-6.6 6.6-6.6c3.6 0 6.6 2.9 6.6 6.6s-3 6.6-6.6 6.6zm0-8.8c-1.2 0-2.3 1-2.3 2.3 0 1.2 1 2.3 2.3 2.3 1.2 0 2.3-1 2.3-2.3s-1-2.3-2.3-2.3z"/><path d="m135.2 107.5c-1.7 0-3.4-.6-4.6-1.9-2.6-2.6-2.6-6.7 0-9.3s6.7-2.6 9.3 0 2.6 6.7 0 9.3c-1.4 1.2-3 1.9-4.7 1.9zm0-8.9c-.6 0-1.2.2-1.6.7-.9.9-.9 2.3 0 3.2s2.3.9 3.2 0 .9-2.3 0-3.2c-.5-.4-1-.7-1.6-.7z"/></g></svg>