<?xml version="1.0" encoding="utf-8"?>
<!-- Generator: Adobe Illustrator 21.0.2, SVG Export Plug-In . SVG Version: 6.00 Build 0)  -->
<svg version="1.1" id="Layer_1" xmlns="http://www.w3.org/2000/svg" xmlns:xlink="http://www.w3.org/1999/xlink" x="0px" y="0px"
	 viewBox="0 0 308 308" style="enable-background:new 0 0 308 308;" xml:space="preserve">
<style type="text/css">
	.st0{fill:url(#shape_1_);}
</style>
<title>shape</title>
<desc>Created with Sketch.</desc>
<g id="Page-1">
	
		<linearGradient id="shape_1_">
		<stop  offset="0" style="stop-color:#8FD3C5"/>
		<stop  offset="1" style="stop-color:#1686D9"/>
	</linearGradient>
	<path id="shape" class="st0" d="M308,154.8c0,6.5-9,13.1-9.3,20.3c-1.8,7,5.1,15.9,3.1,23.4c-2,6.2-12.5,9.9-15.5,17.2
		c-3,5.8,1.1,16.3-3.1,21.9c-3.5,6.5-14.7,7.1-18.6,12.5c-5.4,5.4-4.4,16.6-9.3,21.9c-5.9,4.2-16.7,1.6-23.2,6.3
		c-5.5,3.1-7.7,14.2-13.9,17.2c-6.7,2.9-16.4-2.6-23.2,0c-6.8,1.4-12,11.4-18.6,12.5c-7.5,0.9-15.2-7.2-21.7-7.8
		c-8,0.6-15.7,8.7-23.2,7.8c-6.6-1.1-11.8-11.1-18.6-12.5c-6.9-2.6-16.5,2.9-23.2,0c-6.3-3-8.4-14.1-13.9-17.2
		c-6.5-4.7-17.3-2.1-23.2-6.3c-4.9-5.3-3.9-16.5-9.3-21.9c-3.9-5.4-15-6-18.6-12.5c-4.2-5.6-0.1-16.1-3.1-21.9
		c-2.9-7.3-13.4-11-15.5-17.2c-2-7.6,4.9-16.4,3.1-23.4C9,167.9,0,161.3,0,154.8c0-8.1,9-14.7,9.3-21.9c1.8-7-5.1-15.9-3.1-23.4
		c2-6.2,12.5-9.9,15.5-17.2c3-5.8-1.1-16.3,3.1-21.9c3.5-6.5,14.7-7.1,18.6-12.5c5.4-5.4,4.4-16.6,9.3-21.9
		c5.9-4.2,16.7-1.6,23.2-6.3c5.5-3.1,7.7-14.2,13.9-17.2c6.7-2.9,16.4,2.6,23.2,0c6.8-1.4,12-11.4,18.6-12.5
		c7.5-0.9,15.2,7.2,23.2,7.8c6.5-0.6,14.2-8.7,21.7-7.8c6.6,1.1,11.8,11.1,18.6,12.5c6.9,2.6,16.5-2.9,23.2,0
		c6.3,3,8.4,14.1,13.9,17.2c6.5,4.7,17.3,2.1,23.2,6.3c4.9,5.3,3.9,16.5,9.3,21.9c3.9,5.4,15,6,18.6,12.5c4.2,5.6,0.1,16.1,3.1,21.9
		c2.9,7.3,13.4,11,15.5,17.2c2,7.6-4.9,16.4-3.1,23.4C299,140.1,308,146.7,308,154.8z"/>
</g>
</svg>
