<?xml version="1.0" encoding="UTF-8"?>
<svg width="245px" height="244px" viewBox="0 0 245 244" version="1.1" xmlns="http://www.w3.org/2000/svg" xmlns:xlink="http://www.w3.org/1999/xlink">
    <title>circle copy 2</title>
    <desc>Created with Sketch.</desc>
    <defs></defs>
    <g id="Page-1" stroke="none" stroke-width="1" fill="none" fill-rule="evenodd" stroke-linecap="round" opacity="1">
        <g id="circle-copy-2" transform="translate(1.177092, 1.323539)" stroke="#8fd3c4" stroke-width="2.5">
            <g id="Group-84" transform="translate(0.000000, 0.218724)">
                <path d="M238.039559,92.0829324 C237.233209,92.2370809 236.359747,92.3381107 235.361215,92.3381107 C226.135471,92.3381107 226.135471,84.9379384 216.907693,84.9379384 C207.682966,84.9379384 207.682966,92.3381107 198.459255,92.3381107 C189.231477,92.3381107 189.231477,84.9379384 180.003699,84.9379384 C170.776938,84.9379384 170.776938,92.3381107 161.549159,92.3381107 C152.322398,92.3381107 152.322398,84.9379384 143.095637,84.9379384 C133.868876,84.9379384 133.868876,92.3381107 124.640081,92.3381107 C115.41332,92.3381107 115.41332,84.9379384 106.187575,84.9379384 C96.9618311,84.9379384 96.9618311,92.3381107 87.7360867,92.3381107 C78.5113591,92.3381107 78.5113591,84.9379384 69.2856148,84.9379384 C60.0598704,84.9379384 60.0598704,92.3381107 50.8320924,92.3381107 C41.6073648,92.3381107 41.6073648,84.9379384 32.3816205,84.9379384 C23.1579098,84.9379384 23.1579098,92.3381107 13.9362327,92.3381107 C8.23077128,92.3381107 6.05169378,89.5082348 3.0377947,87.3480719" id="Stroke-44"></path>
                <path d="M13.9938873,177.045868 C14.0711667,177.046909 14.1362442,177.057325 14.2145405,177.057325 C23.4362175,177.057325 23.4362175,169.657153 32.6589114,169.657153 C41.8846557,169.657153 41.8846557,177.057325 51.1093833,177.057325 C60.3371613,177.057325 60.3371613,169.657153 69.5629057,169.657153 C78.7886501,169.657153 78.7886501,177.057325 88.0133776,177.057325 C97.239122,177.057325 97.239122,169.657153 106.464866,169.657153 C115.691628,169.657153 115.691628,177.057325 124.917372,177.057325 C134.146167,177.057325 134.146167,169.657153 143.372928,169.657153 C152.599689,169.657153 152.599689,177.057325 161.827467,177.057325 C171.054228,177.057325 171.054228,169.657153 180.282006,169.657153 C189.508768,169.657153 189.508768,177.057325 198.736546,177.057325 C207.961273,177.057325 207.961273,169.657153 217.186001,169.657153 C223.646971,169.657153 225.591159,173.279644 229.339213,175.45543" id="Stroke-48"></path>
                <path d="M4.20684995,150.742187 C7.28684331,152.912765 9.44456727,155.82284 15.2313755,155.82284 C24.4530526,155.82284 24.4530526,148.422668 33.6757464,148.422668 C42.9014908,148.422668 42.9014908,155.82284 52.1262183,155.82284 C61.3539964,155.82284 61.3539964,148.422668 70.5797407,148.422668 C79.8054851,148.422668 79.8054851,155.82284 89.0302126,155.82284 C98.255957,155.82284 98.255957,148.422668 107.481701,148.422668 C116.708463,148.422668 116.708463,155.82284 125.934207,155.82284 C135.163002,155.82284 135.163002,148.422668 144.389763,148.422668 C153.616524,148.422668 153.616524,155.82284 162.844302,155.82284 C172.071064,155.82284 172.071064,148.422668 181.298842,148.422668 C190.525603,148.422668 190.525603,155.82284 199.753381,155.82284 C208.978108,155.82284 208.978108,148.422668 218.202836,148.422668 C227.429597,148.422668 227.429597,155.82284 236.655341,155.82284 C236.74889,155.82284 236.827187,155.811383 236.918702,155.8093" id="Stroke-54"></path>
                <path d="M0.508417523,127.696457 C6.21591264,129.351471 7.4595019,134.588356 15.2311722,134.588356 C24.4528492,134.588356 24.4528492,127.188183 33.675543,127.188183 C42.9012874,127.188183 42.9012874,134.588356 52.1270318,134.588356 C61.353793,134.588356 61.353793,127.188183 70.5805542,127.188183 C79.8052817,127.188183 79.8052817,134.588356 89.0310261,134.588356 C98.2557536,134.588356 98.2557536,127.188183 107.482515,127.188183 C116.708259,127.188183 116.708259,134.588356 125.934004,134.588356 C135.162798,134.588356 135.162798,127.188183 144.390577,127.188183 C153.616321,127.188183 153.616321,134.588356 162.844099,134.588356 C172.071877,134.588356 172.071877,127.188183 181.298638,127.188183 C190.526416,127.188183 190.526416,134.588356 199.753177,134.588356 C208.977905,134.588356 208.977905,127.188183 218.202632,127.188183 C227.430411,127.188183 227.430411,134.588356 236.655138,134.588356 C238.651185,134.588356 240.200842,134.230064 241.519677,133.688461" id="Stroke-56"></path>
                <path d="M242.025146,111.706148 C240.404311,112.662286 238.453004,113.353871 235.638405,113.353871 C226.41266,113.353871 226.41266,105.953699 217.185899,105.953699 C207.961172,105.953699 207.961172,113.353871 198.736444,113.353871 C189.509683,113.353871 189.509683,105.953699 180.281905,105.953699 C171.055144,105.953699 171.055144,113.353871 161.827366,113.353871 C152.599588,113.353871 152.599588,105.953699 143.372826,105.953699 C134.146065,105.953699 134.146065,113.353871 124.91727,113.353871 C115.691526,113.353871 115.691526,105.953699 106.465781,105.953699 C97.2390203,105.953699 97.2390203,113.353871 88.0142927,113.353871 C78.7885484,113.353871 78.7885484,105.953699 69.5638208,105.953699 C60.3370596,105.953699 60.3370596,113.353871 51.1102984,113.353871 C41.8845541,113.353871 41.8845541,105.953699 32.6588097,105.953699 C23.4361158,105.953699 23.4361158,113.353871 14.2144388,113.353871 C7.11082916,113.353871 5.46355639,108.97626 0.875596658,106.957747" id="Stroke-58"></path>
                <path d="M24.5311455,194.529751 C26.8108897,192.7008 29.1160547,190.891637 33.675543,190.891637 C42.9012874,190.891637 42.9012874,198.291809 52.1270318,198.291809 C61.353793,198.291809 61.353793,190.891637 70.5805542,190.891637 C79.8052817,190.891637 79.8052817,198.291809 89.0310261,198.291809 C98.2557536,198.291809 98.2557536,190.891637 107.482515,190.891637 C116.708259,190.891637 116.708259,198.291809 125.934004,198.291809 C135.162798,198.291809 135.162798,190.891637 144.390577,190.891637 C153.616321,190.891637 153.616321,198.291809 162.844099,198.291809 C172.071877,198.291809 172.071877,190.891637 181.298638,190.891637 C190.526416,190.891637 190.526416,198.291809 199.753177,198.291809 C208.977905,198.291809 208.977905,190.891637 218.202632,190.891637 C219.026269,190.891637 219.756356,190.96767 220.446787,191.07599" id="Stroke-62"></path>
                <path d="M203.089515,27.7264303 C201.883549,28.1524219 200.474215,28.4159326 198.736444,28.4159326 C189.509683,28.4159326 189.509683,21.0157603 180.281905,21.0157603 C171.055144,21.0157603 171.055144,28.4159326 161.827366,28.4159326 C152.599588,28.4159326 152.599588,21.0157603 143.372826,21.0157603 C134.146065,21.0157603 134.146065,28.4159326 124.91727,28.4159326 C115.691526,28.4159326 115.691526,21.0157603 106.465781,21.0157603 C97.2390203,21.0157603 97.2390203,28.4159326 88.0142927,28.4159326 C78.7885484,28.4159326 78.7885484,21.0157603 69.5638208,21.0157603 C60.3370596,21.0157603 60.3370596,28.4159326 51.1102984,28.4159326 C46.8019683,28.4159326 44.5079885,26.8004974 42.3441635,25.0798662" id="Stroke-66"></path>
                <path d="M92.6570599,240.281668 C98.4530196,238.658942 99.6640702,233.360606 107.482515,233.360606 C116.708259,233.360606 116.708259,240.760779 125.934004,240.760779 C135.162798,240.760779 135.162798,233.360606 144.38956,233.360606 C150.379735,233.360606 152.488651,236.472741 155.749641,238.659984" id="Stroke-74"></path>
                <path d="M193.839672,218.611818 C189.085968,216.638092 187.496655,212.126122 180.28221,212.126122 C171.054432,212.126122 171.054432,219.526294 161.827671,219.526294 C152.599893,219.526294 152.599893,212.126122 143.373131,212.126122 C134.14637,212.126122 134.14637,219.526294 124.917575,219.526294 C115.691831,219.526294 115.691831,212.126122 106.46507,212.126122 C97.2393253,212.126122 97.2393253,219.526294 88.013581,219.526294 C78.7888534,219.526294 78.7888534,212.126122 69.5631091,212.126122 C60.3373647,212.126122 60.3373647,219.526294 51.1095866,219.526294 C50.6530277,219.526294 50.2340917,219.495048 49.8202398,219.460677" id="Stroke-76"></path>
                <path d="M232.826957,70.607851 C226.304978,69.2830067 225.360338,63.4847295 217.186001,63.4847295 C207.961273,63.4847295 207.961273,70.8849018 198.736546,70.8849018 C189.508768,70.8849018 189.508768,63.4847295 180.282006,63.4847295 C171.054228,63.4847295 171.054228,70.8849018 161.827467,70.8849018 C152.599689,70.8849018 152.599689,63.4847295 143.372928,63.4847295 C134.146167,63.4847295 134.146167,70.8849018 124.917372,70.8849018 C115.691628,70.8849018 115.691628,63.4847295 106.464866,63.4847295 C97.239122,63.4847295 97.239122,70.8849018 88.0133776,70.8849018 C78.7886501,70.8849018 78.7886501,63.4847295 69.5629057,63.4847295 C60.3371613,63.4847295 60.3371613,70.8849018 51.1104001,70.8849018 C41.8846557,70.8849018 41.8846557,63.4847295 32.6589114,63.4847295 C23.4362175,63.4847295 23.4362175,70.8849018 14.2145405,70.8849018 C12.4838872,70.8849018 11.0776044,70.6245157 9.8746885,70.2006072" id="Stroke-80"></path>
                <path d="M25.2455738,43.9063003 C26.8684425,42.9459965 28.8217826,42.2502449 31.6424831,42.2502449 C40.8682274,42.2502449 40.8682274,49.6504172 50.092955,49.6504172 C59.320733,49.6504172 59.320733,42.2502449 68.5464774,42.2502449 C77.7722218,42.2502449 77.7722218,49.6504172 86.9969493,49.6504172 C96.2226937,49.6504172 96.2226937,42.2502449 105.448438,42.2502449 C114.674182,42.2502449 114.674182,49.6504172 123.899927,49.6504172 C133.129738,49.6504172 133.129738,42.2502449 142.3565,42.2502449 C151.583261,42.2502449 151.583261,49.6504172 160.810022,49.6504172 C170.0378,49.6504172 170.0378,42.2502449 179.264561,42.2502449 C188.492339,42.2502449 188.492339,49.6504172 197.720117,49.6504172 C206.896037,49.6504172 206.951963,42.33461 216.0323,42.2575357" id="Stroke-82"></path>
                <path d="M77.9964339,3.37252047 C80.5995316,5.40665651 82.8762253,7.70222017 88.0142927,7.70222017 C97.2390203,7.70222017 97.2390203,0.301006305 106.465781,0.301006305 C115.691526,0.301006305 115.691526,7.70222017 124.91727,7.70222017 C125.517987,7.70222017 126.079601,7.67086192 126.607204,7.61222774 L124.916965,7.70149108 C128.557913,7.70149108 130.762591,6.5499352 132.663962,5.15534785 C131.076292,6.32017357 129.277297,7.31549196 126.607204,7.61222774 M132.663962,5.15534785 C135.582572,3.01465267 137.786521,0.301318769 143.373538,0.301318769 C146.916579,0.301318769 149.098956,1.39273753 150.965879,2.73728136 C152.493424,3.83745042 153.809735,5.10708341 155.487239,6.08704202" id="Combined-Shape"></path>
            </g>
        </g>
    </g>
</svg>