<svg enable-background="new 0 0 512 512" viewBox="0 0 512 512" xmlns="http://www.w3.org/2000/svg"><circle cx="256" cy="256" fill="#0575a5" r="256"/><path d="m508.813 296.32-128.586-128.576c-1.644-1.641-3.766-2.445-5.924-2.445h-236.613c-2.161 0-4.278.804-5.924 2.445-1.649 1.651-2.452 3.776-2.452 5.932v151.222c0 2.12.804 4.273 2.452 5.926 1.646 1.641 3.763 2.442 5.924 2.442h-35.697c-.366 0-.727.148-.988.407-.294.294-.438.655-.438 1.019v3.517h.036l2.268 2.263 170.844 170.844c119.624-8.179 216.658-98.485 235.098-214.996z" fill="#025e90"/><path d="m382.687 324.882c0 2.143-.819 4.298-2.447 5.926-1.641 1.654-3.786 2.458-5.939 2.458h-236.611c-2.143 0-4.291-.801-5.939-2.458-1.626-1.631-2.447-3.786-2.447-5.926v-151.206c0-2.156.822-4.298 2.447-5.934 1.649-1.615 3.796-2.445 5.939-2.445h236.61c2.153 0 4.301.829 5.939 2.445 1.628 1.636 2.447 3.779 2.447 5.934v151.206z" fill="#34495e"/><path d="m142.492 178.483h226.995v141.619h-226.995z" fill="#e1effa"/><path d="m149.35 185.318h213.299v127.9h-213.299z" fill="#fff"/><path d="m258.852 171.878c0 1.572-1.283 2.857-2.852 2.857-1.58 0-2.847-1.285-2.847-2.857 0-1.585 1.267-2.836 2.847-2.836 1.569-.003 2.852 1.252 2.852 2.836z" fill="#283a4d"/><path d="m257.16 171.878c0 .648-.52 1.18-1.16 1.18-.645 0-1.162-.532-1.162-1.18 0-.632.517-1.139 1.162-1.139.64 0 1.16.507 1.16 1.139z" fill="#5d6d7e"/><path d="m411.43 338.186c-4.521 5.21-11.203 8.515-18.647 8.515h-273.574c-7.444 0-14.124-3.305-18.639-8.515z" fill="#e1effa"/><path d="m411.423 338.196h-310.851v-3.517c0-.358.141-.722.422-1.006.274-.269.632-.407.991-.407h308.025c.366 0 .719.138.998.407.274.282.415.648.415 1.006z" fill="#fff"/><path d="m284.864 334.106c0 .412-.161.845-.492 1.175-.323.312-.742.479-1.172.479h-54.403c-.428 0-.858-.164-1.175-.479-.323-.33-.492-.763-.492-1.175v-.837h57.738v.837z" fill="#b8d1e6"/><g fill="#34495e"><path d="m219.19 237.248-4.288 4.283-31.409 31.409c1.874.694 3.374 2.186 4.091 4.055l4.26-4.26 27.146-27.141 4.26-4.257c-1.866-.717-3.361-2.22-4.06-4.089z"/><path d="m263.752 268.652 4.293 4.288c-1.874.694-3.366 2.156-4.114 4.037l-4.234-4.265-27.116-27.116-4.268-4.257c1.874-.719 3.343-2.222 4.058-4.091l4.265 4.262z"/><path d="m328.466 225.682-4.26 4.257-42.803 42.798-4.232 4.242c-.75-1.882-2.214-3.343-4.091-4.037l4.255-4.288 42.811-42.806 4.296-4.288c.658 1.867 2.155 3.369 4.024 4.122z"/></g><g fill="#ff8e31"><path d="m191.844 272.735c-1.004-1.661-2.388-3.049-4.058-4.083-1.953-1.231-4.291-1.961-6.792-1.961-7.084 0-12.838 5.763-12.838 12.844 0 7.05 5.755 12.805 12.838 12.805 7.081 0 12.838-5.755 12.838-12.805-.002-2.507-.724-4.842-1.988-6.8zm-10.852 13.849c-3.919 0-7.084-3.167-7.084-7.05 0-3.919 3.164-7.081 7.084-7.081.893 0 1.725.169 2.501.484 1.874.694 3.374 2.186 4.091 4.055.32.778.489 1.649.489 2.54 0 3.886-3.197 7.052-7.081 7.052z"/><path d="m225.787 221.903c-7.078 0-12.841 5.757-12.841 12.838 0 2.506.719 4.838 1.956 6.792 1.039 1.672 2.419 3.054 4.091 4.063 1.956 1.275 4.288 1.984 6.794 1.984 2.473 0 4.833-.709 6.794-1.984 1.669-1.009 3.044-2.419 4.055-4.083 1.236-1.961 1.953-4.298 1.953-6.771 0-7.084-5.752-12.839-12.802-12.839zm2.529 19.436c-.768.312-1.636.479-2.529.479-.896 0-1.759-.164-2.534-.479-1.869-.719-3.364-2.222-4.063-4.091-.312-.776-.481-1.615-.481-2.506 0-3.912 3.159-7.084 7.078-7.084 3.884 0 7.05 3.169 7.05 7.084 0 .891-.141 1.731-.463 2.506-.717 1.869-2.184 3.372-4.058 4.091z"/><path d="m281.403 272.735c-1.011-1.661-2.422-3.049-4.068-4.083-1.951-1.231-4.283-1.961-6.789-1.961-2.501 0-4.833.727-6.792 1.961-1.636 1.006-3.023 2.419-4.058 4.06-1.265 1.979-1.984 4.316-1.984 6.822 0 7.05 5.755 12.805 12.836 12.805 7.084 0 12.838-5.755 12.838-12.805-.004-2.506-.724-4.841-1.983-6.799zm-10.857 13.849c-3.886 0-7.081-3.167-7.081-7.05 0-.893.172-1.787.466-2.557.748-1.882 2.24-3.343 4.114-4.037.776-.315 1.636-.484 2.501-.484.893 0 1.756.169 2.534.484 1.874.694 3.341 2.156 4.091 4.037.284.771.458 1.664.458 2.557-.002 3.884-3.164 7.05-7.083 7.05z"/><path d="m331 206.213c-7.055 0-12.81 5.76-12.81 12.836 0 2.511.719 4.838 1.956 6.799 1.037 1.636 2.419 3.054 4.06 4.091 1.956 1.229 4.288 1.953 6.794 1.953 7.081 0 12.838-5.76 12.838-12.844.001-7.075-5.757-12.835-12.838-12.835zm0 19.919c-.893 0-1.761-.169-2.534-.451-1.866-.75-3.364-2.255-4.024-4.122-.323-.791-.494-1.615-.494-2.511 0-3.884 3.169-7.076 7.055-7.076 3.912 0 7.081 3.192 7.081 7.076-.003 3.931-3.172 7.084-7.084 7.084z"/></g></svg>