<svg enable-background="new 0 0 512 512" viewBox="0 0 512 512" xmlns="http://www.w3.org/2000/svg"><circle cx="256" cy="256" fill="#34495e" r="256"/><path d="m393.139 154.624h-274.286v202.752l154.01 154.007c127.933-8.328 230.19-110.574 238.52-238.513z" fill="#203549"/><path d="m118.861 184.499h274.278v172.877h-274.278z" fill="#cee2f2"/><path d="m132.9 198.784h246.195v144.563h-246.195z" fill="#fff"/><path d="m118.861 154.624h274.278v30.124h-274.278z" fill="#0575a5"/><g fill="#fff"><path d="m379.072 169.664c0 2.363-1.887 4.252-4.206 4.252h-158.042c-2.365 0-4.262-1.889-4.262-4.252 0-2.322 1.897-4.211 4.262-4.211h158.042c2.319 0 4.206 1.892 4.206 4.211z"/><path d="m154.488 169.687c0 2.332-1.897 4.234-4.234 4.234s-4.227-1.905-4.227-4.234c0-2.337 1.889-4.224 4.227-4.224 2.337 0 4.234 1.887 4.234 4.224z"/><path d="m177.777 169.687c0 2.332-1.889 4.234-4.221 4.234-2.345 0-4.234-1.905-4.234-4.234 0-2.337 1.889-4.224 4.234-4.224 2.331-.003 4.221 1.887 4.221 4.224z"/><path d="m201.073 169.687c0 2.332-1.882 4.234-4.221 4.234s-4.227-1.905-4.227-4.234c0-2.337 1.889-4.224 4.227-4.224 2.336 0 4.221 1.887 4.221 4.224z"/></g><g fill="#ff8e31"><path d="m268.096 292.815c-2.732-6.661-10.332-9.853-17.019-7.119-6.643 2.719-9.83 10.322-7.107 16.988 2.724 6.659 10.324 9.841 16.968 7.122 6.692-2.726 9.882-10.335 7.158-16.991zm-16.886 6.91c-1.096-2.673.182-5.711 2.824-6.797 2.675-1.085 5.716.184 6.812 2.862 1.091 2.657-.187 5.696-2.857 6.779-2.657 1.085-5.698-.182-6.779-2.844z"/><path d="m299.052 282.417-37.512 6.845 4.377 10.721z"/><path d="m189.701 321.395-8.609 9.851 6.973 12.096h33.943c-13.914-10.381-22.958-26.911-22.958-45.588 0-31.427 25.48-56.909 56.986-56.909 31.427 0 56.906 25.482 56.906 56.909 0 18.678-9.037 35.208-22.943 45.588h33.935l6.968-12.096-8.609-9.851c1.242-3.517 2.245-7.196 2.913-10.988l12.398-4.219v-16.878l-12.398-4.219c-.668-3.779-1.669-7.429-2.913-10.985l8.609-9.846-8.435-14.602-12.867 2.514c-1.27-1.441-2.542-2.847-3.848-4.157-1.341-1.341-2.752-2.642-4.188-3.884l2.542-12.826-14.6-8.44-9.882 8.607c-3.517-1.272-7.171-2.248-10.947-2.947l-4.221-12.36h-16.911l-4.219 12.36c-3.786.699-7.437 1.674-10.985 2.947l-9.846-8.607-14.607 8.44 2.55 12.826c-1.441 1.242-2.88 2.542-4.186 3.884-1.377 1.341-2.675 2.78-3.919 4.257l.036-.1-12.833-2.514-8.44 14.602 8.609 9.846c-1.236 3.556-2.24 7.235-2.941 10.985l-12.36 4.219v16.878l12.36 4.219c.697 3.792 1.701 7.471 2.937 10.988z"/></g></svg>