<svg enable-background="new 0 0 512 512" viewBox="0 0 512 512" xmlns="http://www.w3.org/2000/svg"><circle cx="256" cy="256" fill="#0575a5" r="256"/><path d="m507.758 302.185-177.157-177.144-8.563-8.553c-17.306-15.373-38.682-23.657-60.385-24.888-.118-.005-.23-.005-.343-.013-1.572-.087-3.154-.131-4.721-.141-.428-.003-.858.003-1.28.005-1.277.01-2.563.038-3.84.1-.52.026-1.039.049-1.559.077-1.229.082-2.452.179-3.681.3-.499.049-1.006.092-1.51.143-1.413.164-2.824.358-4.234.579-.282.044-.576.077-.858.12-1.692.284-3.372.612-5.043.973-.428.1-.855.212-1.277.31-1.236.289-2.465.594-3.686.924-.596.161-1.188.343-1.777.52-1.06.305-2.12.632-3.167.98-.627.205-1.252.417-1.869.635-1.039.369-2.071.755-3.098 1.155-.589.228-1.18.458-1.769.699-1.137.466-2.26.973-3.392 1.485-.451.207-.906.397-1.357.612-1.559.74-3.103 1.521-4.628 2.348-.289.156-.568.325-.85.484-1.244.689-2.473 1.398-3.694 2.14-.512.317-1.016.65-1.531.975-.983.625-1.953 1.265-2.916 1.925-.548.379-1.096.765-1.636 1.155-.919.663-1.841 1.352-2.747 2.048-.527.407-1.047.812-1.574 1.231-.947.76-1.889 1.554-2.816 2.363-.435.384-.878.753-1.313 1.139-1.349 1.203-2.675 2.447-3.968 3.743-1.201 1.206-2.373 2.435-3.497 3.684-.399.438-.773.893-1.16 1.339-.717.822-1.441 1.638-2.127 2.483-.415.502-.794 1.016-1.188 1.528-.632.801-1.272 1.595-1.874 2.412-.399.548-.773 1.108-1.165 1.667-.563.794-1.132 1.58-1.664 2.388-.387.576-.73 1.162-1.103 1.743-.512.806-1.024 1.608-1.51 2.419-.351.586-.668 1.188-1.006 1.782-.471.824-.947 1.644-1.39 2.478-.31.596-.596 1.198-.899 1.795-.422.85-.858 1.697-1.257 2.555-.282.599-.54 1.211-.806 1.815-.387.87-.781 1.736-1.132 2.616-.253.604-.479 1.219-.717 1.833-.335.883-.689 1.769-.998 2.662-.218.614-.415 1.236-.617 1.853-.302.899-.604 1.8-.878 2.703-.182.625-.351 1.257-.527 1.889-.253.899-.504 1.802-.73 2.714-.161.643-.302 1.288-.451 1.935-.205.904-.415 1.805-.589 2.716-.125.653-.238 1.306-.358 1.964-.161.906-.323 1.81-.456 2.716-.1.671-.177 1.344-.266 2.02-.113.896-.23 1.787-.323 2.691-.069.689-.12 1.377-.177 2.071-.069.878-.141 1.756-.189 2.637-.036.719-.056 1.434-.077 2.145-.036.858-.056 1.713-.064 2.575-.005.74.008 1.485.02 2.227.008.829.028 1.654.056 2.483.036.776.084 1.546.133 2.317.049.794.097 1.587.169 2.381.069.804.161 1.608.246 2.412.092.755.177 1.505.274 2.258.113.842.246 1.679.379 2.516.118.709.23 1.416.358 2.125.161.878.346 1.748.527 2.619.141.663.279 1.321.435 1.976.212.916.443 1.833.681 2.747.161.599.317 1.201.484 1.802.274.955.561 1.915.863 2.862.169.543.343 1.085.527 1.628.338 1.001.689 1.992 1.055 2.985.174.481.358.955.54 1.428.399 1.047.835 2.086 1.272 3.118.174.412.351.822.532 1.231.484 1.08.983 2.156 1.503 3.223.174.351.343.699.52 1.047.568 1.121 1.152 2.23 1.756 3.336.156.276.317.558.471.84.653 1.155 1.329 2.299 2.028 3.436.141.218.274.435.407.653.753 1.188 1.526 2.36 2.324 3.525.105.148.212.299.317.453.85 1.211 1.728 2.412 2.634 3.597.077.092.148.187.218.276.955 1.236 1.938 2.452 2.957 3.651.036.036.072.074.1.108 1.72 2.017 3.505 3.994 5.407 5.896.422.42.878.781 1.3 1.193l1.073 1.075 49.705 49.702.005.008c-.492.31-.968.66-1.398 1.091-1.503 1.495-2.268 3.474-2.268 5.45v78.405c0 5.632 2.156 11.3 6.477 15.578l87.549 87.57c91.926-26.885 162.38-103.907 179.798-199.485z" fill="#025e90"/><path d="m266.885 287.997.015 9.339-.028 10.86.008 4.221-21.773-.015-.007-24.405z" fill="#34495e"/><path d="m233.956 323.436v75.077c-.015 5.632 2.135 11.292 6.446 15.593 4.306 4.298 9.958 6.467 15.606 6.467 5.64 0 11.272-2.171 15.585-6.467 4.306-4.314 6.459-9.946 6.454-15.601l.008-75.069z" fill="#ff8e31"/><path d="m244.314 323.436h-6.103v75.077c0 4.754 1.856 9.216 5.204 12.565 3.377 3.377 7.844 5.225 12.593 5.225.835-.008 1.6-.351 2.148-.901.548-.553.891-1.306.891-2.163 0-1.677-1.362-3.041-3.041-3.041-3.118.008-6.062-1.216-8.274-3.436-2.204-2.196-3.42-5.128-3.42-8.246v-75.08z" fill="#ffcd59"/><path d="m278.052 323.436h-44.096v-3.308c-.008-1.979.745-3.948 2.245-5.458 1.518-1.51 3.492-2.268 5.458-2.268l28.682.015c1.969-.015 3.94.742 5.45 2.248 1.498 1.51 2.271 3.489 2.255 5.45z" fill="#283a4d"/><path d="m326.477 120.625c-38.922-38.922-102.031-38.93-140.961 0-38.943 38.932-38.935 102.047 0 140.966 38.93 38.943 102.039 38.93 140.982.015 38.914-38.937 38.914-102.049-.021-140.981z" fill="#283a4d"/><path d="m318.858 253.975c-34.711 34.711-90.998 34.719-125.714 0-34.716-34.716-34.716-91 0-125.709 34.708-34.716 91-34.716 125.714-.008 34.722 34.722 34.722 91.001 0 125.717z" fill="#5d6d7e"/><path d="m255.992 107.709c-46.057 0-83.407 37.34-83.407 83.402 0 46.054 37.356 83.415 83.4 83.415 46.085 0 83.42-37.363 83.42-83.415.007-46.061-37.34-83.409-83.413-83.402z" fill="#f2f9ff"/><path d="m256 131.333c-33.009 0-59.786 26.78-59.786 59.779 0 33.019 26.778 59.773 59.786 59.773 33.021 0 59.781-26.755 59.781-59.773 0-32.999-26.76-59.779-59.781-59.779z" fill="#c1d354"/><path d="m286.643 191.112c0 16.932-13.716 30.638-30.643 30.638s-30.643-13.706-30.643-30.638c0-16.911 13.716-30.638 30.643-30.638 16.924 0 30.643 13.726 30.643 30.638z" fill="#34495e"/><g fill="#fff"><path d="m230.331 139.156c5.716 5.706 4.46 16.238-2.796 23.501-7.268 7.252-17.789 8.507-23.493 2.783-5.724-5.706-4.475-16.233 2.788-23.498 7.263-7.25 17.792-8.507 23.501-2.786z"/><path d="m250.557 173.315c2.691 2.685 2.099 7.634-1.313 11.044-3.412 3.42-8.358 4.014-11.054 1.313-2.688-2.688-2.099-7.626 1.313-11.044 3.428-3.42 8.372-4.007 11.054-1.313z"/></g></svg>