<svg enable-background="new 0 0 512 512" viewBox="0 0 512 512" xmlns="http://www.w3.org/2000/svg"><circle cx="256" cy="256" fill="#34495e" r="256"/><path d="m511.98 256.829-128.44-128.445c-5.934-5.937-14.136-9.608-23.199-9.608-4.662 0-9.052.952-13.043 2.721-.044 0-.09 0-.133.044-.906.366-1.812.814-2.67 1.272-.182.131-.412.269-.589.407-.681.361-1.362.768-2.043 1.224-.407.269-.773.586-1.129.855-.451.32-.906.637-1.316 1.001-.819.632-1.587 1.354-2.309 2.084l-4.214 4.211-1.398-1.362c-2.268-2.266-5.261-3.533-8.476-3.487-3.167 0-6.203 1.224-8.422 3.533l-45.791 46.157c-.358.358-.681.814-.858 1.313-.049.133-.049.269-.09.407-.092.358-.182.678-.182 1.039 0 .225.09.494.133.724.051.228.051.502.141.681.136.361.361.678.586.993.097.092.097.182.182.269.049.092.09.141.141.182.044.051.082.095.182.138l6.651 6.659-56.064 56.029 4.073 4.076-3.666 4.754-27.587 36.001 1.539 1.595-52.721 30.208c.366 22.915-6.205 45.921-19.699 65.58-.228.051-.407.136-.502.266-.177.189-.271.458-.177.724-1.137.049-2.04.906-2.04 2.043 0 .266.046.499.182.722l1.175 1.18 118.298 118.321c5.788.386 11.61.66 17.495.66 141.107 0 255.529-114.176 255.98-255.171z" fill="#203549"/><path d="m267.891 393.219h-146.97c-1.142 0-2.074-.919-2.074-2.074 0-1.144.932-2.079 2.074-2.079h146.97c1.152 0 2.081.932 2.081 2.079-.002 1.152-.929 2.074-2.081 2.074z" fill="#5d6d7e"/><path d="m189.399 370.68 30.269-52.716-25.692-25.677-52.713 30.216c.356 22.902-6.205 45.944-19.732 65.595-.2.051-.379.148-.484.253-.294.282-.294.814 0 1.111.294.287.771.279 1.075.008l44.081-46.129c-.433-1.334-.108-2.88.937-3.912 1.495-1.518 3.863-1.49 5.368 0 1.472 1.446 1.472 3.912.036 5.399-1.057 1.068-2.604 1.362-3.937.901l-46.139 44.091c-.266.266-.292.773 0 1.124.328.261.824.271 1.121 0 .161-.161.189-.353.251-.527 19.628-13.549 42.621-20.123 65.559-19.737z" fill="#f2f9ff"/><path d="m123.843 390.415c-.059.141-.087.366-.218.499-.328.3-.829.271-1.152.005-.323-.33-.266-.835 0-1.103l46.139-44.091c1.334.463 2.852.125 3.927-.934 1.446-1.452 1.446-3.917-.026-5.366l34.348-34.307 12.754 12.81-30.213 52.749c-22.869-.378-45.934 6.191-65.559 19.738z" fill="#b8d1e6"/><path d="m393.147 151.611c-.008-9.07-3.681-17.28-9.623-23.227-5.939-5.926-14.141-9.603-23.209-9.603s-17.27 3.676-23.219 9.603l-117.476 117.486 46.41 46.418 117.847-117.816c5.947-5.94 9.262-13.799 9.27-22.861z" fill="#ff8e31"/><path d="m264.998 214.564c-1.551-1.551-1.551-4.081 0-5.622l53.107-53.112c1.551-1.562 4.076-1.562 5.632 0 1.546 1.549 1.546 4.07 0 5.619l-53.115 53.117c-1.546 1.547-4.067 1.547-5.624-.002z" fill="#ffcd59"/><path d="m347.73 133.75c-.317-.32-.586-.689-.781-1.111-.942-1.992-.092-4.365 1.887-5.302 3.633-1.723 7.496-2.588 11.477-2.588 7.171 0 13.921 2.79 18.99 7.862 1.559 1.551 1.559 4.065.008 5.624-1.559 1.556-4.081 1.556-5.632.008-3.569-3.574-8.315-5.537-13.366-5.537-2.796 0-5.499.607-8.069 1.823-1.56.744-3.357.375-4.514-.779z" fill="#ffcd59"/><path d="m221.251 319.524-28.823-28.795 31.257-40.778 38.321 38.308z" fill="#ff9d4d"/><path d="m320.409 154.658h65.658v7.956h-65.658z" fill="#b8d1e6" transform="matrix(-.7071 -.7071 .7071 -.7071 490.8427 520.5866)"/><path d="m257.224 291.93 4.782-3.671-38.321-38.308-3.658 4.779z" fill="#f28124"/><path d="m332.874 132.618-1.377-1.39c-2.26-2.258-5.274-3.497-8.471-3.492-3.203.015-6.2 1.265-8.456 3.533l-45.755 46.18c-1.546 1.549-1.533 4.055.013 5.606 0 .015.008.015.015.015 1.559 1.549 4.073 1.541 5.624-.028l45.757-46.167c.742-.763 1.756-1.183 2.816-1.183 1.068 0 2.081.415 2.829 1.167l1.377 1.385z" fill="#f2f9ff"/></svg>