<svg enable-background="new 0 0 512 512" viewBox="0 0 512 512" xmlns="http://www.w3.org/2000/svg"><circle cx="256" cy="256" fill="#c1d354" r="256"/><path d="m511.818 263.188-119.877-119.856c-.077-.084-.12-.164-.205-.248l-1.347-1.349c-.085-.082-.169-.123-.246-.205-1.062-.737-2.376-1.149-3.722-1.149h-260.835c-3.681 0-6.666 3.031-6.666 6.671v168.392c0 1.226.323 2.371.942 3.356l2.373 2.371 185.577 185.577c114.271-23.487 200.668-123.137 204.006-243.56z" fill="#9db138"/><path d="m291.704 366.277h-71.442l9.083-44.173h53.287z" fill="#cee2f2"/><path d="m291.704 366.277-9.072-44.173h-53.287l44.158 44.173z" fill="#a6c8e6"/><path d="m201.139 366.285h109.701v5.338h-109.701z" fill="#f2f9ff"/><path d="m125.586 140.38c-3.676 0-6.671 3.011-6.671 6.676v168.379c0 3.676 2.995 6.666 6.671 6.666h260.836c3.658 0 6.666-2.993 6.666-6.666v-168.378c0-3.666-3.008-6.676-6.666-6.676h-260.836z" fill="#34495e"/><path d="m132.769 154.24h246.451v154.035h-246.451z" fill="#fff"/><path d="m146.458 168.451h10.788v3.617h-10.788z" fill="#0684ba"/><path d="m146.458 185.677h10.788v3.628h-10.788z" fill="#0684ba"/><path d="m160.026 168.451h12.293v3.617h-12.293z" fill="#34495e"/><path d="m160.026 185.677h38.925v3.628h-38.925z" fill="#34495e"/><g fill="#0684ba"><path d="m173.732 168.451h9.874v3.617h-9.874z"/><path d="m157.235 175.002h17.144v3.625h-17.144z"/><path d="m157.235 205.338h17.144v3.625h-17.144z"/><path d="m157.235 244.582h17.144v3.617h-17.144z"/><path d="m157.235 211.891h7.066v3.625h-7.066z"/><path d="m178.432 205.338h44.833v3.625h-44.833z"/><path d="m175.565 224.973h15.598v3.62h-15.598z"/><path d="m176.044 238.08h15.598v3.615h-15.598z"/><path d="m176.044 290.406h15.598v3.615h-15.598z"/></g><g fill="#c1d354"><path d="m195.251 224.973h25.329v3.62h-25.329z"/><path d="m195.251 238.08h10.998v3.615h-10.998z"/><path d="m188.595 251.136h12.928v3.622h-12.928z"/><path d="m188.595 277.325h24.824v3.628h-24.824z"/><path d="m196.685 290.406h9.152v3.615h-9.152z"/><path d="m259.635 264.218h12.928v3.612h-12.928z"/></g><path d="m225.587 224.973h13.957v3.62h-13.957z" fill="#34495e"/><path d="m242.202 224.973h6.605v3.62h-6.605z" fill="#c1d354"/><g fill="#34495e"><path d="m228.352 205.338h32.228v3.625h-32.228z"/><path d="m267.136 205.338h19.743v3.625h-19.743z"/><path d="m157.235 192.23h25.592v3.63h-25.592z"/><path d="m157.235 198.784h36.285v3.612h-36.285z"/><path d="m166.912 211.891h41.595v3.625h-41.595z"/><path d="m166.912 257.69h41.595v3.622h-41.595z"/><path d="m180.096 264.218h25.06v3.612h-25.06z"/><path d="m180.096 283.878h12.045v3.625h-12.045z"/><path d="m205.85 283.878h25.293v3.625h-25.293z"/><path d="m213.427 290.406h17.708v3.615h-17.708z"/><path d="m217.508 264.218h39.619v3.612h-39.619z"/><path d="m217.508 277.325h39.619v3.628h-39.619z"/></g><g fill="#0684ba"><path d="m166.912 218.445h5.742v3.622h-5.742z"/><path d="m166.912 231.526h14.702v3.625h-14.702z"/><path d="m166.912 251.136h14.702v3.622h-14.702z"/><path d="m166.912 264.218h9.871v3.612h-9.871z"/><path d="m166.912 277.325h16.919v3.628h-16.919z"/><path d="m166.912 283.878h9.121v3.625h-9.121z"/><path d="m195.251 283.878h7.757v3.625h-7.757z"/><path d="m207.923 264.218h6.643v3.612h-6.643z"/></g><path d="m175.565 218.445h9.06v3.622h-9.06z" fill="#34495e"/><path d="m175.565 270.771h25.966v3.617h-25.966z" fill="#34495e"/><path d="m205.312 270.771h20.634v3.617h-20.634z" fill="#34495e"/><path d="m227.021 270.771h45.55v3.617h-45.55z" fill="#34495e"/><path d="m186.138 218.445h7.38v3.622h-7.38z" fill="#c1d354"/><path d="m195.251 218.445h25.329v3.622h-25.329z" fill="#34495e"/><path d="m210.842 211.891h7.432v3.625h-7.432z" fill="#c1d354"/><path d="m225.587 211.891h13.957v3.625h-13.957z" fill="#ff8e31"/><path d="m197.402 198.784h36.288v3.612h-36.288z" fill="#34495e"/><path d="m271.949 198.784h11.292v3.612h-11.292z" fill="#ff8e31"/><path d="m236.186 198.784h22.669v3.612h-22.669z" fill="#ff8e31"/><path d="m260.582 198.784h7.421v3.612h-7.421z" fill="#c1d354"/><path d="m285.747 198.784h7.411v3.612h-7.411z" fill="#c1d354"/><path d="m191.181 192.23h39.306v3.63h-39.306z" fill="#34495e"/><path d="m184.627 192.23h4.746v3.63h-4.746z" fill="#0684ba"/><path d="m176.627 175.002h6.981v3.625h-6.981z" fill="#34495e"/><path d="m185.088 175.002h5.604v3.625h-5.604z" fill="#c1d354"/><path d="m336.379 255.875v-2.709h-1.349v-1.362h-1.362v-1.359h-1.367v-1.362h-1.352v-1.342h-1.375v-1.387h-1.341v-1.352h-1.362v-1.364h-1.364v-1.347h-1.37v-1.369h-1.354v-1.355h-1.37v-1.364h-1.357v23.124h2.727v-1.369h1.354v-1.354h1.37v-1.373h1.364v2.727h1.362v2.721h1.341v1.365h2.727v-1.365h1.367v-2.721h-1.367v-2.727h-1.352v-1.356z" fill="#34495e"/></svg>