<svg enable-background="new 0 0 46.649 46.649" height="46.649" viewBox="0 0 46.649 46.649" width="46.649" xmlns="http://www.w3.org/2000/svg"><path d="m5.961 22.944c.973.525 1.003 1.269.39 2.188-1.022 1.53-.945 3.566.006 5.714.804 1.816 2.968 2.688 4.763 3.062.958.2.661.674 1.184 2.277 3.529 10.83 13.622 12.766 23.354 8.043.746-.362 1.471-.763 2.166-1.199.936-.588 1.792-1.211 1.957-1.333.166-.122.94-.848 1.676-1.671 1.849-2.068 3.015-4.642 2.949-7.792-.009-.438-.049-.856-.11-1.26-.104-.689-.231-1.735-.294-2.347-.036-.355-.095-.721-.182-1.096-.027-.116-.115-.183-.241-.212-.182-.044-.69-.84-1.121-1.858-.666-1.578-1.237-3.158-1.205-5.025.029-1.623.137-4.743-.923-6.587-.55-.957-.732-1.872-.186-2.831 1.406-2.467 1.143-6.017.227-8.49-1.237-3.345-6.424-2.669-8.968-1.891-.94.288-1.874.649-2.798 1.069-1.005.456-2.464.283-3.437-.242-5.975-3.223-12.993 1.951-17.557 6.491-5.201 5.174-8.133 11.486-1.65 14.99zm28.684 20.609c-2.786 1.578-6.031 2.378-9.104 2.07-1.099-.11-1.804-.526-1.604-.733.199-.207-.087-.555-.612-.837-.523-.281-1.136-.343-1.397-.079-.263.265-.765.333-1.105.125-.342-.207-.365-.637-.067-.938.299-.301.529-.553.519-.565-.012-.011-.258.229-.551.536-.293.308-.663.467-.825.355-.097-.067-.193-.138-.287-.211-.159-.126-.312-.261-.462-.4-.247-.23-.165-.721.172-1.081.336-.36.26-1.099-.115-1.692s-.957-.778-1.353-.385c-.396.395-1.21-.038-1.699-1.027-.051-.104-.102-.207-.151-.312-.472-.998-.4-2.215.056-2.672s.774-.989.714-1.188c-.062-.198-.208-.395-.332-.44s-.539.204-.928.561-.857.16-1.023-.449c-.103-.378-.196-.748-.277-1.11-.04-.181-.332-.237-.474-.244-.798-.035-1.672-.38-2.499-.92-.924-.604-1.233-1.553-.867-1.889s.425-.931.19-1.36-.715-.485-1.141-.09c-.425.395-1.011.35-1.229-.141-.219-.489.181-1.379.79-1.947.608-.569 1.303-1.619 1.851-2.103.547-.482 1.143-.692 1.16-.709.019-.017.437.051.91-.064.304-.074.581-.214.757-.428 2.235-2.712 5.628-6.171 9.34-8.102.98-.51 1.273-.296.59.338-.684.634-.521.607.423.033.686-.417 1.388-.787 2.098-1.096 1.013-.441 1.904-.681 1.929-.704s.953-.099 2.032.139c.204.045.407.098.609.161 1.056.325 1.611.986 1.365 1.199-.245.213-.522.37-.631.345-.107-.024-.069-.165.085-.313.155-.148.225-.273.152-.276s-.184.015-.25.043c-.038.016-.099.057-.165.108-.085.067-.122.097-.095.055.029-.047.033-.069-.007-.051-.058.026-.159.1-.228.165-.067.066-1.003-.081-2.106-.1-1.7-.028-3.406.351-4.777 1.211-2.457 1.542-3.928 2.765-3.86 5.779.028 1.269 2.494 3.775 2.138 4.29-6.055 8.741 3.688 15.436 12.022 16.036 1.1.078 1.279.563.319 1.107zm6.328-6.701c-.47 1.062-1.096 2.06-1.844 2.974-.699.854-2.257 1.618-3.36 1.59-.187-.004-.373-.014-.561-.027-1.102-.079-1.921-.354-1.852-.424s.006-.188-.139-.268-.343-.062-.443.043c-.103.104-.995-.023-1.948-.417-.953-.395-1.463-1.038-1.198-1.311.266-.272.112-.741-.314-1.083-.427-.34-.998-.396-1.302-.089-.305.307-.805.364-1.104.112s-.262-.741.069-1.074.562-.646.521-.698c-.042-.053-.343.186-.672.532s-.926.318-1.295-.099-.33-1.108.045-1.509.488-1.073.311-1.527c-.179-.454.064.004.758.865 3.066 3.808 9.255 4.097 13.368 1.699.953-.555 1.407-.299.96.711zm-2.176-1.297.23-.225c.253-.254.505-.508.758-.763.418-.421.452-.198-.099.354-.551.554-1.016.759-.889.634zm2.645-5.038c-.032.867-.836 2.193-1.607 2.984-.255.261-.51.522-.764.784-.771.79-1.298 1.5-1.174 1.582.124.083-.174.34-.7.486-.306.085-.629.149-.97.19-.63.077-1.262.065-1.882-.023-1.032-.148-1.61-.706-1.353-.973.258-.265.183-.819-.103-1.286-.285-.465-.823-.511-1.266-.064-.441.444-.784.838-.763.875.022.037-.724-.425-1.461-1.249-.021-.025-.043-.049-.065-.073-.726-.833-.356-1.715.56-1.817.916-.101 1.341.121.954.53-.388.409-.682.824-.651.924.03.102.484-.252 1.015-.788.53-.534 1.512-1.053 2.188-1.18.676-.126 1.095-.117.939.041-.156.157.348.263 1.125.211.776-.051 1.733-.446 2.139-.86.404-.413 1.418-.977 2.252-1.28.836-.302 1.62.119 1.587.986zm-1.213-4.312c.514.978.71 1.873.542 1.951-.149.068-.27.124-.307.14-1.698.703-3.444 1.29-5.185 1.878-2.66.619-5.397.892-8.122.987-.271.009-2.043.353-1.862.877.009.024.02.046.029.068.019.036-.333.431-.778.88-.444.448-1.182-.018-1.333-1.111-.092-.665-.094-1.345.009-2.035.161-1.093 1.176-2.557 1.948-3.346.103-.104.203-.207.305-.311.771-.79 1.348-1.487 1.285-1.561-.062-.072-.539.256-1.069.736s-.892.772-.809.653c.049-.07.1-.142.154-.212.109-.141.172-.269.03-.412-.365-.366-.67-.788-.916-1.243-.406-.755-.129-1.849.399-2.35.527-.501.955-.996.961-1.106.006-.109-.435.237-.984.774s-1.214.084-1.118-1.016c.225-2.586 1.972-4.824 5.214-4.134 1.08.23 2.055.894 2.374.912.21.012.436-.023.579-.039.163-.018.323-.051.479-.099.043-.014.381-.149.688-.32.367-.204.728-.593.934-.77.206-.176.979-.989 1.92-1.57.896-.554 1.738-.666 2.366.762.776 1.766.678 4.057.689 5.94.016 2.33.765 3.531 1.578 5.077zm-14.597-21.039c.596-.42 1.397-.834 1.742-1.025.346-.191 1.111-.911 1.923-1.387.491-.288.987-.565 1.49-.83.074-.039.146-.074.218-.108.122-.058.243-.095.271-.085.027.009.083-.015.124-.057.042-.042.9-.484 1.999-.593 4.901-.485 6.603 6.336 4.733 9.917-.512.979-1.812 1.615-2.424 1.855-.611.24-1.826-.001-2.851-.416-.27-.109-.539-.205-.81-.29-1.055-.329-1.881-.478-1.787-.564.064-.06-.082-.103-.351-.099-.23.004-1.072.104-1.877.202-.472.057-.982.128-1.453.218-5.884 1.135-11.578 6.278-15.095 10.544-.179.216-.254.406-.252.567.003.349-.286 1.123-1.067 1.905-.301.302-.61.612-.929.93-.781.782-1.669.438-1.121-.521.34-.593.948-1.098 1.896-1.448.021-.008.036-.015.056-.023.039-.015.074-.03.112-.046.137-.058.247-.114.333-.169.174-.11.264-.289.282-.313.013-.015.023-.03.029-.047 1.392-3.505 3.328-6.64 5.645-9.481 1.931-1.982 3.833-3.931 5.708-5.852.779-.682 1.574-1.35 2.393-1.997.347-.274.702-.534 1.063-.787zm-21.266 10.45c.111-.894.531-1.806 1.111-2.7.602-.926.871-1.135.505-.538s.013.468.785-.321c2.806-2.866 5.186-5.282 6.952-7.05.779-.782 1.481-1.448 1.562-1.49s-.476.567-1.244 1.361c-2.399 2.479-5.555 5.728-7.575 7.813-.769.794-1.395 1.452-1.402 1.468s.616-.607 1.39-1.395c.692-.704 1.587-1.615 2.722-2.772 1.821-1.872 3.513-3.61 5.104-5.246.771-.792 2.185-1.868 3.234-2.212 1.862-.611 3.771-.674 5.554.181.996.478.898 1.587.004 2.233-5.548 4.009-10.358 9.825-13.324 15.546-.508.981-1.701 1.436-2.6.794-1.823-1.303-3.087-3.166-2.778-5.672z"/><path d="m29.392 20.977c-1.192.152-1.515 1.404-1.55 2.44-.028.797.318 2.496 1.453 2.351 1.192-.151 1.514-1.403 1.551-2.44-.028-.83-.307-2.496-1.454-2.351zm-.204 4.327c-.511-.336-.627-1.167-.687-1.716-.03-.286.138-2.713.997-2.147.588.386.674 1.379.696 2.006-.017.376-.226 2.37-1.006 1.857z"/><path d="m35.729 18.779c-1.108.141-1.364 1.566-1.396 2.452-.034.992.398 2.431 1.612 2.276 1.108-.141 1.363-1.566 1.396-2.451-.034-.986-.356-2.437-1.612-2.277zm-.045 4.299c-.592-.389-.676-1.396-.697-2.022-.013-.342.224-2.361 1.008-1.847.591.389.676 1.396.697 2.022-.012.33-.209 2.372-1.008 1.847z"/><path d="m15.634 22.863c.013.008.034-.005.056-.03.023-.028.005-.049-.029-.027-.036.024-.043.049-.027.057z"/><path d="m34.321 11.939c-.02-.006-.15.101-.29.239-.141.138-.229.245-.197.239.032-.005.163-.112.292-.239.128-.127.216-.234.195-.239z"/><path d="m28.897 4.135c.033-.013.246-.209.476-.439.231-.229.308-.467.167-.521-.14-.054-.816.477-1.51 1.18-.693.704-.806.927-.234.523.571-.403 1.069-.729 1.101-.743z"/></svg>