<svg enable-background="new 0 0 512 512" viewBox="0 0 512 512" xmlns="http://www.w3.org/2000/svg"><circle cx="256" cy="256" fill="#3e4959" r="256"/><g fill="#d9d8d7"><path d="m307.877 189.714v9.705h106.489v-8.469c-29.785 0-56.852-11.518-77.064-30.33h-58.629v29.095h29.204z"/><path d="m218.726 160.619v14.554h-48.048l-14.561 14.541h77.206v-29.095z"/><path d="m307.877 266.858h-14.607-14.597-3.171v.01 7.36.664 7.376h3.171 6.821v1.159h-6.821-3.171v7.363.007h4.998v.661h-4.998v7.376.007h9.992v1.159h-9.992v7.36h3.174 1.823v.667h-1.823-3.174v7.373h9.992v1.15h-9.992v.01 7.376h3.174 1.823v.651h-4.998v.007 7.376h9.992v1.163h-6.821-3.171v7.366h3.174 1.823v.664h-1.823-3.174v7.37h9.992v1.163h-9.992v.007 7.36.01h4.998v.667h-1.823-3.174v7.36h9.992v1.169h-9.992v.003 7.37h3.174 1.823v.664h-4.998v7.37.007h9.992v1.156h-6.821-3.171v7.36.671 7.383.135h3.171 14.597v-102.429h44.032c20.212-18.818 47.279-30.35 77.064-30.35v-8.456h-28.865-77.623z"/></g><path d="m268.668 398.247h6.834v-7.383h-1.833v-.671h1.833v-7.36h-6.834v-1.163h6.834v-7.37-.007h-1.833v-.657h1.833v-7.37h-6.834v-1.166h6.834v-.007-7.36h-1.833v-.677h1.833v-7.36h-6.834v-1.156h6.834v-.013-7.37h-1.833v-.664h1.833v-7.366h-6.834v-1.153h6.834v-.01-7.376h-1.833v-.657h1.833v-7.376h-6.834v-1.153h6.834v-.007-7.373h-1.833v-.667h1.833v-7.36-.016h-6.834v-1.15h6.834v-7.376h-1.833v-.667h1.833v-7.363h-6.834v-1.159h6.834v-7.376h-1.833v-.664h1.833v-7.36h-6.834v-1.169h10.005v-7.376h-5.004v-.657h5.004v-7.376h-10.005v-1.166h10.005v-7.366h-5.004v-.674h5.004v-7.366h-10.005v-1.153h10.005v-7.383h-5.004v-.664h5.004v-7.366h-10.005v-1.159h10.005v-7.379h-5.004v-.657h5.004v-7.37h-10.005v-1.166h10.005v-9.705-29.095h-45.35v29.095 77.144h3.178v131.525h-3.178v112.607c7.474.657 15.033 1.012 22.677 1.012 7.643 0 15.201-.355 22.673-1.011v-4.136h-5.004v-.671h5.004v-7.366h-10.005v-1.173h10.005v-7.366h-5.004v-.664h5.004v-7.383h-10.005v-1.146h10.005v-7.37h-5.004v-.671h5.004v-7.37h-10.005v-1.159h10.005v-7.379h-5.004v-.654h5.004v-7.379h-10.005v-1.15h10.005v-7.379h-5.004v-.664h5.004v-7.36h-10.005v-1.166h10.005v-7.373h-5.004v-.664h5.004v-7.373h-10.005v-1.163h10.005v-7.376h-5.004v-.667h5.004v-7.366h-10.005z" fill="#fff"/><g fill="#242d3c"><path d="m268.67 199.42h10.01v1.166h-10.01z"/><path d="m268.67 215.99h10.01v1.159h-10.01z"/><path d="m268.67 232.56h10.01v1.153h-10.01z"/><path d="m268.67 249.12h10.01v1.166h-10.01z"/><path d="m268.668 266.868h6.834v-.01h3.171v-1.16h-10.005z"/><path d="m268.668 283.427h6.834 3.171 6.822v-1.16h-6.822-3.171-6.834z"/><path d="m268.668 299.982h6.834v.017h9.993v-1.159h-9.993v-.007h-6.834z"/><path d="m268.668 315.405v1.153h6.834v-.01h9.993v-1.149h-9.993v.006z"/><path d="m268.668 331.977v1.153h6.834 3.171 6.822v-1.162h-9.993v.009z"/><path d="m268.668 348.543v1.156h6.834v-.006h9.993v-1.163h-9.993v.013z"/><path d="m268.668 365.102v1.166h6.834v-.003h9.993v-1.169h-9.993v.006z"/><path d="m268.668 382.834h6.834 3.171 6.822v-1.156h-9.993v-.007h-6.834z"/><path d="m275.502 398.247h-6.834v1.156h10.005v-1.021h-3.171z"/><path d="m268.67 414.81h10.01v1.163h-10.01z"/><path d="m268.67 431.38h10.01v1.166h-10.01z"/><path d="m268.67 447.95h10.01v1.15h-10.01z"/><path d="m268.67 464.52h10.01v1.159h-10.01z"/><path d="m268.67 481.08h10.01v1.146h-10.01z"/><path d="m268.67 497.64h10.01v1.173h-10.01z"/><path d="m273.669 208.612h5.004.004v-.657h-.004-5.004z"/><path d="m273.669 225.181h5.004.004v-.664h-.004-5.004z"/><path d="m273.669 241.756h5.004.004v-.673h-.004-5.004z"/><path d="m273.669 258.322h5.004.004v-.657h-.004-5.004z"/><path d="m273.67 274.23h1.833v.664h-1.833z"/><path d="m273.669 291.457h1.833 4.998v-.661h-4.998v-.006h-1.833z"/><path d="m273.669 308.026h1.833 3.175 1.823v-.667h-1.823-3.175-1.833z"/><path d="m273.669 324.591h1.833v-.006h4.998v-.651h-1.823-3.175-1.833z"/><path d="m273.669 341.16h1.833 3.175 1.823v-.663h-1.823-3.175-1.833z"/><path d="m273.669 357.736h1.833 3.175 1.823v-.667h-4.998v-.01h-1.833z"/><path d="m273.669 374.295h1.833v.007h4.998v-.664h-1.823-3.175-1.833z"/><path d="m273.67 390.19h1.833v.671h-1.833z"/><path d="m273.669 407.436h5.004.004v-.667h-.004-5.004z"/><path d="m273.669 424.012h5.004.004v-.664h-.004-5.004z"/><path d="m273.669 440.574h5.004.004v-.664h-.004-5.004z"/><path d="m273.669 457.137h5.004.004v-.654h-.004-5.004z"/><path d="m273.669 473.716h5.004.004v-.671h-.004-5.004z"/><path d="m273.669 490.278h5.004.004v-.664h-.004-5.004z"/><path d="m273.669 506.854h5.004.004v-.671h-.004-5.004z"/></g><path d="m236.501 266.858h-3.178-14.597-62.609l14.561 14.547h48.048v14.554 33.165 21.533 47.725h14.597 3.178z" fill="#d9d8d7"/><path d="m213.34 329.12h5.391v21.534h-5.391z" fill="#fff"/><path d="m414.367 228.286c0-15.941-12.912-28.867-28.867-28.867-15.951 0-28.857 12.926-28.857 28.867s12.906 28.867 28.857 28.867c15.954 0 28.867-12.926 28.867-28.867z" fill="#ff6d3b"/></svg>