<svg enable-background="new 0 0 512 512" viewBox="0 0 512 512" xmlns="http://www.w3.org/2000/svg"><circle cx="256" cy="256" fill="#f2f2f2" r="256"/><path d="m258.97 370.685h162.192v-162.189zm137.952-24.246h-79.419l79.419-79.413z" fill="#ffd55c"/><g fill="#242d3c"><path d="m413.366 365.7h.885v4.994h-.885z"/><path d="m398.6 365.7h.885v4.988h-.885z"/><path d="m383.868 365.7h.889v4.994h-.889z"/><path d="m369.102 365.7h.885v4.988h-.885z"/><path d="m354.37 365.7h.895v4.988h-.895z"/><path d="m339.638 365.7h.885v4.988h-.885z"/><path d="m324.872 365.7h.882v4.994h-.882z"/><path d="m310.14 365.7h.882v4.994h-.882z"/><path d="m295.374 365.7h.889v4.988h-.889z"/><path d="m280.652 365.7h.879v4.994h-.879z"/><path d="m265.91 365.7h.885v4.988h-.885z"/><path d="m273.342 368.211h.737v2.497h-.737z"/><path d="m288.107 368.211h.73v2.497h-.73z"/><path d="m302.84 368.211h.737v2.491h-.737z"/><path d="m317.572 368.211h.74v2.497h-.74z"/><path d="m332.338 368.211h.733v2.497h-.733z"/><path d="m347.07 368.211h.737v2.491h-.737z"/><path d="m361.802 368.211h.743v2.491h-.743z"/><path d="m376.568 368.211h.74v2.497h-.74z"/><path d="m391.3 368.211h.737v2.491h-.737z"/><path d="m406.066 368.211h.74v2.491h-.74z"/></g><path d="m139.165 174.529h245.265v159.414h-245.265z" fill="#3e4959"/><path d="m139.155 221.931c2.524 7.406 6.712 14.207 12.407 19.902 9.791 9.787 22.805 15.175 36.649 15.175h147.159c13.847 0 26.859-5.394 36.639-15.175 5.705-5.705 9.896-12.496 12.42-19.909v-47.395h-245.274z" fill="#323a46"/><path d="m384.426 150.006h-245.271v55.18c0 12.556 4.79 25.111 14.362 34.69 9.583 9.579 22.132 14.362 34.694 14.362h147.159c12.556 0 25.111-4.78 34.684-14.362 9.579-9.579 14.376-22.135 14.376-34.69v-55.18z" fill="#3e4959"/><g fill="#131a26"><path d="m164.91 148.163h66.23v1.847h-66.23z"/><path d="m292.435 148.163h66.23v1.847h-66.23z"/><path d="m188.211 146.333h19.615v189.473h-19.615z"/><path d="m315.755 146.333h19.618v189.473h-19.618z"/></g><path d="m176.557 194.768h42.919v14.709h-42.919z" fill="#3e4959"/><path d="m304.095 194.768h42.919v14.709h-42.919z" fill="#3e4959"/><path d="m209.652 243.831c-1.394-1.394-3.237-2.16-5.206-2.16h-12.856c-1.969 0-3.819.766-5.209 2.16-1.394 1.394-2.157 3.244-2.157 5.212v17.761h3.987v-3.059h-.918v-14.703c0-1.156.443-2.233 1.259-3.046.813-.813 1.893-1.265 3.042-1.265h12.856c1.15 0 2.23.453 3.049 1.265.803.813 1.259 1.889 1.259 3.046v14.703h-.925v3.059h3.984v-17.761c-.008-1.965-.767-3.818-2.165-5.212z" fill="#fff"/><path d="m196.482 251.729h3.065v-8.529c0-.304-.119-.624-.36-.859-.238-.244-.545-.36-.859-.36h-.621c-.307 0-.624.116-.875.36-.231.231-.35.555-.35.859z" fill="#cccbca"/><path d="m337.193 243.831c-1.397-1.394-3.24-2.16-5.212-2.16h-12.846c-1.972 0-3.825.766-5.216 2.16-1.397 1.394-2.157 3.244-2.157 5.212v17.761h3.987v-3.059h-.918v-14.703c0-1.156.446-2.233 1.265-3.046.809-.813 1.889-1.265 3.042-1.265h12.846c1.153 0 2.236.453 3.049 1.265.813.813 1.265 1.889 1.265 3.046v14.703h-.925v3.059h3.98v-17.761c-.006-1.965-.766-3.818-2.16-5.212z" fill="#fff"/><path d="m324.02 251.729h3.072v-8.529c0-.304-.119-.624-.357-.859-.238-.244-.552-.36-.869-.36h-.614c-.311 0-.631.116-.869.36-.238.231-.363.555-.363.859z" fill="#cccbca"/><path d="m297.971 136.82c-1.103 0-2.2-.42-3.039-1.259-.836-.839-1.259-1.936-1.259-3.039v-.608c0-.495-.188-.955-.538-1.305-.344-.347-.813-.542-1.301-.542h-60.089c-.495 0-.951.195-1.305.542-.353.347-.542.806-.542 1.305v.608c0 1.103-.42 2.2-1.259 3.039-.832.839-1.932 1.259-3.032 1.259s-2.197-.42-3.029-1.259c-.839-.839-1.259-1.936-1.259-3.039v-.608c0-2.788 1.077-5.407 3.049-7.373 1.969-1.969 4.585-3.052 7.373-3.052h60.089c2.778 0 5.404 1.083 7.366 3.052s3.059 4.588 3.059 7.373v.608c0 1.103-.429 2.2-1.268 3.039-.826.839-1.923 1.259-3.016 1.259z" fill="#131a26"/><g fill="#fff"><path d="m226.69 132.975c-.294-.304-.684-.453-1.08-.453-.4 0-.786.149-1.087.453-.294.297-.446.69-.446 1.083v14.105h3.065v-14.105c.001-.393-.151-.786-.452-1.083z"/><path d="m299.048 132.975c-.304-.304-.69-.453-1.077-.453-.393 0-.789.149-1.1.453-.294.297-.439.69-.439 1.083v14.105h3.065v-14.105c0-.393-.145-.786-.449-1.083z"/><path d="m109.314 168.484-9.233-18.478-9.242 18.478z"/></g><path d="m90.839 168.498h18.475v180.191h-18.475z" fill="#f15424"/><path d="m90.839 168.498h9.239v180.191h-9.239z" fill="#ff6d3b"/><path d="m103.688 157.234-3.607-7.228-3.633 7.234z" fill="#242d3c"/><path d="m90.839 348.655h18.482v6.53h-18.482z" fill="#fff"/><path d="m90.839 355.196h18.478v15.502h-18.478z" fill="#242d3c"/></svg>