<svg enable-background="new 0 0 512 512" viewBox="0 0 512 512" xmlns="http://www.w3.org/2000/svg"><circle cx="256" cy="256" fill="#f2f2f2" r="256"/><path d="m354.918 394.491c0 3.221-2.603 5.84-5.817 5.84-3.234 0-5.84-2.619-5.84-5.84 0-3.207 2.603-5.827 5.84-5.827 3.214 0 5.817 2.62 5.817 5.827z" fill="#3e4959"/><path d="m182.239 386.543h150.934v15.915h-150.934z" fill="#3e4959"/><path d="m333.19 402.452v-15.915h13.781c.552 0 1.093.208 1.503.624.413.419.628.948.628 1.503v11.664c0 .542-.215 1.077-.628 1.496-.41.419-.951.624-1.503.624h-13.781z" fill="#242d3c"/><path d="m161.234 396.387v-3.782l21.021-6.068v15.915z" fill="#242d3c"/><path d="m157.085 394.864v-.723l4.149-1.133v2.979z" fill="#3e4959"/><path d="m201.804 402.799c0 .182.073.373.211.509.132.129.307.211.492.211h34.033c.185 0 .36-.083.489-.211.155-.135.218-.33.218-.509v-.347h-35.444v.347z" fill="#242d3c"/><path d="m406.99 228.814h15.106v54.361h-15.106z" fill="#ff6d3b"/><path d="m407.004 347.057c0 3.885-1.483 7.769-4.449 10.729-2.96 2.966-6.848 4.446-10.729 4.446h-286.826v-212.464h286.826c3.881 0 7.772 1.483 10.729 4.453 2.963 2.956 4.449 6.844 4.449 10.729z" fill="#242d3c"/><path d="m155.846 180.125h220.811v151.76h-220.811z" fill="#3e4959"/><path d="m197.698 180.122h-41.858v151.763h193.615z" fill="#465365"/><path d="m361.548 317.605h-190.606c-.456 0-.826-.373-.826-.826v-121.552c0-.459.37-.826.826-.826h190.606c.456 0 .826.367.826.826v121.552c0 .453-.37.826-.826.826zm-189.78-1.651h188.954v-119.9h-188.954z" fill="#cccbca"/><path d="m147.109 256c0 9.213-7.465 16.711-16.691 16.711-9.223 0-16.695-7.498-16.695-16.711 0-9.206 7.472-16.698 16.695-16.698 9.226 0 16.691 7.492 16.691 16.698z" fill="#3e4959"/><path d="m137.573 256c0 3.974-3.204 7.168-7.155 7.168-3.947 0-7.155-3.194-7.155-7.168 0-3.941 3.207-7.155 7.155-7.155 3.954 0 7.155 3.214 7.155 7.155z" fill="#242d3c"/><g fill="#3e4959"><path d="m122.847 180.125h15.178v9.104h-15.178z"/><path d="m122.847 196.443h15.178v9.11h-15.178z"/><path d="m122.847 212.761h15.178v9.097h-15.178z"/><path d="m122.847 290.155h15.178v9.104h-15.178z"/><path d="m122.847 306.473h15.178v9.104h-15.178z"/><path d="m122.847 322.791h15.178v9.104h-15.178z"/></g></svg>