<svg enable-background="new 0 0 512 512" viewBox="0 0 512 512" xmlns="http://www.w3.org/2000/svg"><circle cx="256" cy="256" fill="#3e4959" r="256"/><path d="m294.806 173.475c-.974-1.906-.733-4.169.654-6.213 1.47-2.174 1.794-5.46 1.09-6.834l-2.292-4.489c-.723-1.414-.165-3.135 1.252-3.865 1.404-.717 3.131-.162 3.848 1.259l2.302 4.489c1.741 3.419 1.12 8.859-1.45 12.658-.132.202-.201.34-.238.439.238.185.951.548 2.425.595l9.335.304c3.174.096 5.662 1.444 6.811 3.696 1.15 2.24.789 5.044-.998 7.677l-5.232 7.736c-.74 1.09-.717 1.728-.651 1.863.073.132.565.529 1.889.568l9.332.294c3.181.099 5.672 1.447 6.815 3.69 1.146 2.256.786 5.057-1.004 7.693l-5.229 7.736c-.743 1.09-.714 1.728-.647 1.86.073.149.571.532 1.883.568l9.338.304c3.184.102 5.662 1.447 6.815 3.69 1.143 2.253.783 5.057-1.004 7.683l-5.229 7.736c-.74 1.097-.71 1.728-.641 1.86.066.142.558.529 1.886.575l9.335.294c3.528.109 6.227 1.486 7.402 3.772.971 1.903.737 4.179-.647 6.217-1.239 1.823-1.381 6.273.271 9.513l29.729 58.203c.717 1.404.155 3.138-1.255 3.861-1.417.717-3.135.155-3.861-1.259l-29.729-58.196c-2.481-4.862-2.444-11.591.089-15.34.135-.188.205-.344.231-.439-.225-.185-.948-.548-2.418-.595l-9.335-.291c-3.181-.096-5.662-1.447-6.818-3.703-1.143-2.246-.77-5.047 1.014-7.677l5.229-7.739c.737-1.1.71-1.728.641-1.863-.066-.126-.568-.525-1.883-.565l-9.342-.301c-3.174-.092-5.662-1.453-6.808-3.7-1.153-2.249-.783-5.044.998-7.683l5.236-7.733c.75-1.093.714-1.724.644-1.863-.069-.132-.568-.529-1.883-.571l-9.332-.294c-3.184-.099-5.662-1.444-6.815-3.693-1.153-2.246-.793-5.051 1.001-7.69l5.229-7.723c.747-1.093.717-1.741.654-1.866-.069-.139-.571-.532-1.893-.565l-9.338-.297c-3.531-.132-6.236-1.5-7.406-3.786z" fill="#fff"/><path d="m338.773 286.89h57.569v12.684h-57.569z" fill="#cccbca" transform="matrix(.4548 .8906 -.8906 .4548 461.5439 -167.474)"/><path d="m361.954 310.477h38.387v-182.992c-9.827 0-19.644 3.743-27.143 11.238-7.502 7.495-11.244 17.325-11.244 27.149z" fill="#fff"/><path d="m354.965 264.489h45.367v65.13h-45.367z" fill="#d9d8d7"/><path d="m389.814 173.921h2.441v47.986h-2.441z" fill="#d9d8d7"/><path d="m149.805 318.305-22.218-22.201 135.792-116.052 12.348 12.338z" fill="#fff"/><path d="m181.869 292.296-22.981-22.977-31.301 26.785 25.243 25.224z" fill="#d9d8d7"/><g fill="#fff"><path d="m269.675 192.38h6.055v6.061h-6.055z"/><path d="m263.63 198.458h6.055v6.052h-6.055z"/><path d="m257.559 204.493h6.055v6.058h-6.055z"/><path d="m251.508 210.548h6.052v6.065h-6.052z"/><path d="m245.463 216.593h6.058v6.061h-6.058z"/><path d="m239.385 222.67h6.055v6.052h-6.055z"/><path d="m233.34 228.715h6.058v6.052h-6.058z"/><path d="m227.288 234.76h6.048v6.058h-6.048z"/><path d="m221.23 240.822h6.061v6.055h-6.061z"/><path d="m215.172 246.883h6.045v6.048h-6.045z"/><path d="m209.127 252.928h6.055v6.055h-6.055z"/><path d="m203.082 258.973h6.058v6.052h-6.058z"/><path d="m197.004 265.051h6.045v6.052h-6.045z"/><path d="m197.014 277.16-6.048-.013-.013-6.051h6.071z"/><path d="m184.908 277.141h6.058v6.058h-6.058z"/><path d="m125.622 173.921h13.963v90.568h-13.963z"/></g><path d="m120.379 264.489h24.427v36.633h-24.427z" fill="#d9d8d7"/><path d="m404.255 291.487c-6.861-6.867-15.859-10.299-24.847-10.299h-246.813c-8.998 0-17.993 3.432-24.85 10.299-6.861 6.857-10.296 15.855-10.296 24.847 0 8.991 3.435 17.989 10.296 24.853 6.857 6.867 15.855 10.296 24.85 10.296h246.814c8.991 0 17.986-3.429 24.847-10.296 6.864-6.864 10.299-15.862 10.299-24.853 0-8.992-3.436-17.99-10.3-24.847z" fill="#ff6d3b"/><path d="m390.18 316.337c0 5.956-4.826 10.782-10.775 10.782s-10.785-4.826-10.785-10.782c0-5.939 4.836-10.775 10.785-10.775s10.775 4.836 10.775 10.775z" fill="#242d3c"/><path d="m384.086 316.337c0 2.586-2.101 4.691-4.681 4.691-2.59 0-4.694-2.104-4.694-4.691 0-2.58 2.104-4.691 4.694-4.691 2.583 0 4.681 2.108 4.681 4.691z" fill="#fff"/><path d="m143.373 316.337c0 5.956-4.833 10.782-10.782 10.782-5.952 0-10.782-4.826-10.782-10.782 0-5.939 4.829-10.775 10.782-10.775 5.95 0 10.782 4.836 10.782 10.775z" fill="#242d3c"/><path d="m137.279 316.337c0 2.586-2.104 4.691-4.684 4.691-2.59 0-4.687-2.104-4.687-4.691 0-2.58 2.098-4.691 4.687-4.691 2.58 0 4.684 2.108 4.684 4.691z" fill="#fff"/></svg>