<svg enable-background="new 0 0 512 512" viewBox="0 0 512 512" xmlns="http://www.w3.org/2000/svg"><circle cx="256" cy="256" fill="#3e4959" r="256"/><path d="m175.566 165.525h160.89v262.243h-160.89z" fill="#fff"/><g fill="#cccbca"><path d="m197.893 217.012c-5.345 0-9.682 4.337-9.682 9.678v201.077h19.364v-201.077c.003-5.341-4.334-9.678-9.682-9.678z"/><path d="m226.955 217.012c-5.355 0-9.692 4.337-9.692 9.678v201.077h19.367v-201.077c.003-5.341-4.331-9.678-9.675-9.678z"/><path d="m256.003 217.012c-5.345 0-9.682 4.337-9.682 9.678v201.077h19.36v-201.077c.004-5.341-4.34-9.678-9.678-9.678z"/><path d="m285.042 217.012c-5.345 0-9.682 4.337-9.682 9.678v201.077h19.37v-201.077c.004-5.341-4.337-9.678-9.688-9.678z"/><path d="m314.097 217.012c-5.348 0-9.678 4.337-9.678 9.678v201.077h19.367v-201.077c-.001-5.341-4.344-9.678-9.689-9.678z"/><path d="m175.566 130.015h160.89v35.49h-160.89z"/><circle cx="175.566" cy="165.525" r="35.49"/></g><circle cx="175.566" cy="165.525" fill="#fff" r="22.571"/><circle cx="175.566" cy="165.525" fill="#cccbca" r="9.652"/><circle cx="336.434" cy="165.525" fill="#cccbca" r="35.49"/><circle cx="336.434" cy="165.525" fill="#fff" r="22.571"/><circle cx="336.434" cy="165.525" fill="#cccbca" r="9.652"/><path d="m140.057 110.658h231.853v19.367h-231.853z" fill="#fff"/></svg>