<svg enable-background="new 0 0 512 512" viewBox="0 0 512 512" xmlns="http://www.w3.org/2000/svg"><circle cx="256" cy="256" fill="#ff6d3b" r="256"/><path d="m256 201.626c48.481 0 87.929 39.437 87.929 87.922h49.007c0-75.621-61.311-136.929-136.935-136.929s-136.933 61.311-136.933 136.929h49.007c0-48.482 39.444-87.922 87.925-87.922z" fill="#ffd55c"/><path d="m256.017 152.612c-75.647 0-136.932 61.318-136.932 136.929h20.176c0-64.373 52.356-116.749 116.756-116.749 64.373 0 116.756 52.373 116.756 116.749h20.176c-.001-75.611-61.318-136.929-136.932-136.929z" fill="#ffc640"/><path d="m97.445 289.561h317.11v49.007h-317.11z" fill="#ffd55c"/><path d="m97.445 318.365h317.11v20.179h-317.11z" fill="#ffc640"/><g fill="#242d3c"><path d="m399.294 330.422h1.724v8.136h-1.724z"/><path d="m370.457 330.422h1.728v8.136h-1.728z"/><path d="m341.62 330.422h1.728v8.136h-1.728z"/><path d="m312.782 330.422h1.728v8.136h-1.728z"/><path d="m283.965 330.422h1.728v8.136h-1.728z"/><path d="m255.141 330.422h1.731v8.136h-1.731z"/><path d="m226.304 330.422h1.731v8.136h-1.731z"/><path d="m197.48 330.422h1.724v8.136h-1.724z"/><path d="m168.663 330.422h1.728v8.136h-1.728z"/><path d="m139.826 330.422h1.728v8.136h-1.728z"/><path d="m110.995 330.422h1.728v8.136h-1.728z"/><path d="m384.859 330.422h1.724v8.136h-1.724z"/><path d="m356.022 330.422h1.728v8.136h-1.728z"/><path d="m327.218 330.422h1.728v8.136h-1.728z"/><path d="m298.38 330.422h1.728v8.136h-1.728z"/><path d="m269.543 330.422h1.728v8.136h-1.728z"/><path d="m240.719 330.422h1.731v8.136h-1.731z"/><path d="m211.902 330.422h1.731v8.136h-1.731z"/><path d="m183.065 330.422h1.724v8.136h-1.724z"/><path d="m154.238 330.422h1.728v8.136h-1.728z"/><path d="m125.414 330.422h1.728v8.136h-1.728z"/></g><path d="m254.302 116.802h3.379v11.839h-3.379z" fill="#fff"/><path d="m253.589 127.749h4.839v4.826h-4.839z" fill="#3e4959"/><path d="m202.818 241.499h106.331v3.386h-106.331z" fill="#242d3c"/><path d="m253.589 228.682h4.839v29.006h-4.839z" fill="#fff"/><path d="m255.997 177.182c-14.131 0-25.617-11.492-25.617-25.613 0-14.128 11.485-25.62 25.617-25.62 14.125 0 25.617 11.492 25.617 25.62-.001 14.121-11.493 25.613-25.617 25.613zm0-48.33c-12.529 0-22.72 10.181-22.72 22.716 0 12.529 10.19 22.716 22.72 22.716 12.526 0 22.72-10.187 22.72-22.716-.001-12.535-10.194-22.716-22.72-22.716z" fill="#242d3c"/><path d="m315.006 386.342c.139.059.301.059.429.026l.39-.096c.142-.046.268-.122.367-.251.096-.129.139-.271.139-.42l-.043-4.324-3.739 1.014 2.127 3.762c.069.12.181.223.33.289z" fill="#3e4959"/><path d="m311.343 373.086h3.865v8.849h-3.865z" fill="#242d3c" transform="matrix(-.9655 .2604 -.2604 -.9655 714.0465 660.4207)"/><path d="m310.061 347.618 6.689 24.976c.32 1.186.185 2.517-.482 3.67-.667 1.143-1.737 1.929-2.933 2.246l-.469.129c-.601.155-1.259.083-1.84-.244-.575-.33-.965-.879-1.126-1.463l-7.317-27.318z" fill="#fff"/><path d="m280.047 265.49 10.174 37.974 14.006-3.749-38.387-143.258-4.898 1.312-4.945 17.966 12.786 47.735 4.873-1.302 11.254 42.024z" fill="#3e4959"/><path d="m290.221 303.464 18.908 70.58 3.528-.948 4.347-25.702-12.777-47.679z" fill="#242d3c"/><path d="m322.065 347.605c1.381 5.156-1.678 10.451-6.834 11.839-5.16 1.374-10.455-1.685-11.842-6.838-1.377-5.15 1.681-10.465 6.834-11.839 5.156-1.38 10.461 1.678 11.842 6.838z" fill="#fff"/><circle cx="312.716" cy="350.109" fill="#3e4959" r="2.418"/><path d="m293.383 277.817h1.45v24.173h-1.45z" fill="#242d3c" transform="matrix(.9661 -.2582 .2582 .9661 -64.8799 85.7681)"/><path d="m301.031 277.738h4.833v19.338h-4.833z" fill="#fff" transform="matrix(-.9659 .259 -.259 -.9659 670.9767 486.416)"/><path d="m285.193 289.639h1.939v4.829h-1.939z" fill="#fff" transform="matrix(-.9657 .2597 -.2597 -.9657 638.3529 499.7719)"/><path d="m199.128 373.046-2.52 9.392-.056 3.93 1.922-3.432 2.517-9.387z" fill="#cdd3da"/><path d="m199.614 363.755-2.999 11.208c-.195.71-.112 1.503.291 2.2.4.697 1.044 1.163 1.761 1.348.714.188 1.503.116 2.197-.291.694-.4 1.159-1.044 1.348-1.761l3.003-11.208z" fill="#fff"/><path d="m227.08 264.192 11.261-42.024 4.862 1.302 12.794-47.735-4.942-17.966-4.905-1.312-51.161 190.937 4.344 25.709 3.521.941 29.095-108.554z" fill="#3e4959"/><circle cx="256" cy="175.732" fill="#fff" r="9.665"/><circle cx="256" cy="175.732" fill="#3e4959" r="2.418"/><path d="m230.334 243.18c0 1.341-1.083 2.408-2.418 2.408-1.331 0-2.411-1.064-2.411-2.408 0-1.335 1.08-2.418 2.411-2.418 1.334 0 2.418 1.084 2.418 2.418z" fill="#242d3c"/><path d="m286.492 243.18c0 1.341-1.083 2.408-2.415 2.408-1.335 0-2.415-1.064-2.415-2.408 0-1.335 1.08-2.418 2.415-2.418 1.332 0 2.415 1.084 2.415 2.418z" fill="#242d3c"/><path d="m217.435 240.762h4.833v4.826h-4.833z" fill="#fff"/><path d="m289.726 240.762h4.833v4.826h-4.833z" fill="#fff"/><path d="m262.765 111.415-3.386 13.229h-6.765l-3.382-13.229z" fill="#3e4959"/><path d="m249.228 85.983h13.533v25.438h-13.533z" fill="#242d3c"/></svg>