<svg enable-background="new 0 0 512 512" viewBox="0 0 512 512" xmlns="http://www.w3.org/2000/svg"><circle cx="256" cy="256" fill="#ff6d3b" r="256"/><path d="m326.481 354.278c0 10.775-4.109 21.554-12.334 29.782-8.222 8.218-19.007 12.328-29.782 12.328h-133.365v-280.775h133.364c10.775 0 21.557 4.116 29.782 12.334 8.225 8.225 12.334 19.007 12.334 29.782z" fill="#3e4959"/><path d="m151 214.039h175.467v83.928h-175.467z" fill="#fff"/><path d="m124.125 115.613h26.875v280.774h-26.875z" fill="#242d3c"/><path d="m164.544 115.613h10.983v280.774h-10.983z" fill="#f15424"/><path d="m238.46 241.135h29.703v29.703h-29.703z" fill="#ff6d3b"/><path d="m196.545 270.851 17.141-29.702 17.15 29.702z" fill="#ffc640"/><path d="m305.469 256c0 8.199-6.653 14.851-14.845 14.851-8.212 0-14.858-6.653-14.858-14.851 0-8.199 6.646-14.851 14.858-14.851 8.192 0 14.845 6.652 14.845 14.851z" fill="#242d3c"/><path d="m360.382 228.682h14.485v8.053h-14.485z" fill="#cccbca"/><path d="m374.853 268.11v121.05c0 3.994-3.247 7.227-7.244 7.227-3.99 0-7.237-3.234-7.237-7.227v-121.05z" fill="#ffd55c"/><path d="m374.853 389.163v-121.053h-7.244v128.277c3.997 0 7.244-3.234 7.244-7.224z" fill="#ffb733"/><path d="m387.875 215.651-20.265-43.755-20.262 43.755-.003.007h.016c7.171 0 12.985 5.807 13.008 12.982v.04h14.485v-.04c.017-7.175 5.83-12.982 13.005-12.982h.017z" fill="#fff"/><path d="m366.79 171.9h1.622v27.38h-1.622z" fill="#131a26"/><path d="m376.34 236.729c.172 0 .34.066.466.195s.201.304.201.472v30.053c0 .162-.073.344-.201.472-.126.122-.294.195-.466.195h-17.458c-.165 0-.34-.069-.472-.195-.129-.129-.195-.311-.195-.472v-30.053c0-.168.066-.344.195-.472.132-.129.307-.195.472-.195z" fill="#3e4959"/><path d="m358.202 237.393h18.789v30.059h-18.789z" fill="#131a26"/><g fill="#3e4959"><path d="m375.874 237.393h.555v30.059h-.555z"/><path d="m374.553 237.393h.555v30.059h-.555z"/><path d="m373.264 237.393h.542v30.059h-.542z"/><path d="m371.943 237.393h.548v30.059h-.548z"/><path d="m370.622 237.393h.548v30.059h-.548z"/><path d="m369.301 237.393h.548v30.059h-.548z"/><path d="m367.979 237.393h.548v30.059h-.548z"/><path d="m366.658 237.393h.545v30.059h-.545z"/><path d="m365.37 237.393h.548v30.059h-.548z"/><path d="m364.048 237.393h.555v30.059h-.555z"/><path d="m362.727 237.393h.558v30.059h-.558z"/><path d="m361.406 237.393h.558v30.059h-.558z"/><path d="m360.085 237.393h.555v30.059h-.555z"/><path d="m358.763 237.393h.552v30.059h-.552z"/></g></svg>