<svg enable-background="new 0 0 512 512" viewBox="0 0 512 512" xmlns="http://www.w3.org/2000/svg"><circle cx="256" cy="256" fill="#3e4959" r="256"/><path d="m251.078 155.318h166.78v218.872h-166.78z" fill="#21d8de"/><path d="m251.078 137.794h166.78v17.543h-166.78z" fill="#fff"/><g fill="#242d3c"><path d="m272.318 174.975h86.875v3.425h-86.875z"/><path d="m299.867 181.413h49.747v3.425h-49.747z"/><path d="m292.534 187.851h104.068v3.425h-104.068z"/><path d="m292.534 194.283h18.26v3.425h-18.26z"/><path d="m272.318 210.217h41.535v3.432h-41.535z"/><path d="m292.534 216.659h97.921v3.425h-97.921z"/><path d="m292.534 223.067h81.273v3.425h-81.273z"/><path d="m272.318 239.021h65.87v3.425h-65.87z"/><path d="m292.534 245.463h70.768v3.425h-70.768z"/><path d="m292.534 251.871h21.332v3.425h-21.332z"/><path d="m305.383 258.312h80.982v3.425h-80.982z"/><path d="m292.534 264.754h29.27v3.425h-29.27z"/><path d="m272.318 280.685h45.631v3.425h-45.631z"/><path d="m292.732 287.116h56.878v3.425h-56.878z"/><path d="m292.732 293.558h34.984v3.419h-34.984z"/><path d="m272.318 309.479h101.475v3.432h-101.475z"/><path d="m292.534 315.921h25.428v3.432h-25.428z"/><path d="m292.534 322.362h49.78v3.425h-49.78z"/><path d="m316.68 328.77h75.574v3.419h-75.574z"/><path d="m272.318 344.725h60.139v3.425h-60.139z"/><path d="m292.534 351.166h72.304v3.419h-72.304z"/></g><path d="m87.535 208.301h247.167v95.367h-247.167z" fill="#fff"/><g fill="#cccbca"><path d="m95.671 216.46h12.318v12.305h-12.318z"/><path d="m298.083 232.646h12.311v12.311h-12.311z"/><path d="m281.897 232.646h12.314v12.311h-12.314z"/><path d="m265.678 232.646h12.318v12.311h-12.318z"/><path d="m249.493 232.646h12.311v12.311h-12.311z"/><path d="m233.307 232.646h12.305v12.311h-12.305z"/><path d="m217.118 232.646h12.318v12.311h-12.318z"/><path d="m200.922 232.646h12.318v12.311h-12.318z"/><path d="m184.73 232.646h12.318v12.311h-12.318z"/><path d="m168.531 232.646h12.314v12.311h-12.314z"/><path d="m152.345 232.646h12.318v12.311h-12.318z"/><path d="m136.159 232.646h12.314v12.311h-12.314z"/><path d="m119.973 232.646h12.318v12.311h-12.318z"/><path d="m123.871 248.832h12.311v12.318h-12.311z"/><path d="m115.943 265.018h12.318v12.305h-12.318z"/><path d="m132.129 265.018h12.314v12.305h-12.314z"/><path d="m148.328 265.018h12.314v12.305h-12.314z"/><path d="m164.517 265.018h12.314v12.305h-12.314z"/><path d="m180.703 265.018h12.318v12.305h-12.318z"/><path d="m196.905 265.018h12.308v12.305h-12.308z"/><path d="m213.091 265.018h12.308v12.305h-12.308z"/><path d="m229.277 265.018h12.318v12.305h-12.318z"/><path d="m245.463 265.018h12.311v12.305h-12.311z"/><path d="m261.648 265.018h12.318v12.305h-12.318z"/><path d="m277.834 265.018h12.308v12.305h-12.308z"/><path d="m293.987 265.018h32.58v12.305h-32.58z"/><path d="m140.057 248.832h12.318v12.318h-12.318z"/><path d="m156.243 248.832h12.314v12.318h-12.314z"/><path d="m172.428 248.832h12.308v12.318h-12.308z"/><path d="m188.614 248.832h12.318v12.318h-12.318z"/><path d="m204.8 248.832h12.314v12.318h-12.314z"/><path d="m220.992 248.832h12.311v12.318h-12.311z"/><path d="m237.178 248.832h12.311v12.318h-12.311z"/><path d="m253.357 248.832h12.311v12.318h-12.311z"/><path d="m269.543 248.832h12.318v12.318h-12.318z"/><path d="m285.729 248.832h12.314v12.318h-12.314z"/><path d="m301.915 248.832h12.308v12.318h-12.308z"/><path d="m111.87 216.46h12.308v12.305h-12.308z"/><path d="m128.059 216.46h12.314v12.305h-12.314z"/><path d="m144.249 216.46h12.314v12.305h-12.314z"/><path d="m160.431 216.46h12.318v12.305h-12.318z"/><path d="m176.623 216.46h12.318v12.305h-12.318z"/><path d="m192.809 216.46h12.305v12.305h-12.305z"/><path d="m208.995 216.46h12.314v12.305h-12.314z"/><path d="m225.214 216.46h12.314v12.305h-12.314z"/><path d="m241.4 216.46h12.308v12.305h-12.308z"/><path d="m257.579 216.46h12.314v12.305h-12.314z"/><path d="m273.771 216.46h12.305v12.305h-12.305z"/><path d="m289.957 216.46h12.318v12.305h-12.318z"/><path d="m306.143 216.46h20.414v12.305h-20.414z"/><path d="m95.671 232.646h20.427v12.311h-20.427z"/><path d="m95.671 248.832h24.332v12.318h-24.332z"/><path d="m95.671 265.018h16.414v12.305h-16.414z"/><path d="m95.671 281.204h12.321v14.356h-12.321z"/><path d="m111.814 281.204h12.321v14.356h-12.321z"/><path d="m127.96 281.204h12.318v14.356h-12.318z"/><path d="m144.103 281.204h16.516v14.356h-16.516z"/><path d="m164.504 281.204h77.084v14.356h-77.084z"/><path d="m245.463 281.204h16.516v14.356h-16.516z"/><path d="m265.844 281.204h12.318v14.356h-12.318z"/><path d="m281.996 288.834h12.318v6.696h-12.318z"/><path d="m298.116 289.263h12.318v6.296h-12.318z"/><path d="m298.116 281.138h12.318v6.296h-12.318z"/><path d="m314.269 288.834h12.314v6.696h-12.314z"/><path d="m318.104 261.143v-16.189h-3.842v-12.308h12.311v28.497z"/></g><g fill="#d9d8d7"><path d="m149.329 374.213c-12.199 0-22.128-9.93-22.128-22.122v-48.405h3.059v48.405c0 10.517 8.555 19.07 19.07 19.07s19.066-8.555 19.066-19.07v-192.175c0-12.199 9.926-22.122 22.125-22.122s22.125 9.923 22.125 22.122v48.412h-3.055v-48.412c0-10.511-8.555-19.063-19.07-19.063-10.514 0-19.07 8.555-19.07 19.063v192.175c0 12.192-9.923 22.122-22.122 22.122z"/><path d="m127.201 150.994h3.059v57.327h-3.059z"/><path d="m128.73 152.523c-4.06 0-7.363-3.303-7.363-7.363 0-4.063 3.307-7.366 7.363-7.366 4.063 0 7.366 3.303 7.366 7.366 0 4.06-3.303 7.363-7.366 7.363zm0-11.67c-2.375 0-4.311 1.929-4.311 4.311 0 2.375 1.936 4.311 4.311 4.311 2.378 0 4.311-1.936 4.311-4.311-.004-2.382-1.936-4.311-4.311-4.311z"/></g></svg>