<svg enable-background="new 0 0 512 512" viewBox="0 0 512 512" xmlns="http://www.w3.org/2000/svg"><circle cx="256" cy="256" fill="#21d8de" r="256"/><path d="m161.858 161.858h188.284v188.284h-188.284z" fill="#fff"/><g fill="#f15424"><path d="m246.949 185.476h18.085v139.594h-18.085z"/><path d="m188.746 185.476h134.53v6.511h-134.53z"/><path d="m193.794 210.792v-28.926l5.067 10.121z"/><path d="m318.206 210.792v-28.926l-5.067 10.121z"/><path d="m188.746 181.876h5.057v28.93h-5.057z"/><path d="m283.846 325.077h-18.805v-5.064z"/><path d="m228.147 325.077h18.812v-5.064z"/><path d="m228.154 325.07h55.696v5.064h-55.696z"/><path d="m318.2 181.876h5.057v28.93h-5.057z"/></g><g fill="#242d3c"><path d="m381.367 381.374h-12.017v-3.792h8.225v-8.225h3.792z"/><path d="m348.741 381.374h-20.609v-3.792h20.609zm-41.217 0h-20.609v-3.792h20.609zm-41.221 0h-20.609v-3.792h20.609zm-41.218 0h-20.609v-3.792h20.609zm-41.221 0h-20.609v-3.792h20.609z"/><path d="m142.65 381.374h-12.017v-12.017h3.792v8.225h8.225z"/><path d="m134.425 348.748h-3.792v-20.609h3.792zm0-41.218h-3.792v-20.612h3.792zm0-41.221h-3.792v-20.612h3.792zm0-41.217h-3.792v-20.612h3.792zm0-41.221h-3.792v-20.612h3.792z"/><path d="m134.425 142.65h-3.792v-12.017h12.017v3.792h-8.225z"/><path d="m348.745 134.425h-20.609v-3.792h20.609zm-41.218 0h-20.609v-3.792h20.609zm-41.221 0h-20.609v-3.792h20.609zm-41.218 0h-20.608v-3.792h20.609v3.792zm-41.221 0h-20.609v-3.792h20.609z"/><path d="m381.367 142.65h-3.792v-8.225h-8.225v-3.792h12.017z"/><path d="m381.367 348.748h-3.792v-20.612h3.792zm0-41.218h-3.792v-20.612h3.792zm0-41.221h-3.792v-20.612h3.792zm0-41.221h-3.792v-20.608h3.792zm0-41.221h-3.792v-20.609h3.792z"/><path d="m115.613 141.702v-26.089h26.082z"/><path d="m396.387 141.702-26.085-26.082h26.085z"/><path d="m141.695 396.387h-26.082v-26.082z"/><path d="m396.387 396.387h-26.085l26.085-26.082z"/></g></svg>