<svg enable-background="new 0 0 512 512" viewBox="0 0 512 512" xmlns="http://www.w3.org/2000/svg"><circle cx="256" cy="256" fill="#ff6d3b" r="256"/><path d="m149.012 158.826v181.876h238.625c14.868 0 26.915-12.05 26.915-26.918v-154.955h-265.54z" fill="#fff"/><g fill="#d9d8d7"><path d="m300.891 221.812h2.831v12.321h-2.831z"/><path d="m319.29 251.21h17.005v2.831h-17.005z"/><path d="m351.86 271.096h2.837v12.321h-2.837z"/><path d="m300.891 271.096h2.831v12.321h-2.831z"/><path d="m232.415 221.812h2.834v12.321h-2.834z"/><path d="m198.953 197.173h2.831v12.321h-2.831z"/><path d="m232.415 258.775h2.834v12.321h-2.834z"/></g><path d="m200.341 288.173h16.49v2.831h-16.49z" fill="#cccbca"/><path d="m183.362 209.491h169.918v12.321h-169.918z" fill="#16c6cc"/><path d="m323.551 214.237h25.478v2.831h-25.478z" fill="#fff"/><path d="m285.333 209.491h33.97v12.321h-33.97z" fill="#242d3c"/><path d="m289.561 214.237h25.471v2.831h-25.471z" fill="#fff"/><path d="m255.571 214.237h25.468v2.831h-25.468z" fill="#fff"/><path d="m221.58 214.237h25.478v2.831h-25.478z" fill="#fff"/><path d="m187.62 214.237h25.478v2.831h-25.478z" fill="#fff"/><path d="m285.333 234.143h33.97v36.96h-33.97z" fill="#16c6cc"/><path d="m216.857 234.143h33.967v24.639h-33.967z" fill="#ff6d3b"/><path d="m166.383 283.417h33.967v12.318h-33.967z" fill="#ff6d3b"/><path d="m336.301 283.417h33.967v24.642h-33.967z" fill="#ff6d3b"/><path d="m336.301 234.143h33.967v36.96h-33.967z" fill="#242d3c"/><path d="m285.333 283.417h33.97v12.318h-33.97z" fill="#16c6cc"/><path d="m183.362 184.852h33.967v12.321h-33.967z" fill="#242d3c"/><path d="m216.857 271.096h33.967v36.963h-33.967z" fill="#242d3c"/><path d="m187.62 189.605h25.478v2.831h-25.478z" fill="#3e4959"/><path d="m170.631 288.173h25.481v2.831h-25.481z" fill="#e64717"/><path d="m221.092 238.889h25.478v2.828h-25.478z" fill="#e64717"/><path d="m227.668 251.21h12.318v2.831h-12.318z" fill="#e64717"/><path d="m340.53 288.173h25.471v2.831h-25.471z" fill="#e64717"/><path d="m340.53 300.494h15.073v2.831h-15.073z" fill="#e64717"/><g fill="#3e4959"><path d="m221.092 275.852h25.478v2.831h-25.478z"/><path d="m232.415 288.173h14.158v2.831h-14.158z"/><path d="m221.092 288.173h7.082v2.831h-7.082z"/><path d="m232.977 300.494h6.504v2.831h-6.504z"/><path d="m221.092 300.494h10.045v2.831h-10.045z"/></g><g fill="#fff"><path d="m289.561 288.173h25.478v2.831h-25.478z"/><path d="m302.311 238.889h12.741v2.828h-12.741z"/><path d="m289.561 238.889h8.889v2.828h-8.889z"/><path d="m289.561 251.21h25.478v2.831h-25.478z"/><path d="m289.561 263.531h18.006v2.828h-18.006z"/></g><path d="m340.53 238.889h25.471v2.828h-25.471z" fill="#3e4959"/><path d="m340.53 251.21h15.532v2.831h-15.532z" fill="#3e4959"/><path d="m359.358 251.21h6.639v2.831h-6.639z" fill="#3e4959"/><path d="m340.53 263.531h11.323v2.828h-11.323z" fill="#3e4959"/><path d="m387.64 131.908v154.951c14.865 0 26.915 12.057 26.915 26.921v-154.954c0-14.865-12.05-26.918-26.915-26.918z" fill="#242d3c"/><path d="m164.93 380.092-15.918-7.954 15.918-7.957z" fill="#fff"/><path d="m164.93 364.181h249.625v15.912h-249.625z" fill="#ffb733"/><path d="m164.93 364.181h249.625v7.957h-249.625z" fill="#ffd55c"/><path d="m155.245 375.256-6.233-3.118 6.233-3.125z" fill="#242d3c"/><path d="m395.594 364.181h5.619v15.912h-5.619z" fill="#fff"/><path d="m401.21 364.181h13.345v15.912h-13.345z" fill="#242d3c"/><path d="m97.445 158.819h29.504v221.267h-29.504z" fill="#242d3c"/><g fill="#fff"><path d="m97.445 371.613h8.185v2.223h-8.185z"/><path d="m97.445 356.847h8.185v2.223h-8.185z"/><path d="m97.448 342.115h8.182v2.216h-8.182z"/><path d="m97.445 327.35h8.185v2.216h-8.185z"/><path d="m97.448 312.617h8.185v2.223h-8.185z"/><path d="m97.445 297.852h8.182v2.216h-8.182z"/><path d="m97.445 283.086h8.189v2.22h-8.189z"/><path d="m97.445 268.354h8.185v2.223h-8.185z"/><path d="m97.445 253.589h8.182v2.22h-8.182z"/><path d="m97.445 238.856h8.185v2.223h-8.185z"/><path d="m97.448 224.097h8.185v2.22h-8.185z"/><path d="m97.445 201.959h4.314v2.22h-4.314z"/><path d="m97.445 187.217h4.314v2.223h-4.314z"/><path d="m97.445 172.461h4.317v2.223h-4.317z"/><path d="m97.448 364.247h4.314v2.216h-4.314z"/><path d="m97.445 349.481h4.314v2.223h-4.314z"/><path d="m97.448 334.716h4.314v2.22h-4.314z"/><path d="m97.448 319.983h4.311v2.22h-4.311z"/><path d="m97.445 305.218h4.311v2.22h-4.311z"/><path d="m97.445 290.486h4.317v2.22h-4.317z"/><path d="m97.448 275.72h4.307v2.22h-4.307z"/><path d="m97.448 260.988h4.307v2.22h-4.307z"/><path d="m97.448 246.222h4.311v2.22h-4.311z"/><path d="m97.445 231.49h4.311v2.216h-4.311z"/><path d="m97.445 216.725h4.311v2.22h-4.311z"/><path d="m97.448 209.358h8.189v2.216h-8.189z"/><path d="m97.445 194.593h8.189v2.22h-8.189z"/><path d="m97.448 179.861h8.182v2.216h-8.182z"/><path d="m97.448 165.092h8.182v2.22h-8.182z"/></g></svg>