<svg enable-background="new 0 0 512 512" viewBox="0 0 512 512" xmlns="http://www.w3.org/2000/svg"><circle cx="256" cy="256" fill="#21d8de" r="256"/><path d="m146.548 293.379-22.637 11.304 22.637 11.317z" fill="#fff"/><path d="m146.564 293.359h214.558v22.62h-214.558z" fill="#ff6d3b"/><path d="m146.564 304.69h214.558v11.31h-214.558z" fill="#f15424"/><path d="m132.763 300.263-8.852 4.42 8.865 4.446z" fill="#242d3c"/><path d="m361.109 293.359h8v22.634h-8z" fill="#fff"/><path d="m369.102 293.359h18.977v22.627h-18.977z" fill="#242d3c"/><g fill="#3e4959"><path d="m262.359 99.097h-12.711l-3.706 18.491h20.123z"/><path d="m219.622 107.143-11.01 6.353 6.032 17.873 17.434-10.065z"/><path d="m186.632 135.479-6.352 11.006 14.161 12.456 10.058-17.424z"/><path d="m172.23 176.511.007 12.714 18.491 3.703v-20.123z"/><path d="m180.28 219.252 6.359 11.006 17.86-6.038-10.058-17.425z"/><path d="m208.612 252.238 11.01 6.355 12.456-14.161-17.428-10.065z"/><path d="m249.655 266.64h12.704l3.706-18.492h-20.117z"/><path d="m292.392 258.593 11.003-6.355-6.039-17.871-17.427 10.065z"/><path d="m325.374 230.258 6.352-11.006-14.16-12.457-10.059 17.425z"/><path d="m339.773 189.225-.003-12.714-18.485-3.706v20.123z"/><path d="m331.726 146.485-6.352-11.006-17.867 6.038 10.059 17.424z"/><path d="m303.395 113.496-11.01-6.353-12.456 14.161 17.427 10.065z"/></g><path d="m256 116.825c-36.478 0-66.045 29.561-66.045 66.045s29.567 66.045 66.045 66.045c36.484 0 66.045-29.561 66.045-66.045s-29.561-66.045-66.045-66.045zm0 84.335c-10.085 0-18.287-8.199-18.287-18.29s8.202-18.29 18.287-18.29c10.088 0 18.293 8.199 18.293 18.29s-8.205 18.29-18.293 18.29z" fill="#242d3c"/><path d="m256 151.169c-17.514 0-31.698 14.187-31.698 31.704s14.184 31.698 31.698 31.698 31.704-14.181 31.704-31.698-14.19-31.704-31.704-31.704zm0 47.553c-8.74 0-15.849-7.109-15.849-15.852 0-8.744 7.105-15.852 15.849-15.852s15.849 7.109 15.849 15.852c0 8.744-7.109 15.852-15.849 15.852z" fill="#fff"/><path d="m186.996 363.784h159.116v28.064h-159.116z" fill="#fff"/><path d="m322.55 385.219c4.073 0 7.402-3.33 7.396-7.406 0-4.07-3.333-7.399-7.409-7.399l-115.253.007c-4.07 0-7.399 3.336-7.396 7.399 0 4.07 3.333 7.399 7.406 7.399z" fill="#d9d8d7"/><g fill="#fff"><path d="m123.911 361.65 34.717-.007 9.338 16.179-9.332 16.173-34.724.007c5.85 11.218 17.593 18.904 31.123 18.898 19.377 0 35.087-15.704 35.087-35.09-.007-19.36-15.717-35.064-35.074-35.077-13.549.016-25.282 7.673-31.135 18.917z"/><path d="m339.75 377.826c-.01 13.56 10.815 24.55 24.173 24.55 13.338.007 24.163-10.987 24.163-24.563-.01-13.56-10.828-24.543-24.18-24.536-13.335-.007-24.149 10.98-24.156 24.549zm31.093-16.724 3.052 6.742 6.745 3.052-2.603 6.917 2.596 6.937-6.735 3.046-3.056 6.729-6.927-2.586-6.92 2.6-3.059-6.742-6.739-3.052 2.606-6.917-2.593-6.93 6.732-3.059 3.052-6.729 6.927 2.6z"/></g></svg>