<svg enable-background="new 0 0 512 512" viewBox="0 0 512 512" xmlns="http://www.w3.org/2000/svg"><circle cx="256" cy="256" fill="#f2f2f2" r="256"/><path d="m135.363 376.878 1.262 44.283 34.69-27.535z" fill="#cccbca"/><path d="m171.315 393.626-35.952-16.748 133.017-285.187 35.923 16.751z" fill="#ff6d3b"/><path d="m171.315 393.626-17.992-8.371 133.007-285.194 17.973 8.381z" fill="#f15424"/><g fill="#242d3c"><path d="m136.109 403.816.516 17.345 13.563-10.768z"/><path d="m367.666 361.145-35.887 16.757-111.56-239.16 35.91-16.757z"/><path d="m250.563 110.04-35.913 16.761-8.985-19.205 35.992-16.757z"/></g><path d="m373.582 408.444-9.362 4.396-32.441-34.938 35.887-16.757z" fill="#131a26"/><path d="m375.227 419.496-3.614 1.665-4.522-9.698 3.613-1.655z" fill="#cccbca"/><path d="m223.625 137.107 29.118-13.57-5.569-11.911-29.092 13.556z" fill="#cccbca"/><path d="m317.387 233.799-44.802-96.005c-.36-.803-1.07-1.453-1.903-1.754-.819-.32-1.747-.268-2.593.076l-4.387 2.071-2.857-6.161 4.38-2.068c2.418-1.15 5.259-1.268 7.845-.327 2.458.928 4.568 2.798 5.705 5.265l44.795 96.018z" fill="#131a26"/><path d="m135.697 299.246h240.941v-39.665h-240.941zm19.736-19.826c0 2.765-2.233 5.021-5.021 5.021-2.742 0-5.014-2.256-5.014-5.021 0-2.768 2.273-5.011 5.014-5.011 2.788 0 5.021 2.243 5.021 5.011z" fill="#16c6cc"/><g fill="#242d3c"><path d="m164.342 259.567h1.186v10.085h-1.186z"/><path d="m184.419 259.567h1.212v10.085h-1.212z"/><path d="m204.523 259.567h1.143v10.085h-1.143z"/><path d="m224.573 259.567h1.206v10.085h-1.206z"/><path d="m244.637 259.567h1.252v10.085h-1.252z"/><path d="m264.721 259.567h1.232v10.085h-1.232z"/><path d="m284.804 259.567h1.199v10.085h-1.199z"/><path d="m304.888 259.567h1.199v10.085h-1.199z"/><path d="m324.938 259.567h1.226v10.085h-1.226z"/><path d="m345.055 259.567h1.186v10.085h-1.186z"/><path d="m365.106 259.567h1.206v10.085h-1.206z"/><path d="m355.163 259.567h.994v5.057h-.994z"/><path d="m335.145 259.567h.948v5.057h-.948z"/><path d="m315.062 259.567h.988v5.057h-.988z"/><path d="m295.011 259.567h.961v5.057h-.961z"/><path d="m274.861 259.567h1.014v5.057h-1.014z"/><path d="m254.778 259.567h1.014v5.057h-1.014z"/><path d="m234.694 259.567h1.014v5.057h-1.014z"/><path d="m214.644 259.567h1.021v5.057h-1.021z"/><path d="m194.56 259.567h1.007v5.057h-1.007z"/><path d="m174.483 259.567h.988v5.057h-.988z"/></g></svg>