<svg enable-background="new 0 0 512 512" viewBox="0 0 512 512" xmlns="http://www.w3.org/2000/svg"><circle cx="256" cy="256" fill="#3e4959" r="256"/><path d="m137.441 102.4h191.534v270.898h-191.534z" fill="#fff"/><path d="m171.011 185.212h124.399v8.033h-124.399z" fill="#21d8de"/><g fill="#242d3c"><path d="m171.011 222.34h124.399v3.006h-124.399z"/><path d="m171.011 230.879h124.399v3.006h-124.399z"/><path d="m171.011 239.385h124.399v3.006h-124.399z"/><path d="m171.011 247.94h124.399v3.013h-124.399z"/><path d="m209.028 256.462h48.386v3.006h-48.386z"/><path d="m171.011 213.818h124.399v3.006h-124.399z"/><path d="m171.011 205.295h124.399v3.006h-124.399z"/></g><path d="m137.441 102.4h191.534v60.195h-191.534z" fill="#21d8de"/><path d="m209.292 112.442h97.974v8.027h-97.974z" fill="#fff"/><g fill="#242d3c"><path d="m209.292 149.537h17.335v3.013h-17.335z"/><path d="m209.292 141.025h34.674v3.006h-34.674z"/><path d="m209.292 132.492h34.674v3.013h-34.674z"/></g><circle cx="167.536" cy="132.492" fill="#fff" r="20.067"/><path d="m156.391 132.496 11.152 11.148v-22.29z" fill="#21d8de"/><path d="m178.685 132.496-11.142 11.148v-22.29z" fill="#242d3c"/><path d="m250.054 314.897h157.858v94.71h-157.858z" fill="#21d8de"/><path d="m249.991 409.6 78.987-58.401 78.987 58.401z" fill="#16c6cc"/><path d="m407.915 314.897v.033l-58.995 51.034-19.952-14.765-19.951 14.765-58.963-51.001v-.066z" fill="#1bb6ba"/><path d="m348.92 365.964-19.952 17.243-19.951-17.243 19.951-14.765z" fill="#13a8ad"/><path d="m249.991 314.89 78.987 58.401 78.987-58.401z" fill="#16c6cc"/><path d="m121.641 217.676-5.364-10.722h-6.897l-5.345 10.722z" fill="#fff"/><path d="m104.035 217.676h17.606v191.917h-17.606z" fill="#06b2b8"/><path d="m104.035 217.676h8.8v191.917h-8.8z" fill="#21d8de"/><path d="m116.277 206.954-3.436-6.884-3.461 6.884z" fill="#242d3c"/><path d="m104.035 388.591h17.606v6.227h-17.606z" fill="#fff"/><path d="m314.104 228.187h93.868v62.573h-93.868z" fill="#06b2b8"/><circle cx="361.043" cy="258.048" fill="#fff" r="20.067"/><path d="m349.884 258.038 11.145 11.142v-22.284z" fill="#21d8de"/><path d="m372.178 258.038-11.149 11.142v-22.284z" fill="#242d3c"/><g fill="#fff"><path d="m384.297 285.663h9.563v1.549h-9.563z"/><path d="m384.297 281.27h19.119v1.549h-19.119z"/><path d="m384.297 276.876h19.119v1.549h-19.119z"/></g></svg>