<svg enable-background="new 0 0 512 512" viewBox="0 0 512 512" xmlns="http://www.w3.org/2000/svg"><circle cx="256" cy="256" fill="#21d8de" r="256"/><path d="m394.154 201.929c-1.82-1.807-4.205-2.722-6.606-2.722h-263.089c-2.382 0-4.773.915-6.606 2.722-1.807 1.823-2.722 4.205-2.722 6.597v162.591h281.749v-162.591c-.004-2.392-.906-4.773-2.726-6.597z" fill="#242d3c"/><circle cx="256" cy="206.386" fill="#3e4959" r="3.947"/><g fill="#fff"><circle cx="256" cy="206.386" r="1.698"/><path d="m129.784 213.554h252.433v157.554h-252.433z"/><path d="m85.253 371.117h341.487v4.231h-341.487z"/></g><path d="m85.253 375.349c12.328 5.447 25.967 8.469 40.309 8.469h260.885c14.343 0 27.968-3.022 40.303-8.469z" fill="#cccbca"/><path d="m226.37 371.117h59.263v2.117h-59.263z" fill="#242d3c"/><path d="m94.479 299.011-20.156-8.443 20.156-8.449z" fill="#fff"/><path d="m94.479 282.129h323.055v16.893h-323.055z" fill="#ffb733"/><path d="m94.479 282.129h323.055v8.45h-323.055z" fill="#ffd55c"/><path d="m84.401 294.793-10.078-4.225 10.078-4.225z" fill="#242d3c"/><path d="m417.528 282.129h5.969v16.893h-5.969z" fill="#fff"/><path d="m423.507 282.129h14.181v16.893h-14.181z" fill="#f15424"/><path d="m366.361 199.218-1.784 14.336h-217.154l-1.784-14.336z" fill="#1f2633"/><path d="m364.577 213.554-8.588 68.575h-199.978l-8.588-68.575z" fill="#d9d8d7"/><path d="m355.989 282.129-1.024 8.423h-197.93l-1.024-8.423z" fill="#d9b44e"/><path d="m354.965 290.552-1.057 8.456h-195.816l-1.057-8.456z" fill="#d99b2b"/><path d="m353.908 299.008-9.018 72.109h-177.78l-9.018-72.109z" fill="#d9d8d7"/><path d="m167.117 95.153h177.766v275.951h-177.766z" fill="#fff"/><path d="m167.117 95.153h177.766v16.486h-177.766z" fill="#f15424"/><path d="m167.117 282.129h177.766v88.996h-177.766z" fill="#3e4959"/><path d="m180.786 295.804h41.033v32.798h-41.033z" fill="#fff"/><path d="m235.487 295.804h41.019v32.798h-41.019z" fill="#fff"/><path d="m290.188 295.804h41.026v32.798h-41.026z" fill="#fff"/><path d="m180.786 206.782h41.033v32.794h-41.033z" fill="#f15424"/><path d="m235.487 206.782h41.019v32.794h-41.019z" fill="#f15424"/><path d="m290.188 206.782h41.026v32.794h-41.026z" fill="#f15424"/><path d="m180.799 125.318h150.406v19.677h-150.406z" fill="#3e4959"/><path d="m180.786 158.654h150.419v6.564h-150.419z" fill="#f15424"/><g fill="#fff"><path d="m180.786 334.551h41.033v3.164h-41.033z"/><path d="m180.786 341.653h41.033v3.161h-41.033z"/><path d="m180.786 348.755h41.033v3.161h-41.033z"/><path d="m180.786 355.857h20.51v3.161h-20.51z"/><path d="m235.487 334.551h41.019v3.164h-41.019z"/><path d="m235.487 341.653h41.019v3.161h-41.019z"/><path d="m235.487 348.755h41.019v3.161h-41.019z"/><path d="m235.487 355.857h20.51v3.161h-20.51z"/><path d="m290.188 334.551h41.026v3.164h-41.026z"/><path d="m290.188 341.653h41.026v3.161h-41.026z"/><path d="m290.188 348.755h41.026v3.161h-41.026z"/><path d="m290.188 355.857h20.516v3.161h-20.516z"/></g><g fill="#242d3c"><path d="m180.799 245.562h150.426v3.161h-150.426z"/><path d="m180.786 252.664h150.439v3.161h-150.439z"/><path d="m180.799 259.766h150.426v3.161h-150.426z"/><path d="m180.799 266.868h75.208v3.161h-75.208z"/><path d="m180.799 177.33h150.426v3.161h-150.426z"/><path d="m180.786 184.432h150.439v3.161h-150.439z"/><path d="m201.295 191.541h109.403v3.161h-109.403z"/></g><g fill="#fff"><path d="m197.503 133.582h16.711v3.161h-16.711z"/><path d="m230.929 133.582h16.711v3.161h-16.711z"/><path d="m264.357 133.582h16.711v3.161h-16.711z"/><path d="m297.786 133.582h16.724v3.161h-16.724z"/></g></svg>