<svg enable-background="new 0 0 512 512" viewBox="0 0 512 512" xmlns="http://www.w3.org/2000/svg"><circle cx="256" cy="256" fill="#ffd55c" r="256"/><path d="m198.458 181.942h19.017v10.574h-19.017z" fill="#cccbca"/><path d="m217.481 233.73v161.425c0 5.246-4.264 9.49-9.51 9.49s-9.507-4.245-9.507-9.49v-161.425z" fill="#ff6d3b"/><path d="m217.481 395.155v-161.425h-9.51v170.915c5.246 0 9.51-4.244 9.51-9.49z" fill="#f15424"/><path d="m234.579 164.864-26.607-57.456-26.601 57.456h-.007.02c9.418.007 17.051 7.627 17.081 17.045v.046h19.017v-.046c.026-9.421 7.657-17.038 17.071-17.045z" fill="#fff"/><path d="m206.914 107.411h2.134v35.956h-2.134z" fill="#131a26"/><path d="m219.423 192.529c.225 0 .453.083.621.258.168.168.254.393.254.621v39.444c0 .218-.086.453-.254.624-.172.162-.396.251-.621.251h-22.911c-.218 0-.453-.089-.621-.251-.168-.175-.251-.406-.251-.624v-39.444c0-.225.083-.453.251-.621.168-.175.4-.258.621-.258z" fill="#3e4959"/><path d="m195.65 193.404h24.659v39.444h-24.659z" fill="#131a26"/><g fill="#3e4959"><path d="m218.839 193.404h.727v39.444h-.727z"/><path d="m217.108 193.404h.73v39.444h-.73z"/><path d="m215.37 193.404h.723v39.444h-.723z"/><path d="m213.653 193.404h.727v39.444h-.727z"/><path d="m211.935 193.404h.723v39.444h-.723z"/><path d="m210.184 193.404h.727v39.444h-.727z"/><path d="m208.467 193.404h.73v39.444h-.73z"/><path d="m206.749 193.404h.723v39.444h-.723z"/><path d="m204.998 193.404h.723v39.444h-.723z"/><path d="m203.281 193.404h.73v39.444h-.73z"/><path d="m201.563 193.404h.73v39.444h-.73z"/><path d="m199.812 193.404h.73v39.444h-.73z"/><path d="m198.108 193.404h.723v39.444h-.723z"/><path d="m196.377 193.404h.723v39.444h-.723z"/></g><path d="m306.876 288.289 37.271-64.548 37.263 64.548z" fill="#fff"/><path d="m381.77 115.884c-12.678-16.463-37.627-6.748-37.627 9.963 0-16.711-24.949-26.426-37.627-9.963-13.101 17.012-.188 46.82 37.627 63.941 37.816-17.121 50.725-46.93 37.627-63.941z" fill="#ff6d3b"/><path d="m306.87 330.124h74.531v74.534h-74.531z" fill="#242d3c"/><path d="m273.312 129.685-11.132-22.277-11.135 22.277z" fill="#fff"/><path d="m251.045 129.685h22.267v248.403h-22.267z" fill="#242d3c"/><path d="m251.045 129.685h11.132v248.403h-11.132z" fill="#3e4959"/><path d="m266.531 116.122-4.351-8.714-4.376 8.714z" fill="#131a26"/><path d="m251.045 378.087h22.267v7.865h-22.267z" fill="#fff"/><path d="m251.045 385.949h22.267v18.683h-22.267z" fill="#ff6d3b"/><path d="m125.265 107.355h39.629v297.29h-39.629z" fill="#fff"/><g fill="#242d3c"><path d="m125.265 120.845h7.36v2.768h-7.36z"/><path d="m125.265 135.697h7.36v2.768h-7.36z"/><path d="m125.265 150.574h7.36v2.768h-7.36z"/><path d="m125.268 165.426h7.356v2.768h-7.356z"/><path d="m125.265 180.29h7.36v2.768h-7.36z"/><path d="m125.265 195.155h7.36v2.768h-7.36z"/><path d="m125.265 210.019h7.36v2.768h-7.36z"/><path d="m125.265 224.884h7.36v2.768h-7.36z"/><path d="m125.265 239.748h7.36v2.768h-7.36z"/><path d="m125.265 254.613h7.36v2.768h-7.36z"/><path d="m125.265 269.477h7.36v2.768h-7.36z"/><path d="m125.265 284.342h7.36v2.768h-7.36z"/><path d="m125.265 299.206h7.36v2.768h-7.36z"/><path d="m125.265 314.071h7.36v2.768h-7.36z"/><path d="m125.265 328.935h7.36v2.768h-7.36z"/><path d="m125.265 343.8h7.36v2.768h-7.36z"/><path d="m125.265 358.664h7.36v2.768h-7.36z"/><path d="m125.265 373.529h7.36v2.768h-7.36z"/><path d="m125.265 388.393h7.36v2.768h-7.36z"/></g></svg>