<svg enable-background="new 0 0 512 512" viewBox="0 0 512 512" xmlns="http://www.w3.org/2000/svg"><circle cx="256" cy="256" fill="#ffd55c" r="256"/><path d="m232.01 308.19h47.976v23.463h-47.976z" fill="#e6e5e5"/><path d="m256 512h.003v-124.419h-23.988v123.292c7.898.734 15.895 1.127 23.985 1.127z" fill="#ff6d3b"/><path d="m256.003 387.581v124.419c8.092 0 16.091-.394 23.991-1.128v-123.291h-.003z" fill="#f15424"/><path d="m258.689 211.521c3.993 1.164 6.914 4.845 6.914 9.214 0 5.303-4.299 9.602-9.602 9.602s-9.602-4.299-9.602-9.602c0-4.367 2.917-8.046 6.907-9.212v-85.62l-64.413 139.155h.026c23.767.013 43.031 19.258 43.1 43.015v.119h47.976v-.119c.069-23.757 19.33-43.005 43.087-43.015h.046l-64.439-139.185z" fill="#fff"/><path d="m256.003 120.072-.003.007h.006z" fill="#fff"/><path d="m246.398 220.735c0 5.303 4.299 9.602 9.602 9.602s9.602-4.299 9.602-9.602c0-4.369-2.92-8.05-6.914-9.214v-85.648-5.794h-2.682-.006-2.696v5.824 85.62c-3.989 1.166-6.906 4.845-6.906 9.212z" fill="#242d3c"/><path d="m279.991 387.581h.003 4.909c.562 0 1.136-.211 1.562-.631.423-.453.644-1.017.644-1.582h-1.85v-51.491h1.85c0-.565-.221-1.136-.644-1.569-.426-.433-1.001-.651-1.562-.651h-4.912-47.976-4.922c-.558 0-1.133.218-1.559.651-.436.433-.644 1.004-.644 1.569h1.86v51.491h-1.86c0 .565.205 1.13.644 1.582.426.419 1.001.631 1.559.631h4.922 23.988zm-20.893-2.214v-51.491h2.52v51.491zm4.357 0v-51.491h2.53v51.491zm4.351 0v-51.491h2.53v51.491zm4.36 0v-51.491h2.534v51.491zm4.37 0v-51.491h2.517v51.491zm6.891-51.49v51.491h-2.53v-51.491zm-54.844 51.49v-51.491h2.524v51.491zm4.347 0v-51.491h2.534v51.491zm4.367 0v-51.491h2.53v51.491zm4.364 0v-51.491h2.52v51.491zm4.363 0v-51.491h2.52v51.491zm4.351 0v-51.491h2.534v51.491zm4.36-51.49h2.53v51.491h-2.53z" fill="#3e4959"/><g fill="#242d3c"><path d="m250.37 333.88h2.534v51.49h-2.534z"/><path d="m276.54 333.88h2.517v51.49h-2.517z"/><path d="m267.81 333.88h2.53v51.49h-2.53z"/><path d="m272.17 333.88h2.534v51.49h-2.534z"/><path d="m263.45 333.88h2.53v51.49h-2.53z"/><path d="m224.89 333.88h1.86v51.49h-1.86z"/><path d="m259.1 333.88h2.52v51.49h-2.52z"/><path d="m228.58 333.88h2.524v51.49h-2.524z"/><path d="m246.02 333.88h2.52v51.49h-2.52z"/><path d="m241.66 333.88h2.52v51.49h-2.52z"/><path d="m254.74 333.88h2.53v51.49h-2.53z"/><path d="m285.26 333.88h1.85v51.49h-1.85z"/><path d="m237.3 333.88h2.53v51.49h-2.53z"/><path d="m280.9 333.88h2.53v51.49h-2.53z"/><path d="m232.93 333.88h2.534v51.49h-2.534z"/><path d="m106.711 232.141-4.895-.773c.852-5.361 1.995-10.729 3.399-15.961l4.783 1.285c-1.358 5.063-2.468 10.263-3.287 15.449zm298.542-.241c-.836-5.196-1.952-10.395-3.316-15.449l4.78-1.295c1.414 5.219 2.563 10.587 3.425 15.955zm-290.36-30.235-4.621-1.78c1.952-5.061 4.195-10.075 6.666-14.904l4.407 2.259c-2.389 4.674-4.563 9.527-6.452 14.425zm282.118-.228c-1.893-4.889-4.07-9.738-6.464-14.405l4.406-2.266c2.474 4.823 4.724 9.83 6.676 14.881zm-267.739-27.869-4.149-2.709c2.956-4.535 6.19-8.972 9.612-13.186l3.845 3.122c-3.313 4.079-6.444 8.376-9.308 12.773zm253.334-.188c-2.871-4.387-6.005-8.681-9.322-12.754l3.838-3.128c3.425 4.208 6.669 8.638 9.632 13.173zm-233.439-24.322-3.505-3.508c3.842-3.838 7.921-7.508 12.129-10.917l3.115 3.852c-4.069 3.299-8.023 6.857-11.739 10.573zm213.517-.149c-3.729-3.713-7.69-7.264-11.763-10.557l3.108-3.855c4.208 3.399 8.298 7.069 12.149 10.904zm-188.997-19.717-2.702-4.155c4.552-2.96 9.302-5.708 14.121-8.169l2.253 4.413c-4.664 2.385-9.266 5.044-13.672 7.911zm164.441-.118c-4.413-2.857-9.018-5.516-13.695-7.895l2.246-4.416c4.829 2.454 9.586 5.199 14.144 8.152zm-136.347-14.221-1.777-4.625c5.061-1.946 10.283-3.643 15.519-5.041l1.285 4.786c-5.071 1.352-10.128 2.994-15.027 4.88zm108.214-.086c-4.905-1.876-9.969-3.511-15.04-4.862l1.272-4.786c5.246 1.394 10.471 3.082 15.535 5.021zm-77.735-8.073-.766-4.892c5.341-.842 10.802-1.414 16.225-1.698l.258 4.948c-5.256.275-10.544.826-15.717 1.642zm47.236-.039c-5.179-.806-10.471-1.351-15.72-1.619l.251-4.948c5.421.274 10.881.839 16.229 1.671z"/><path d="m91.252 267.112v-22.224h22.221v22.224zm4.954-4.955h12.311v-12.314h-12.311z"/><path d="m398.528 267.112v-22.224h22.221v22.224zm4.954-4.955h12.311v-12.314h-12.311z"/><path d="m244.48 90.84h23.05v23.05h-23.05z"/><path d="m102.36 100.71h307.28v3.303h-307.28z"/><circle cx="102.36" cy="102.36" r="9.599"/><circle cx="409.64" cy="102.36" r="9.606"/></g></svg>