<svg enable-background="new 0 0 512 512" viewBox="0 0 512 512" xmlns="http://www.w3.org/2000/svg"><circle cx="256" cy="256" fill="#21d8de" r="256"/><path d="m130.213 171.586h238.592v168.696h-238.592z" fill="#fff"/><path d="m274.961 280.312h41.221v29.894h-41.221z" fill="#ff6d3b"/><path d="m280.114 286.059h30.908v3.439h-30.908z" fill="#e64717"/><path d="m280.114 301.023h18.29v3.439h-18.29z" fill="#e64717"/><path d="m182.834 280.312h41.224v14.947h-41.224z" fill="#16c6cc"/><path d="m187.973 286.059h30.915v3.439h-30.915z" fill="#fff"/><path d="m182.834 208.268h41.224v44.851h-41.224z" fill="#16c6cc"/><g fill="#fff"><path d="m203.446 213.999h15.459v3.439h-15.459z"/><path d="m187.973 213.999h10.795v3.439h-10.795z"/><path d="m187.973 228.947h30.915v3.439h-30.915z"/><path d="m187.973 243.91h21.851v3.432h-21.851z"/></g><path d="m274.961 208.268h41.221v44.851h-41.221z" fill="#242d3c"/><g fill="#3e4959"><path d="m280.114 213.999h30.908v3.439h-30.908z"/><path d="m280.114 228.947h18.845v3.439h-18.845z"/><path d="m302.972 228.947h8.07v3.439h-8.07z"/><path d="m280.114 243.91h13.732v3.432h-13.732z"/></g><g fill="#d9d8d7"><path d="m224.045 228.947h41.01v3.439h-41.01z"/><path d="m293.855 253.093h3.439v17.296h-3.439z"/><path d="m201.728 263.003h3.429v17.296h-3.429z"/><path d="m197.711 263.013 5.721-9.91 5.725 9.91z"/><path d="m265.054 224.956 9.913 5.721-9.913 5.722z"/><path d="m301.304 270.399-5.725 9.909-5.721-9.909z"/></g><circle cx="130.213" cy="171.728" fill="#ffd55c" r="47.629"/><path d="m130.207 209.259c-10.567 0-20.715-4.529-27.836-12.414-.747-.832-.687-2.111.152-2.857.823-.743 2.101-.684 2.847.149 6.359 7.046 15.416 11.082 24.837 11.082 18.465 0 33.495-15.02 33.495-33.491 0-1.11.902-2.025 2.015-2.025 1.116 0 2.018.915 2.018 2.025-.001 20.692-16.837 37.531-37.528 37.531z" fill="#ffc640"/><path d="m94.7 173.75c-1.113 0-2.018-.902-2.018-2.018 0-20.691 16.83-37.528 37.521-37.528 1.117 0 2.022.902 2.022 2.018s-.905 2.025-2.022 2.025c-18.465 0-33.485 15.02-33.485 33.485 0 1.113-.905 2.018-2.018 2.018z" fill="#fff785"/><path d="m108.775 214.128h42.856v15.71h-42.856z" fill="#ffc640"/><path d="m106.397 229.838h47.609v29.716h-47.609z" fill="#3e4959"/><g fill="#242d3c"><path d="m103.936 233.142h52.535v3.297h-52.535z"/><path d="m103.936 239.748h52.535v3.303h-52.535z"/><path d="m103.936 246.355h52.535v3.303h-52.535z"/><path d="m103.936 252.961h52.535v3.303h-52.535z"/></g><path d="m116.802 259.567h26.816v11.878h-26.816z" fill="#cccbca"/><path d="m122.163 175.533h2.022v54.308h-2.022z" fill="#fff"/><path d="m136.225 175.533h2.018v54.308h-2.018z" fill="#fff"/><path d="m113.036 173.518h34.347v2.018h-34.347z" fill="#fff"/><path d="m429.419 340.272c0 1.853-.704 3.696-2.114 5.103-1.41 1.414-3.254 2.117-5.1 2.117h-18.769v-14.425h18.769c1.846 0 3.69.697 5.1 2.111 1.411 1.404 2.114 3.254 2.114 5.094z" fill="#e6e5e5"/><circle cx="368.805" cy="340.265" fill="#f2f2f2" r="47.633"/><path d="m404.886 340.272c0 19.935-16.159 36.091-36.091 36.091-19.928 0-36.084-16.156-36.084-36.091 0-19.922 16.156-36.084 36.084-36.084 19.935-.001 36.091 16.159 36.091 36.084z" fill="#ff6d3b"/><path d="m340.444 348.008c0-19.922 16.153-36.091 36.088-36.091 7.987 0 15.35 2.633 21.329 7.026-6.567-8.929-17.127-14.756-29.065-14.756-19.928 0-36.084 16.163-36.084 36.084 0 11.948 5.827 22.505 14.762 29.065-4.398-5.975-7.03-13.337-7.03-21.328z" fill="#e64717"/><path d="m120.052 387.911-9.81-4.918v-6.31l9.81-4.902z" fill="#fff"/><path d="m120.039 371.778h178.44v16.13h-178.44z" fill="#242d3c"/><path d="m120.039 371.778h178.44v8.063h-178.44z" fill="#3e4959"/><path d="m110.242 382.993-6.306-3.142 6.306-3.168z" fill="#242d3c"/><path d="m279.288 371.778h5.698v16.13h-5.698z" fill="#fff"/></svg>