<svg enable-background="new 0 0 512 512" viewBox="0 0 512 512" xmlns="http://www.w3.org/2000/svg"><circle cx="256" cy="256" fill="#f2f2f2" r="256"/><path d="m360.134 197.847c0 57.536-46.632 104.141-104.154 104.141-57.503 0-104.118-46.605-104.118-104.141 0-57.483 46.612-104.134 104.118-104.134 57.523-.004 104.154 46.648 104.154 104.134z" fill="#ffd55c"/><path d="m330.96 197.847c0 41.413-33.567 74.96-74.973 74.96-41.393 0-74.947-33.548-74.947-74.96 0-41.373 33.554-74.96 74.947-74.96 41.406-.004 74.973 33.584 74.973 74.96z" fill="#ffb733"/><path d="m219.004 295.242h73.963v16.173h-73.963z" fill="#ffd55c"/><path d="m310.156 203.845v-12.007h-9.497c-.509-3.898-1.529-7.614-2.96-11.122l8.192-4.737-5.999-10.418-8.212 4.757c-2.362-3.062-5.084-5.794-8.123-8.146l4.737-8.232-10.425-5.999-4.743 8.202c-3.511-1.437-7.237-2.448-11.122-2.963v-9.493h-12.001v9.493c-3.895.515-7.617 1.533-11.122 2.963l-4.747-8.202-10.418 5.999 4.753 8.232c-3.059 2.352-5.781 5.084-8.139 8.146l-8.222-4.757-6.002 10.418 8.195 4.737c-1.434 3.511-2.431 7.227-2.96 11.122h-9.493v12.007h9.493c.529 3.904 1.529 7.621 2.963 11.135l-8.199 4.727 6.002 10.428 8.222-4.76c2.365 3.059 5.094 5.787 8.139 8.149l-4.753 8.225 10.412 5.992 4.747-8.202c3.508 1.437 7.227 2.441 11.125 2.97v9.487h11.997v-9.484c3.885-.532 7.607-1.539 11.122-2.97l4.743 8.199 10.425-5.992-4.743-8.225c3.046-2.372 5.767-5.1 8.136-8.149l8.205 4.76 6.018-10.428-8.212-4.734c1.434-3.511 2.451-7.231 2.966-11.129zm-54.156 22.535c-15.77 0-28.54-12.764-28.54-28.53 0-15.773 12.767-28.55 28.54-28.55 15.766 0 28.533 12.774 28.533 28.55.004 15.766-12.767 28.53-28.533 28.53z" fill="#fff"/><path d="m211.255 311.428h89.418v37.178h-89.418z" fill="#3e4959"/><path d="m211.255 402.871 44.722 44.716 44.706-44.716z" fill="#cccbca"/><path d="m233.614 425.231 22.363 22.356 22.353-22.356z" fill="#242d3c"/><path d="m211.255 348.589h29.828v54.275h-29.828z" fill="#21d8de"/><path d="m241.066 348.589h29.828v54.275h-29.828z" fill="#16c6cc"/><path d="m270.865 348.589h29.795v54.275h-29.795z" fill="#06b2b8"/><g fill="#242d3c"><path d="m294.806 311.418h-3.676v-17.484l1.186-.446c39.464-15.003 65.975-53.433 65.975-95.645 0-56.406-45.898-102.304-102.307-102.304-56.393 0-102.274 45.898-102.274 102.304 0 42.215 26.505 80.652 65.965 95.645l1.179.449v17.481h-3.676v-14.944c-40.217-15.849-67.155-55.319-67.155-98.628 0-58.437 47.533-105.981 105.961-105.981 58.451 0 105.997 47.543 105.997 105.981 0 43.309-26.941 82.772-67.174 98.624z"/><path d="m203.479 309.578h105.019v3.68h-105.019z"/><path d="m203.479 321.965h105.019v3.68h-105.019z"/><path d="m203.479 334.353h105.019v3.686h-105.019z"/><path d="m203.479 346.74h105.019v3.683h-105.019z"/><path d="m151.866 91.889h208.268v3.676h-208.268z"/></g><g fill="#fff"><path d="m248.337 86.082h15.307v15.301h-15.307z"/><path d="m352.487 190.233h15.31v15.301h-15.31z"/><path d="m144.216 190.233h15.304v15.301h-15.304z"/></g><g fill="#242d3c"><path d="m265.49 103.226h-18.984v-18.994h18.984zm-15.3-3.683h11.624v-11.628h-11.624z"/><path d="m369.631 207.363h-18.994v-18.99h18.994zm-15.314-3.679h11.627v-11.631h-11.627z"/><path d="m161.356 207.363h-18.987v-18.99h18.987zm-15.304-3.679h11.627v-11.631h-11.627z"/><path d="m159.519 93.729c0 4.235-3.425 7.65-7.65 7.65s-7.65-3.416-7.65-7.65c0-4.225 3.425-7.647 7.65-7.647s7.65 3.422 7.65 7.647z"/><path d="m367.788 93.729c0 4.235-3.425 7.65-7.65 7.65-4.231 0-7.657-3.416-7.657-7.65 0-4.225 3.425-7.647 7.657-7.647 4.224 0 7.65 3.422 7.65 7.647z"/></g></svg>