<svg enable-background="new 0 0 512 512" viewBox="0 0 512 512" xmlns="http://www.w3.org/2000/svg"><circle cx="256" cy="256" fill="#ff6d3b" r="256"/><g fill="#242d3c"><path d="m336.681 421.67-59.834-142.812-16.51 7.115 56.261 135.697z"/><path d="m195.402 421.67 56.264-135.697-16.513-7.115-59.834 142.812z"/><path d="m213.157 360.316h85.659v10.937h-85.659z"/></g><path d="m97.445 311.362h317.11v15.31h-317.11z" fill="#3e4959"/><path d="m206.452 110.163h99.097v15.31h-99.097z" fill="#242d3c"/><path d="m118.916 125.463h274.168v185.873h-274.168z" fill="#fff"/><path d="m118.916 260.955h274.168v50.401h-274.168z" fill="#21d8de"/><path d="m235.352 237.006-23.952 23.949h47.903z" fill="#3e4959"/><path d="m344.087 224.071-36.887 36.884h73.778z" fill="#3e4959"/><path d="m184.33 203.974-56.981 56.981h113.962z" fill="#242d3c"/><circle cx="205.229" cy="165.954" fill="#ffd55c" r="17.616"/><g fill="#d9d8d7"><path d="m339.01 160.936c-.377 0-.75.033-1.107.109 0-.02 0-.04 0-.059 0-4.915-3.987-8.902-8.899-8.902-4.152 0-7.644 2.844-8.625 6.689-.456-.102-.925-.155-1.407-.155-3.587 0-6.501 2.91-6.501 6.504s2.913 6.497 6.501 6.497h20.037c2.953 0 5.345-2.388 5.345-5.341.001-2.953-2.394-5.342-5.344-5.342z"/><path d="m247.207 187.709c.007 0 .01.007.013.007-.003-.149-.013-.291-.013-.439 0-8.36 6.775-15.135 15.135-15.135 6.828 0 12.602 4.529 14.488 10.749 1.143-.535 2.411-.832 3.756-.832 4.872 0 8.816 3.947 8.816 8.82 0 1.123-.208 2.193-.591 3.181.099 0 .195-.013.294-.013 3.122 0 5.655 2.537 5.655 5.658 0 3.122-2.534 5.652-5.655 5.652h-41.898c-4.876 0-8.823-3.947-8.823-8.826 0-4.875 3.947-8.822 8.823-8.822z"/></g></svg>