<svg enable-background="new 0 0 512 512" viewBox="0 0 512 512" xmlns="http://www.w3.org/2000/svg"><circle cx="256" cy="256" fill="#ffd55c" r="256"/><path d="m256 425.317-73.315-42.331v-84.655l73.315 42.331z" fill="#fff"/><path d="m256 256-73.315 42.331 73.315 42.331 73.315-42.331z" fill="#f2f2f2"/><path d="m256 425.317 73.309-42.331v-84.655l-73.309 42.331z" fill="#d9d8d7"/><path d="m329.309 298.328-73.309-42.328v-84.652l73.309 42.328z" fill="#ff6d3b"/><path d="m329.309 129.014-73.309 42.334 73.309 42.328 73.318-42.328z" fill="#242d3c"/><path d="m329.309 298.328 73.318-42.328v-84.652l-73.318 42.328z" fill="#16c6cc"/><g fill="#242d3c"><path d="m182.685 299.318c-.172 0-.344-.046-.495-.132l-73.315-42.328c-.307-.178-.492-.502-.492-.859v-84.652c0-.353.188-.684.492-.859s.68-.175.988 0l73.315 42.328c.307.175.492.502.492.856v84.655c0 .353-.188.68-.492.859-.153.09-.328.132-.493.132zm-72.331-43.886 71.343 41.188v-82.376l-71.343-41.185z"/><path d="m182.688 214.66c-.172 0-.344-.046-.492-.132l-73.322-42.328c-.307-.175-.492-.502-.492-.852 0-.353.188-.684.492-.859l73.318-42.328c.304-.178.684-.178.988 0l73.315 42.328c.304.175.489.502.489.859 0 .347-.188.677-.489.852l-73.315 42.328c-.152.089-.323.132-.492.132zm-71.346-43.312 71.346 41.188 71.34-41.188-71.34-41.195z"/><path d="m256 256.991c-.168 0-.344-.043-.495-.132l-5.13-2.96c-.472-.277-.638-.879-.36-1.351.271-.476.879-.631 1.348-.363l5.13 2.966c.479.271.638.879.36 1.348-.182.314-.516.492-.853.492z"/><path d="m241.859 248.825c-.168 0-.337-.043-.492-.129l-9.008-5.206c-.476-.271-.634-.875-.357-1.348.271-.472.875-.628 1.344-.36l9.011 5.199c.472.277.631.879.357 1.348-.185.318-.515.496-.855.496zm-18.013-10.398c-.168 0-.34-.046-.495-.135l-9.008-5.199c-.472-.271-.631-.879-.36-1.348s.879-.631 1.348-.36l9.008 5.199c.476.274.634.879.36 1.348-.182.313-.516.495-.853.495zm-18.015-10.402c-.168 0-.34-.046-.492-.135l-9.008-5.199c-.476-.271-.638-.879-.36-1.348.271-.472.875-.631 1.348-.36l9.008 5.199c.472.271.634.879.36 1.348-.183.317-.519.495-.856.495z"/><path d="m187.812 217.623c-.168 0-.337-.043-.492-.132l-4.634-2.679-4.641 2.679c-.472.271-1.077.112-1.348-.36s-.109-1.077.36-1.348l5.13-2.963c.307-.178.684-.178.991 0l5.133 2.963c.472.271.631.879.36 1.348-.182.314-.516.492-.859.492z"/><path d="m123.504 248.825c-.337 0-.671-.178-.852-.495-.274-.472-.112-1.07.36-1.348l9.008-5.199c.472-.271 1.077-.112 1.348.36.274.476.112 1.077-.36 1.348l-9.008 5.206c-.155.085-.331.128-.496.128zm18.016-10.398c-.34 0-.674-.178-.856-.495-.271-.472-.109-1.074.36-1.348l9.008-5.199c.472-.271 1.08-.112 1.348.36.277.476.112 1.077-.357 1.348l-9.011 5.199c-.155.092-.32.135-.492.135zm18.016-10.402c-.34 0-.671-.182-.852-.495-.277-.472-.112-1.077.357-1.348l9.011-5.199c.466-.277 1.07-.112 1.344.36s.112 1.077-.357 1.348l-9.011 5.199c-.155.092-.324.135-.492.135z"/><path d="m109.367 256.991c-.344 0-.674-.178-.856-.492-.274-.472-.112-1.077.36-1.348l5.133-2.966c.472-.271 1.074-.109 1.348.363.271.476.109 1.074-.36 1.351l-5.133 2.96c-.156.089-.324.132-.492.132z"/><path d="m182.685 299.318c-.172 0-.344-.046-.495-.132-.304-.178-.489-.502-.489-.859v-84.652c0-.35.188-.68.489-.856l73.315-42.331c.304-.175.684-.175.988 0 .311.175.495.502.495.859v84.653c0 .353-.188.68-.495.859l-73.315 42.328c-.153.089-.328.131-.493.131zm.988-85.074v82.376l71.336-41.188v-82.373z"/><path d="m182.688 135.928c-.545 0-.988-.443-.988-.988v-5.929c0-.542.443-.988.988-.988s.988.446.988.988v5.929c-.003.548-.443.988-.988.988z"/><path d="m182.685 198.336c-.548 0-.988-.446-.988-.988v-10.402c0-.545.446-.988.988-.988.548 0 .988.443.988.988v10.402c0 .542-.446.988-.988.988zm0-20.804c-.542 0-.988-.443-.988-.988v-10.399c0-.548.446-.991.988-.991.548 0 .988.443.988.991v10.399c0 .545-.44.988-.988.988zm.003-20.804c-.545 0-.988-.439-.988-.988v-10.399c0-.548.443-.988.988-.988s.988.439.988.988v10.399c-.003.549-.443.988-.988.988z"/><path d="m182.685 214.66c-.548 0-.988-.443-.988-.988v-5.926c0-.548.439-.988.988-.988.542 0 .988.439.988.988v5.926c0 .549-.446.988-.988.988z"/></g></svg>