<svg enable-background="new 0 0 512 512" viewBox="0 0 512 512" xmlns="http://www.w3.org/2000/svg"><circle cx="256" cy="256" fill="#ffd55c" r="256"/><path d="m133.417 114.678h160.041v215.007h-160.041z" fill="#ff6d3b"/><g fill="#fff"><path d="m133.417 97.445h160.041v17.233h-160.041z"/><path d="m153.801 133.969h83.34v3.373h-83.34z"/><path d="m180.224 140.298h47.715v3.369h-47.715z"/><path d="m173.188 146.63h99.857v3.369h-99.857z"/><path d="m173.188 152.939h17.52v3.369h-17.52z"/><path d="m153.801 168.564h39.837v3.373h-39.837z"/><path d="m173.188 174.903h93.957v3.369h-93.957z"/><path d="m173.188 181.231h77.986v3.363h-77.986z"/><path d="m153.801 196.872h63.224v3.363h-63.224z"/><path d="m173.188 203.181h67.908v3.373h-67.908z"/><path d="m173.188 209.524h20.467v3.369h-20.467z"/><path d="m185.509 215.833h77.705v3.369h-77.705z"/><path d="m173.188 222.175h28.084v3.369h-28.084z"/><path d="m153.801 237.812h43.791v3.369h-43.791z"/><path d="m173.353 244.128h54.576v3.369h-54.576z"/><path d="m173.353 250.451h33.567v3.356h-33.567z"/><path d="m153.801 266.108h97.376v3.363h-97.376z"/><path d="m173.188 272.417h24.404v3.369h-24.404z"/><path d="m173.188 278.759h47.755v3.369h-47.755z"/><path d="m196.344 285.068h72.519v3.363h-72.519z"/><path d="m153.801 300.693h57.707v3.363h-57.707z"/><path d="m173.188 307.035h69.368v3.356h-69.368z"/></g><path d="m218.565 142.683c0-4.786 3.904-8.717 8.701-8.717h142.637c4.783 0 8.697 3.928 8.697 8.717v214.832c0 4.786-3.914 8.691-8.697 8.691h-142.638c-4.796 0-8.701-3.904-8.701-8.691v-214.832z" fill="#242d3c"/><path d="m289.752 356.504c-2.131 0-3.868-1.734-3.868-3.871v-.961c0-2.134 1.737-3.871 3.868-3.871h17.659c2.131 0 3.871 1.734 3.871 3.871v.961c0 2.134-1.741 3.871-3.871 3.871z" fill="#3e4959"/><path d="m298.565 149.303c-2.203 0-3.964-1.774-3.964-3.994 0-2.18 1.761-3.987 3.964-3.987 2.197 0 3.99 1.807 3.99 3.987.001 2.22-1.793 3.994-3.99 3.994z" fill="#3e4959"/><path d="m298.579 146.98c-.922 0-1.652-.743-1.652-1.665s.73-1.665 1.652-1.665c.918 0 1.671.743 1.671 1.665s-.753 1.665-1.671 1.665z" fill="#d9d8d7"/><path d="m227.629 156.672h141.877v181.44h-141.877z" fill="#fff"/><path d="m233.241 187.547h28.335v28.328h-28.335z" fill="#ff6d3b"/><path d="m267.224 187.547h28.335v28.328h-28.335z" fill="#21d8de"/><path d="m301.221 187.547h28.338v28.328h-28.338z" fill="#ffd55c"/><path d="m335.211 187.547h28.335v28.328h-28.335z" fill="#3e4959"/><path d="m233.241 221.547h28.335v28.335h-28.335z" fill="#ffd55c"/><path d="m267.224 221.547h28.335v28.335h-28.335z" fill="#3e4959"/><path d="m301.221 221.547h28.338v28.335h-28.338z" fill="#21d8de"/><path d="m335.211 221.547h28.335v28.335h-28.335z" fill="#ff6d3b"/><path d="m267.224 255.538h28.335v28.342h-28.335z" fill="#ff6d3b"/><path d="m301.221 255.538h28.338v28.342h-28.338z" fill="#cccbca"/><path d="m335.211 255.538h28.335v28.342h-28.335z" fill="#ffd55c"/><path d="m233.241 303.831h28.335v28.342h-28.335z" fill="#ff6d3b"/><path d="m267.224 303.831h28.335v28.342h-28.335z" fill="#cccbca"/><path d="m227.629 156.672h141.877v24.982h-141.877z" fill="#cccbca"/><path d="m133.404 381.869v32.685h245.195v-32.685zm12.252 21.3c-2.735 0-4.955-2.22-4.955-4.955s2.22-4.955 4.955-4.955 4.955 2.22 4.955 4.955-2.22 4.955-4.955 4.955z" fill="#f15424"/><g fill="#fff"><path d="m365.205 381.886h2.283v6.071h-2.283z"/><path d="m352.917 381.886h2.283v6.071h-2.283z"/><path d="m340.662 381.886h2.283v6.071h-2.283z"/><path d="m328.407 381.886h2.283v6.071h-2.283z"/><path d="m316.152 381.886h2.283v6.071h-2.283z"/><path d="m303.897 381.886h2.283v6.071h-2.283z"/><path d="m291.642 381.886h2.283v6.071h-2.283z"/><path d="m279.387 381.886h2.283v6.071h-2.283z"/><path d="m267.132 381.886h2.283v6.071h-2.283z"/><path d="m254.844 381.886h2.283v6.071h-2.283z"/><path d="m242.589 381.886h2.283v6.071h-2.283z"/><path d="m230.334 381.886h2.283v6.071h-2.283z"/><path d="m218.079 381.886h2.283v6.071h-2.283z"/><path d="m205.824 381.886h2.283v6.071h-2.283z"/><path d="m193.569 381.886h2.283v6.071h-2.283z"/><path d="m181.301 381.886h2.283v6.071h-2.283z"/><path d="m169.026 381.886h2.283v6.071h-2.283z"/><path d="m156.771 381.886h2.283v6.071h-2.283z"/><path d="m144.513 381.886h2.283v6.071h-2.283z"/></g></svg>