<svg enable-background="new 0 0 512 512" viewBox="0 0 512 512" xmlns="http://www.w3.org/2000/svg"><circle cx="256" cy="256" fill="#ffd55c" r="256"/><path d="m300.019 411.278h-88.071l8.001-44.897h72.05z" fill="#e6e5e5"/><path d="m300.019 411.278-8.02-44.897h-72.05l57.618 44.897z" fill="#d9d8d7"/><path d="m323.6 417.865h-135.234v-2.458c0-1.057.4-2.111 1.212-2.923.806-.806 1.86-1.206 2.917-1.206h126.966c1.064 0 2.121.4 2.927 1.206.806.813 1.212 1.863 1.212 2.923z" fill="#fff"/><path d="m414.555 337.349v21.322c0 4.245-3.485 7.71-7.733 7.71h-301.664c-4.222 0-7.713-3.465-7.713-7.71v-21.322z" fill="#fff"/><path d="m414.555 337.349v-202.458c0-4.231-3.482-7.723-7.736-7.723h-301.67c-4.225 0-7.697 3.492-7.697 7.723v202.458z" fill="#242d3c"/><path d="m113.466 143.195h285.035v178.136h-285.035z" fill="#fff"/><path d="m120.35 150.066h219.4v164.362h-219.4z" fill="#f2f2f2"/><path d="m120.35 150.066h271.261v11.479h-271.261z" fill="#d9d8d7"/><path d="m120.35 170.334h28.137v144.103h-28.137z" fill="#d9d8d7"/><path d="m124.941 174.922h18.954v78.419h-18.954z" fill="#fff"/><path d="m120.35 161.554h28.137v8.78h-28.137z" fill="#242d3c"/><path d="m171.801 161.554h167.943v8.78h-167.943z" fill="#cccbca"/><path d="m339.737 170.334h51.877v61.922h-51.877z" fill="#d9d8d7"/><path d="m344.328 174.922h42.694v32.137h-42.694z" fill="#fff"/><path d="m339.737 241.04h51.877v73.398h-51.877z" fill="#d9d8d7"/><path d="m344.328 245.628h42.694v52.845h-42.694z" fill="#fff"/><path d="m339.737 161.554h51.877v8.78h-51.877z" fill="#242d3c"/><path d="m339.737 232.25h51.877v8.78h-51.877z" fill="#242d3c"/><g fill="#d9d8d7"><path d="m348.292 249.592h34.803v2.768h-34.803z"/><path d="m348.292 255.604h34.803v2.768h-34.803z"/><path d="m348.292 178.87h34.803v2.775h-34.803z"/><path d="m348.292 184.891h34.803v2.775h-34.803z"/><path d="m348.292 190.917h34.803v2.775h-34.803z"/></g><path d="m329.034 170.334h10.709v144.103h-10.709z" fill="#cccbca"/><path d="m155.384 177.218h166.78v130.335h-166.78z" fill="#fff"/><path d="m301.551 286.951h13.018v13.018h-13.018z" fill="#ff6d3b"/><path d="m282.327 286.951h13.018v13.018h-13.018z" fill="#242d3c"/><path d="m263.069 286.951h13.015v13.018h-13.015z" fill="#21d8de"/><path d="m131.257 266.042h12.638v12.638h-12.638z" fill="#242d3c"/><path d="m124.941 259.733h12.632v12.632h-12.632z" fill="#ff6d3b"/><g fill="#d9d8d7"><path d="m130.302 180.29h8.228v8.225h-8.228z"/><path d="m130.302 193.876h8.228v8.225h-8.228z"/><path d="m130.302 207.466h8.228v8.225h-8.228z"/></g><path d="m179.051 266.947 30.446-52.733 30.453 52.733z" fill="#ff6d3b"/><circle cx="272.087" cy="240.581" fill="#242d3c" r="26.37"/><path d="m228.748 197.232h43.338v43.338h-43.338z" fill="#21d8de"/><path d="m272.097 214.214c-14.561 0-26.37 11.806-26.37 26.366h26.37z" fill="#fff"/></svg>