<svg enable-background="new 0 0 512 512" viewBox="0 0 512 512" xmlns="http://www.w3.org/2000/svg"><circle cx="256" cy="256" fill="#ff6d3b" r="256"/><path d="m256 187.587c-54.556 0-102.76 27.037-132.053 68.413 29.293 41.38 77.497 68.42 132.053 68.42 54.553 0 102.76-27.04 132.053-68.42-29.293-41.376-77.5-68.413-132.053-68.413z" fill="#fff"/><circle cx="256" cy="256" fill="#16c6cc" r="68.416"/><circle cx="256" cy="256" fill="#242d3c" r="32.345"/><g fill="#fff"><path d="m249.304 233.135c0 8.929-7.237 16.169-16.169 16.169-8.942 0-16.173-7.237-16.173-16.169 0-8.935 7.231-16.173 16.173-16.173 8.929 0 16.169 7.238 16.169 16.173z"/><path d="m253.655 96.091h4.704v17.534h-4.704z"/><path d="m222.234 99.392h4.7v17.53h-4.7z" transform="matrix(.9783 -.2072 .2072 .9783 -17.5363 48.8809)"/><path d="m192.179 109.148h4.697v17.53h-4.697z" transform="matrix(.9136 -.4066 .4066 .9136 -31.1376 89.2824)"/><path d="m164.815 124.942h4.697v17.533h-4.697z" transform="matrix(.809 -.5878 .5878 .809 -46.6667 123.7967)"/><path d="m141.305 146.096h4.704v17.535h-4.704z" transform="matrix(.6695 -.7429 .7429 .6695 -67.5558 157.9052)"/><path d="m122.749 171.669h4.704v17.534h-4.704z" transform="matrix(.4994 -.8664 .8664 .4994 -93.6987 198.7127)"/><path d="m109.886 200.534h4.697v17.528h-4.697z" transform="matrix(.309 -.9511 .9511 .309 -121.5011 251.3698)"/><path d="m103.369 231.464h4.7v17.53h-4.7z" transform="matrix(.1036 -.9946 .9946 .1036 -144.17 320.4912)"/><path d="m96.898 269.464h17.523v4.7h-17.523z" transform="matrix(.9945 -.1046 .1046 .9945 -27.8525 12.5433)"/><path d="m103.48 300.37h17.526v4.7h-17.526z" transform="matrix(.9511 -.3088 .3088 .9511 -87.9964 49.4572)"/><path d="m116.33 329.246h17.53v4.704h-17.53z" transform="matrix(.866 -.5 .5 .866 -149.042 106.9766)"/><path d="m134.914 354.787h17.526v4.697h-17.526z" transform="matrix(.7431 -.6691 .6691 .7431 -202.0673 187.873)"/><path d="m158.391 375.929h17.526v4.697h-17.526z" transform="matrix(.5879 -.8089 .8089 .5879 -237.1152 291.0966)"/><path d="m185.789 391.75h17.52v4.7h-17.52z" transform="matrix(.4065 -.9136 .9136 .4065 -244.6057 411.6389)"/><path d="m215.78 401.515h17.524v4.704h-17.524z" transform="matrix(.2078 -.9782 .9782 .2078 -217.1683 539.5865)"/><path d="m253.655 398.402h4.704v17.527h-4.704z"/><path d="m285.064 395.088h4.704v17.523h-4.704z" transform="matrix(.978 -.2085 .2085 .978 -77.8876 68.8035)"/><path d="m315.138 385.321h4.7v17.523h-4.7z" transform="matrix(.9138 -.4061 .4061 .9138 -132.6811 162.8958)"/><path d="m342.488 369.518h4.7v17.523h-4.7z" transform="matrix(.8092 -.5875 .5875 .8092 -156.4542 274.7664)"/><path d="m365.978 348.351h4.7v17.52h-4.7z" transform="matrix(.6698 -.7425 .7425 .6698 -143.5486 391.403)"/><path d="m384.539 322.797h4.7v17.523h-4.7z" transform="matrix(.5002 -.8659 .8659 .5002 -93.7335 500.7217)"/><path d="m397.411 293.96h4.694v17.53h-4.694z" transform="matrix(.3092 -.951 .951 .3092 -11.7378 589.291)"/><path d="m403.965 263.059h4.697v17.527h-4.697z" transform="matrix(.1037 -.9946 .9946 .1037 93.8216 647.7572)"/><path d="m397.538 237.818h17.524v4.701h-17.524z" transform="matrix(.9945 -.1051 .1051 .9945 -22.9906 44.0306)"/><path d="m391.011 206.947h17.527v4.697h-17.527z" transform="matrix(.951 -.3092 .3092 .951 -45.1239 133.8659)"/><path d="m378.13 178.065h17.524v4.701h-17.524z" transform="matrix(.8659 -.5003 .5003 .8659 -38.3619 217.7542)"/><path d="m359.561 152.514h17.527v4.704h-17.527z" transform="matrix(.7427 -.6696 .6696 .7427 -8.9342 286.4793)"/><path d="m336.073 131.374h17.527v4.701h-17.527z" transform="matrix(.5877 -.8091 .8091 .5877 33.9854 334.1381)"/><path d="m308.702 115.581h17.525v4.701h-17.525z" transform="matrix(.4063 -.9137 .9137 .4063 80.7257 360.1012)"/><path d="m278.653 105.796h17.52v4.701h-17.52z" transform="matrix(.2077 -.9782 .9782 .2077 121.9296 366.8304)"/></g></svg>