<svg enable-background="new 0 0 512 512" viewBox="0 0 512 512" xmlns="http://www.w3.org/2000/svg"><circle cx="256" cy="256" fill="#0575a5" r="256"/><path d="m511.716 267.195-124.055-124.058h-214.969l-24.174 24.174-24.172 24.21v129.536h.036l185.247 185.27c112.103-23.903 197.005-121.157 202.087-239.132z" fill="#025e90"/><path d="m124.344 191.506v129.536h157.087l47.8 47.813v-47.813h58.425v-177.905h-214.953z" fill="#fff"/><path d="m124.344 239.859 48.359-48.353-24.169-24.197-24.19 24.197z" fill="#e1effa"/><path d="m172.703 191.506h-48.359l48.359-48.369z" fill="#ff8e31"/><path d="m257.518 299.382h-75.182c-.584 0-1.062-.466-1.062-1.06 0-.586.479-1.068 1.062-1.068h75.182c.584 0 1.06.481 1.06 1.068 0 .596-.479 1.06-1.06 1.06z" fill="#5d6d7e"/><path d="m217.359 287.841 15.485-26.954-13.14-13.141-26.962 15.468c.177 11.715-3.182 23.493-10.099 33.556-.102.028-.197.069-.243.125-.159.143-.159.407 0 .556.143.156.389.156.543.008l22.551-23.59c-.223-.689-.056-1.467.481-1.994.765-.781 1.976-.773 2.742 0 .755.737.755 1.994.013 2.744-.532.563-1.321.709-2.002.474l-23.611 22.551c-.133.141-.148.399.005.576.161.143.422.143.571 0 .084-.074.097-.174.128-.266 10.045-6.936 21.806-10.302 33.538-10.113z" fill="#5d6d7e"/><path d="m183.826 297.951c-.031.069-.046.189-.11.253-.164.156-.428.156-.586 0-.166-.161-.141-.422-.005-.563l23.611-22.551c.681.238 1.454.069 1.994-.479.748-.745.748-2.002-.008-2.739l17.572-17.559 6.523 6.556-15.457 26.975c-11.695-.184-23.494 3.174-33.534 10.107z" fill="#34495e"/><path d="m321.592 175.78c-.003-4.641-1.882-8.835-4.92-11.876-3.041-3.041-7.24-4.915-11.876-4.915-4.641 0-8.835 1.876-11.878 4.915l-60.093 60.104 23.736 23.736 60.285-60.265c3.044-3.034 4.744-7.063 4.746-11.699z" fill="#ff8e31"/><path d="m256.036 207.99c-.794-.801-.794-2.094 0-2.88l27.172-27.172c.794-.801 2.081-.801 2.872 0 .801.801.801 2.086 0 2.885l-27.162 27.167c-.796.786-2.089.786-2.882 0z" fill="#ffc87c"/><path d="m298.363 166.651c-.166-.161-.299-.366-.407-.576-.479-1.011-.046-2.227.97-2.719 1.864-.878 3.843-1.313 5.873-1.313 3.666 0 7.119 1.418 9.713 4.017.794.794.794 2.079.008 2.88-.796.801-2.086.801-2.888.005-1.825-1.841-4.25-2.844-6.833-2.844-1.431 0-2.821.323-4.129.942-.797.378-1.721.197-2.307-.392z" fill="#ffc87c"/><path d="m233.654 261.683-14.743-14.738 15.992-20.851 19.602 19.594z" fill="#ff9d4d"/><path d="m311.629 192.694-23.752-23.747 2.88-2.887 23.752 23.759z" fill="#34495e"/><path d="m252.052 247.557 2.453-1.869-19.602-19.594-1.876 2.437z" fill="#f28124"/><path d="m290.757 166.06-.701-.709c-1.155-1.16-2.698-1.784-4.332-1.784-1.641.013-3.174.645-4.326 1.812l-23.404 23.626c-.794.781-.786 2.079.005 2.872h.003c.801.794 2.086.786 2.88-.013l23.411-23.619c.381-.394.899-.604 1.441-.604.548 0 1.06.205 1.444.596l.701.709z" fill="#5d6d7e"/></svg>