<svg enable-background="new 0 0 512 512" viewBox="0 0 512 512" xmlns="http://www.w3.org/2000/svg"><circle cx="256" cy="256" fill="#0575a5" r="256"/><path d="m492.895 353.083c-25.29 61.647-73.923 111.224-134.925 137.754l-237.612-237.617 24.23-24.23-12.201-12.193v-.036l-13.53-13.535 11.374-2.12 2.156-11.379 13.499 13.499h.036l12.214 12.214 19.018-19.018h15.759l-19.82-19.82-27.136-27.136 22.784-4.311 4.355-22.82 27.136 27.131 46.961 46.958h89.047l56.87 56.873zm4.856-12.849c3.489-10.015 6.397-20.296 8.63-30.825l-152.515-152.522-3.105 16.602-16.645 3.11 19.75 19.75z" fill="#025e90"/><path d="m302.203 253.276-45.486 136.41-45.463-136.41z" fill="#c1d354"/><path d="m211.254 253.276 45.463 136.41-136.394-136.41z" fill="#d0e070"/><path d="m302.203 253.276-45.486 136.41 136.427-136.41z" fill="#d0e070"/><path d="m120.323 253.276 56.829-56.847 34.102 56.847z" fill="#c1d354"/><path d="m211.254 253.276 45.463-56.847 45.486 56.847z" fill="#d0e070"/><path d="m177.152 196.429 34.102 56.847 45.463-56.847z" fill="#a6b83d"/><path d="m336.307 196.429-34.104 56.847-45.486-56.847z" fill="#a6b83d"/><g fill="#c1d354"><path d="m393.144 253.276-56.837-56.847-34.104 56.847z"/><path d="m177.393 153.784 22.848-4.326-22.848-4.298-4.304-22.838-4.341 22.838-22.813 4.298 22.813 4.326 4.341 22.841z"/><path d="m134.554 205.404 11.381-2.168-11.381-2.143-2.171-11.379-2.143 11.379-11.384 2.143 11.384 2.168 2.143 11.379z"/><path d="m357.015 179.75 16.594-3.125-16.594-3.139-3.149-16.596-3.126 16.596-16.606 3.139 16.606 3.125 3.126 16.594z"/></g></svg>