<svg enable-background="new 0 0 512 512" viewBox="0 0 512 512" xmlns="http://www.w3.org/2000/svg"><circle cx="256" cy="256" fill="#0575a5" r="256"/><path d="m511.826 262.945-120.666-120.642c-1.17-1.208-2.852-1.974-4.677-1.974h-260.938c-3.694 0-6.692 3.034-6.692 6.694v168.443c0 1.615.586 3.11 1.61 4.285l.694.694 186.386 186.358c114.483-23.401 201.057-123.236 204.283-243.858z" fill="#025e90"/><path d="m291.722 366.328h-71.47l9.08-44.19h53.305z" fill="#e1effa"/><path d="m291.722 366.328-9.085-44.19h-53.305l44.176 44.19z" fill="#cee2f2"/><path d="m201.114 366.336h109.74v5.338h-109.74z" fill="#fff"/><path d="m125.532 140.337c-3.681 0-6.671 3.013-6.671 6.679v168.443c0 3.686 2.99 6.679 6.671 6.679h260.943c3.663 0 6.669-2.993 6.669-6.679v-168.443c0-3.666-3.008-6.679-6.669-6.679z" fill="#34495e"/><path d="m132.723 154.189h246.554v154.112h-246.554z" fill="#cee2f2"/><path d="m141.696 182.912h228.608v116.403h-228.608z" fill="#fff"/><path d="m132.723 154.189h246.554v19.763h-246.554z" fill="#ff8e31"/><g fill="#fff"><path d="m366.643 164.221c0 1.608-1.313 2.929-2.918 2.929h-143.824c-1.605 0-2.929-1.321-2.929-2.929v-.287c0-1.608 1.324-2.929 2.929-2.929h143.823c1.605 0 2.918 1.321 2.918 2.929v.287z"/><circle cx="160.945" cy="164.07" r="3.072"/><path d="m181.896 167.15c-1.692 0-3.072-1.382-3.072-3.077 0-1.692 1.38-3.069 3.072-3.069 1.687 0 3.059 1.377 3.059 3.069 0 1.695-1.375 3.077-3.059 3.077z"/><circle cx="202.829" cy="164.07" r="3.072"/></g><path d="m308.887 216.374v-4.698l-3.459-1.172c-.184-1.052-.458-2.079-.814-3.062l2.401-2.755-2.348-4.073-3.579.709c-.351-.399-.707-.786-1.078-1.167-.379-.366-.765-.722-1.165-1.073l.712-3.581-4.078-2.345-2.749 2.396c-.983-.346-2.007-.625-3.054-.822l-1.18-3.448h-4.705l-1.18 3.448c-1.052.197-2.071.479-3.057.822l-2.742-2.396-4.076 2.345.709 3.581c-.399.351-.794.709-1.165 1.073-.374.379-.735.765-1.085 1.167l-3.579-.701-2.348 4.065 2.399 2.755c-.351.983-.625 2.01-.814 3.062l-3.448 1.172v4.698l3.448 1.18c.189 1.062.466 2.079.814 3.062l-2.399 2.747 2.355 4.073 3.574-.701-.008-.02c.351.407.712.801 1.093 1.18.379.379.773.745 1.18 1.088l-.724 3.569 4.076 2.353 2.742-2.401c.988.351 2.004.627 3.057.822l1.18 3.448h4.705l1.18-3.448c1.047-.197 2.074-.471 3.054-.822l2.749 2.401 4.078-2.353-.712-3.574-.015.008c.407-.346.801-.709 1.18-1.088.371-.374.727-.765 1.078-1.167l3.579.709 2.348-4.073-2.401-2.747c.358-.983.63-2.002.814-3.062zm-22.746 7.053c-5.189 0-9.395-4.214-9.395-9.403 0-5.181 4.206-9.39 9.395-9.39 5.197 0 9.398 4.209 9.398 9.39 0 5.189-4.198 9.403-9.398 9.403z" fill="#34495e"/><path d="m276.073 258.248v-7.542l-5.542-1.882c-.299-1.687-.742-3.328-1.306-4.915l3.848-4.403-3.771-6.538-5.742 1.139c-.566-.645-1.126-1.265-1.731-1.869-.604-.596-1.224-1.167-1.864-1.72l1.134-5.745-6.543-3.773-4.406 3.848c-1.582-.561-3.22-1.011-4.908-1.321l-1.889-5.535h-7.549l-1.882 5.535c-1.684.31-3.328.758-4.908 1.321l-4.4-3.848-6.538 3.768 1.142 5.745c-.65.556-1.272 1.124-1.871 1.72-.589.604-1.172 1.224-1.736 1.869l-5.737-1.124-3.771 6.523 3.845 4.403c-.558 1.587-1.009 3.231-1.311 4.915l-5.535 1.882v7.542l5.535 1.894c.302 1.7.75 3.323 1.311 4.91l-3.845 4.398 3.779 6.538 5.732-1.121-.013-.044c.556.653 1.144 1.293 1.748 1.894.607.612 1.236 1.196 1.902 1.743l-1.172 5.724 6.543 3.786 4.401-3.858c1.58.571 3.223 1.006 4.908 1.316l1.882 5.532h7.549l1.889-5.532c1.687-.31 3.325-.745 4.908-1.316l4.406 3.858 6.543-3.786-1.134-5.732-.028.008c.645-.548 1.285-1.129 1.889-1.743.602-.596 1.165-1.224 1.731-1.866l5.742 1.137 3.771-6.538-3.848-4.398c.563-1.587 1.006-3.21 1.306-4.91zm-36.485 4.467c-4.552 0-8.236-3.686-8.236-8.238 0-4.536 3.684-8.223 8.236-8.223 4.549 0 8.23 3.686 8.23 8.223 0 4.551-3.681 8.238-8.23 8.238z" fill="#ff8e31"/><path d="m239.588 236.772c-9.777 0-17.713 7.936-17.713 17.705 0 9.784 7.936 17.718 17.713 17.718 9.787 0 17.708-7.936 17.708-17.718-.001-9.772-7.921-17.705-17.708-17.705zm0 25.661c-4.39 0-7.951-3.561-7.951-7.956 0-4.383 3.561-7.944 7.951-7.944 4.396 0 7.944 3.561 7.944 7.944-.003 4.395-3.549 7.956-7.944 7.956z" fill="#34495e"/></svg>