<svg xmlns="http://www.w3.org/2000/svg" xmlns:xlink="http://www.w3.org/1999/xlink" viewBox="0 0 229.81 222.07"><defs><style>.cls-1{opacity:0.8;fill:url(#New_Gradient_Swatch_1);}</style><linearGradient id="New_Gradient_Swatch_1" x1="36.15" y1="111.04" x2="255.92" y2="111.04" gradientTransform="translate(-37.8) scale(1.05 1)" gradientUnits="userSpaceOnUse"><stop offset="0" stop-color="#9cdcff"/><stop offset="0.13" stop-color="#96d3f8"/><stop offset="0.35" stop-color="#84bbe6"/><stop offset="0.62" stop-color="#6894c9"/><stop offset="0.94" stop-color="#425fa1"/><stop offset="1" stop-color="#395398"/></linearGradient></defs><title>Asset 2</title><g id="Layer_2" data-name="Layer 2"><g id="OBJECTS"><path class="cls-1" d="M229.81,147.09a68.41,68.41,0,0,0-.92-11.16l0,0s-8.06-62.42-59.14-112.54l0,0a75.92,75.92,0,0,0-109.73,0C9.13,73.4,1,135.6.92,136A68.14,68.14,0,0,0,0,147.09c0,30.9,20.8,57.15,49.74,66.65,0,0,45.91,16.82,119.64,2.66h0C203.75,210.45,229.81,181.68,229.81,147.09Z"/></g></g></svg>