<svg version="1.1" xmlns="http://www.w3.org/2000/svg" xmlns:xlink="http://www.w3.org/1999/xlink" x="0px" y="0px" viewBox="0 0 250 250" enable-background="new 0 0 250 250" xml:space="preserve" style="position: absolute;">
<g>
	<path fill="#f8fdf4" d="M103.7,36.3c0-9.8,15-15.4,21.6-29.7c7.2,14.3,21.6,20,21.6,29.7c0,8.4-5.3,13-11.9,13c-4,0-7.6-3-9.7-6.3
		c-2.2,3.3-5.7,6.3-9.7,6.3C109,49.3,103.7,44.7,103.7,36.3z" class="color color-4" data-color="#F59751"></path>
</g>
<g id="x" opacity="0.1">
	<path d="M125.4,43c-2.2,3.3-5.7,6.3-9.7,6.3c-6.6,0-11.9-4.6-11.9-13c0-9.8,15-15.4,21.6-29.7"></path>
</g>
<g>
	<g id="">
		<path fill="#f8fdf4" d="M47.2,77.3c-6.9-6.9-0.3-21.5-5.7-36.3c15.2,5,29.4-1.2,36.3,5.7c5.9,5.9,5.4,13,0.8,17.6
			c-2.8,2.8-7.5,3.2-11.4,2.4c0.8,3.9,0.4,8.5-2.4,11.4C60.2,82.8,53.2,83.3,47.2,77.3z" class="color color-4" data-color="#F59751"></path>
	</g>
	<g id="">
		<path fill="#f8fdf4" d="M36.3,146.3c-9.8,0-15.4-15-29.7-21.6c14.3-7.2,20-21.6,29.7-21.6c8.4,0,13,5.3,13,11.9c0,4-3,7.6-6.3,9.7
			c3.3,2.2,6.3,5.7,6.3,9.7C49.3,141,44.7,146.3,36.3,146.3z" class="color color-4" data-color="#F59751"></path>
	</g>
	<g id="">
		<path fill="#f8fdf4" d="M77.3,202.8c-6.9,6.9-21.5,0.3-36.3,5.7c5-15.2-1.2-29.4,5.7-36.3c5.9-5.9,13-5.4,17.6-0.8
			c2.8,2.8,3.2,7.5,2.4,11.4c3.9-0.8,8.5-0.4,11.4,2.4C82.8,189.8,83.3,196.8,77.3,202.8z" class="color color-4" data-color="#F59751"></path>
	</g>
	<g id="">
		<path fill="#f8fdf4" d="M146.3,213.7c0,9.8-15,15.4-21.6,29.7c-7.2-14.3-21.6-20-21.6-29.7c0-8.4,5.3-13,11.9-13
			c4,0,7.6,3,9.7,6.3c2.2-3.3,5.7-6.3,9.7-6.3C141,200.7,146.3,205.3,146.3,213.7z" class="color color-4" data-color="#F59751"></path>
	</g>
	<g id="">
		<path fill="#f8fdf4" d="M202.8,172.7c6.9,6.9,0.3,21.5,5.7,36.3c-15.2-5-29.4,1.2-36.3-5.7c-5.9-5.9-5.4-13-0.8-17.6
			c2.8-2.8,7.5-3.2,11.4-2.4c-0.8-3.9-0.4-8.5,2.4-11.4C189.8,167.2,196.8,166.7,202.8,172.7z" class="color color-4" data-color="#F59751"></path>
	</g>
	<g id="">
		<path fill="#f8fdf4" d="M213.7,103.7c9.8,0,15.4,15,29.7,21.6c-14.3,7.2-20,21.6-29.7,21.6c-8.4,0-13-5.3-13-11.9
			c0-4,3-7.6,6.3-9.7c-3.3-2.2-6.3-5.7-6.3-9.7C200.7,109,205.3,103.7,213.7,103.7z" class="color color-4" data-color="#F59751"></path>
	</g>
	<g id="">
		<path fill="#f8fdf4" d="M172.7,47.2c6.9-6.9,21.5-0.3,36.3-5.7c-5,15.2,1.2,29.4-5.7,36.3c-5.9,5.9-13,5.4-17.6,0.8
			c-2.8-2.8-3.2-7.5-2.4-11.4c-3.9,0.8-8.5,0.4-11.4-2.4C167.2,60.2,166.7,53.2,172.7,47.2z" class="color color-4" data-color="#F59751"></path>
	</g>
</g>
<g>
	<g id="">
		<path fill="#b6f3f0" d="M99.8,68.7c6.9,6.9,0.3,21.5,5.7,36.3c-15.2-5-29.4,1.2-36.3-5.7c-5.9-5.9-5.4-13-0.8-17.6
			c2.8-2.8,7.5-3.2,11.4-2.4c-0.8-3.9-0.4-8.5,2.4-11.4C86.8,63.3,93.9,62.8,99.8,68.7z" class="color color-3" data-color="#1AAA9D"></path>
	</g>
	<g id="">
		<path fill="#b6f3f0" d="M67.4,103c9.8,0,15.4,15,29.7,21.6c-14.3,7.2-20,21.6-29.7,21.6c-8.4,0-13-5.3-13-11.9c0-4,3-7.6,6.3-9.7
			c-3.3-2.2-6.3-5.7-6.3-9.7C54.4,108.3,59,103,67.4,103z" class="color color-3" data-color="#1AAA9D"></path>
	</g>
	<g id="">
		<path fill="#b6f3f0" d="M68.7,150.2c6.9-6.9,21.5-0.3,36.3-5.7c-5,15.2,1.2,29.4-5.7,36.3c-5.9,5.9-13,5.4-17.6,0.8
			c-2.8-2.8-3.2-7.5-2.4-11.4c-3.9,0.8-8.5,0.4-11.4-2.4C63.3,163.2,62.8,156.1,68.7,150.2z" class="color color-3" data-color="#1AAA9D"></path>
	</g>
	<g id="">
		<path fill="#b6f3f0" d="M103,182.6c0-9.8,15-15.4,21.6-29.7c7.2,14.3,21.6,20,21.6,29.7c0,8.4-5.3,13-11.9,13c-4,0-7.6-3-9.7-6.3
			c-2.2,3.3-5.7,6.3-9.7,6.3C108.3,195.6,103,191,103,182.6z" class="color color-3" data-color="#1AAA9D"></path>
	</g>
	<g id="">
		<path fill="#b6f3f0" d="M150.2,181.3c-6.9-6.9-0.3-21.5-5.7-36.3c15.2,5,29.4-1.2,36.3,5.7c5.9,5.9,5.4,13,0.8,17.6
			c-2.8,2.8-7.5,3.2-11.4,2.4c0.8,3.9,0.4,8.5-2.4,11.4C163.2,186.7,156.1,187.2,150.2,181.3z" class="color color-3" data-color="#1AAA9D"></path>
	</g>
	<g id="">
		<path fill="#b6f3f0" d="M182.6,147c-9.8,0-15.4-15-29.7-21.6c14.3-7.2,20-21.6,29.7-21.6c8.4,0,13,5.3,13,11.9c0,4-3,7.6-6.3,9.7
			c3.3,2.2,6.3,5.7,6.3,9.7C195.6,141.7,191,147,182.6,147z" class="color color-3" data-color="#1AAA9D"></path>
	</g>
	<g id="">
		<path fill="#b6f3f0" d="M181.3,99.8c-6.9,6.9-21.5,0.3-36.3,5.7c5-15.2-1.2-29.4,5.7-36.3c5.9-5.9,13-5.4,17.6-0.8
			c2.8,2.8,3.2,7.5,2.4,11.4c3.9-0.8,8.5-0.4,11.4,2.4C186.7,86.8,187.2,93.9,181.3,99.8z" class="color color-3" data-color="#1AAA9D"></path>
	</g>
	<g id="">
		<path fill="#b6f3f0" d="M103.7,67.4c0,9.8,15,16.1,21.6,30.4c7.2-14.3,21.6-20.7,21.6-30.4c0-8.4-5.3-13-11.9-13
			c-4,0-7.6,3-9.7,6.3c-2.2-3.3-5.7-6.3-9.7-6.3C109,54.4,103.7,59,103.7,67.4z" class="color color-3" data-color="#1AAA9D"></path>
	</g>
</g>
<g id="x_9_">
	<g opacity="0.2" id="">
		<path d="M125.4,60.7c-2.2-3.3-5.7-6.3-9.7-6.3c-6.6,0-11.9,4.6-11.9,13c0,9.8,15,16.1,21.6,30.4"></path>
	</g>
	<g opacity="0.2" id="">
		<path d="M79.8,79.3c-3.9-0.8-8.5-0.4-11.4,2.4c-4.7,4.7-5.2,11.7,0.8,17.6c6.9,6.9,22,0.8,36.8,6.2"></path>
	</g>
	<g opacity="0.2" id="">
		<path d="M60.7,124.6c-3.3,2.2-6.3,5.7-6.3,9.7c0,6.6,4.6,11.9,13,11.9c9.8,0,16.1-15,30.4-21.6"></path>
	</g>
	<g opacity="0.2" id="">
		<path d="M79.3,170.2c-0.8,3.9-0.4,8.5,2.4,11.4c4.7,4.7,11.7,5.2,17.6-0.8c6.9-6.9,0.8-22,6.2-36.8"></path>
	</g>
	<g opacity="0.2" id="">
		<path d="M124.6,189.3c2.2,3.3,5.7,6.3,9.7,6.3c6.6,0,11.9-4.6,11.9-13c0-9.8-15-16.1-21.6-30.4"></path>
	</g>
	<g opacity="0.2" id="">
		<path d="M170.2,170.7c3.9,0.8,8.5,0.4,11.4-2.4c4.7-4.7,5.2-11.7-0.8-17.6c-6.9-6.9-22-0.8-36.8-6.2"></path>
	</g>
	<g opacity="0.2" id="">
		<path d="M189.3,125.4c3.3-2.2,6.3-5.7,6.3-9.7c0-6.6-4.6-11.9-13-11.9c-9.8,0-16.1,15-30.4,21.6"></path>
	</g>
	<g opacity="0.2" id="">
		<path d="M170.7,79.8c0.8-3.9,0.4-8.5-2.4-11.4c-4.7-4.7-11.7-5.2-17.6,0.8c-6.9,6.9-0.8,22-6.2,36.8"></path>
	</g>
</g>
<g>
	<g id="">
		<circle fill="#fbe2de" cx="125" cy="125" r="8.8" class="color color-2" data-color="#EF5C6F"></circle>
	</g>
	<circle fill="#fbe2de" cx="115.2" cy="100.8" r="4.4" class="color color-2" data-color="#EF5C6F"></circle>
	<circle fill="#fbe2de" cx="100.9" cy="114.8" r="4.4" class="color color-2" data-color="#EF5C6F"></circle>
	<circle fill="#fbe2de" cx="100.8" cy="134.8" r="4.4" class="color color-2" data-color="#EF5C6F"></circle>
	<circle fill="#fbe2de" cx="114.8" cy="149.1" r="4.4" class="color color-2" data-color="#EF5C6F"></circle>
	<circle fill="#fbe2de" cx="134.8" cy="149.2" r="4.4" class="color color-2" data-color="#EF5C6F"></circle>
	<circle fill="#fbe2de" cx="149.1" cy="135.2" r="4.4" class="color color-2" data-color="#EF5C6F"></circle>
	<circle fill="#fbe2de" cx="149.2" cy="115.2" r="4.4" class="color color-2" data-color="#EF5C6F"></circle>
	<circle fill="#fbe2de" cx="135.2" cy="100.9" r="4.4" class="color color-2" data-color="#EF5C6F"></circle>
</g>
<g id="x_12_" opacity="0.1">
	<path d="M125,133.8c-4.9,0-8.8-3.9-8.8-8.8s3.9-8.8,8.8-8.8V133.8z"></path>
</g>
<g>
	<g id="">
		<circle fill="#f8fdf4" cx="94" cy="49.3" r="6.4" class="color color-4" data-color="#F59751"></circle>
	</g>
	<g id="">
		<circle fill="#f8fdf4" cx="49.6" cy="93.4" r="6.4" class="color color-4" data-color="#F59751"></circle>
	</g>
	<g id="">
		<circle fill="#f8fdf4" cx="49.3" cy="156" r="6.4" class="color color-4" data-color="#F59751"></circle>
	</g>
	<g id="">
		<circle fill="#f8fdf4" cx="93.4" cy="200.4" r="6.4" class="color color-4" data-color="#F59751"></circle>
	</g>
	<g id="">
		<circle fill="#f8fdf4" cx="156" cy="200.7" r="6.4" class="color color-4" data-color="#F59751"></circle>
	</g>
	<g id="">
		<circle fill="#f8fdf4" cx="200.4" cy="156.6" r="6.4" class="color color-4" data-color="#F59751"></circle>
	</g>
	<g id="">
		<circle fill="#f8fdf4" cx="200.7" cy="94" r="6.4" class="color color-4" data-color="#F59751"></circle>
	</g>
	<g id="">
		<circle fill="#f8fdf4" cx="156.6" cy="49.6" r="6.4" class="color color-4" data-color="#F59751"></circle>
	</g>
</g>
<g>
	<g id="">
		<circle fill="#f8fdf4" cx="125.4" cy="74.9" r="6.4" class="color color-4" data-color="#F59751"></circle>
	</g>
	<g id="">
		<circle fill="#f8fdf4" cx="89.8" cy="89.2" r="6.4" class="color color-4" data-color="#F59751"></circle>
	</g>
	<g id="">
		<circle fill="#f8fdf4" cx="74.9" cy="124.6" r="6.4" class="color color-4" data-color="#F59751"></circle>
	</g>
	<g id="">
		<circle fill="#f8fdf4" cx="89.2" cy="160.2" r="6.4" class="color color-4" data-color="#F59751"></circle>
	</g>
	<g id="">
		<circle fill="#f8fdf4" cx="124.6" cy="175.1" r="6.4" class="color color-4" data-color="#F59751"></circle>
	</g>
	<g id="">
		<circle fill="#f8fdf4" cx="160.2" cy="160.8" r="6.4" class="color color-4" data-color="#F59751"></circle>
	</g>
	<g id="">
		<circle fill="#f8fdf4" cx="175.1" cy="125.4" r="6.4" class="color color-4" data-color="#F59751"></circle>
	</g>
	<g id="">
		<circle fill="#f8fdf4" cx="160.8" cy="89.8" r="6.4" class="color color-4" data-color="#F59751"></circle>
	</g>
</g>
<g id="x_10_">
	<g opacity="0.1" id="">
		<path d="M125.4,81.2c-3.5,0-6.4-2.9-6.4-6.4c0-3.5,2.9-6.4,6.4-6.4V81.2z"></path>
	</g>
	<g opacity="0.1" id="">
		<path d="M94.4,93.8c-2.5,2.5-6.5,2.5-9,0c-2.5-2.5-2.5-6.5,0-9L94.4,93.8z"></path>
	</g>
	<g opacity="0.1" id="">
		<path d="M81.2,124.6c0,3.5-2.9,6.4-6.4,6.4s-6.4-2.9-6.4-6.4H81.2z"></path>
	</g>
	<g opacity="0.1" id="">
		<path d="M93.8,155.6c2.5,2.5,2.5,6.5,0,9c-2.5,2.5-6.5,2.5-9,0L93.8,155.6z"></path>
	</g>
	<g opacity="0.1" id="">
		<path d="M124.6,168.8c3.5,0,6.4,2.9,6.4,6.4c0,3.5-2.9,6.4-6.4,6.4V168.8z"></path>
	</g>
	<g opacity="0.1" id="">
		<path d="M155.6,156.2c2.5-2.5,6.5-2.5,9,0s2.5,6.5,0,9L155.6,156.2z"></path>
	</g>
	<g opacity="0.1" id="">
		<path d="M168.8,125.4c0-3.5,2.9-6.4,6.4-6.4c3.5,0,6.4,2.9,6.4,6.4H168.8z"></path>
	</g>
	<g opacity="0.1" id="">
		<path d="M156.2,94.4c-2.5-2.5-2.5-6.5,0-9s6.5-2.5,9,0L156.2,94.4z"></path>
	</g>
</g>
<g id="x_2_" opacity="0.1">
	<path d="M43,124.6c3.3,2.2,6.3,5.7,6.3,9.7c0,6.6-4.6,11.9-13,11.9c-9.8,0-15.4-15-29.7-21.6"></path>
</g>
<g id="x_7_" opacity="0.1">
	<path d="M183.3,67.2c-3.9,0.8-8.5,0.4-11.4-2.4c-4.7-4.7-5.2-11.7,0.8-17.6c6.9-6.9,21.5-0.3,36.3-5.7"></path>
</g>
<g id="x_1_" opacity="0.1">
	<path d="M67.2,66.7c0.8,3.9,0.4,8.5-2.4,11.4c-4.7,4.7-11.7,5.2-17.6-0.8c-6.9-6.9-0.3-21.5-5.7-36.3"></path>
</g>
<g id="x_3_" opacity="0.1">
	<path d="M66.7,182.8c3.9-0.8,8.5-0.4,11.4,2.4c4.7,4.7,5.2,11.7-0.8,17.6c-6.9,6.9-21.5,0.3-36.3,5.7"></path>
</g>
<g id="x_4_" opacity="0.1">
	<path d="M124.6,207c2.2-3.3,5.7-6.3,9.7-6.3c6.6,0,11.9,4.6,11.9,13c0,9.8-15,15.4-21.6,29.7"></path>
</g>
<g id="x_5_" opacity="0.1">
	<path d="M182.8,183.3c-0.8-3.9-0.4-8.5,2.4-11.4c4.7-4.7,11.7-5.2,17.6,0.8c6.9,6.9,0.3,21.5,5.7,36.3"></path>
</g>
<g id="x_6_" opacity="0.1">
	<path d="M207,125.4c-3.3-2.2-6.3-5.7-6.3-9.7c0-6.6,4.6-11.9,13-11.9c9.8,0,15.4,15,29.7,21.6"></path>
</g>
<g>
	<g id="">
		<circle fill="#fbe2de" cx="125.4" cy="30.2" r="7.9" class="color color-2" data-color="#EF5C6F"></circle>
	</g>
	<g id="">
		<circle fill="#fbe2de" cx="30.2" cy="124.6" r="7.9" class="color color-2" data-color="#EF5C6F"></circle>
	</g>
	<g id="">
		<circle fill="#fbe2de" cx="124.6" cy="219.8" r="7.9" class="color color-2" data-color="#EF5C6F"></circle>
	</g>
	<g id="">
		<circle fill="#fbe2de" cx="219.8" cy="125.4" r="7.9" class="color color-2" data-color="#EF5C6F"></circle>
	</g>
</g>
<g>
	<g id="">
		<circle fill="#b6f3f0" cx="58.3" cy="57.7" r="7.9" class="color color-3" data-color="#1AAA9D"></circle>
	</g>
	<g id="">
		<circle fill="#b6f3f0" cx="57.7" cy="191.7" r="7.9" class="color color-3" data-color="#1AAA9D"></circle>
	</g>
	<g id="">
		<circle fill="#b6f3f0" cx="191.7" cy="192.3" r="7.9" class="color color-3" data-color="#1AAA9D"></circle>
	</g>
	<g id="">
		<circle fill="#b6f3f0" cx="192.3" cy="58.3" r="7.9" class="color color-3" data-color="#1AAA9D"></circle>
	</g>
</g>
<g id="x_8_">
	<g opacity="0.1" id="">
		<path d="M96.3,55.3c-3.3,1.2-7-0.5-8.2-3.7c-1.2-3.3,0.5-7,3.7-8.2"></path>
	</g>
	<g opacity="0.1" id="">
		<path d="M55.4,96c-1.5,3.2-5.2,4.6-8.4,3.1c-3.2-1.5-4.6-5.2-3.1-8.4"></path>
	</g>
	<g opacity="0.1" id="">
		<path d="M55.3,153.7c1.2,3.3-0.5,7-3.7,8.2s-7-0.5-8.2-3.7"></path>
	</g>
	<g opacity="0.1" id="">
		<path d="M96,194.6c3.2,1.5,4.6,5.2,3.1,8.4s-5.2,4.6-8.4,3.1"></path>
	</g>
	<g opacity="0.1" id="">
		<path d="M153.7,194.7c3.3-1.2,7,0.5,8.2,3.7s-0.5,7-3.7,8.2"></path>
	</g>
	<g opacity="0.1" id="">
		<path d="M194.6,154c1.5-3.2,5.2-4.6,8.4-3.1c3.2,1.5,4.6,5.2,3.1,8.4"></path>
	</g>
	<g opacity="0.1" id="">
		<path d="M194.7,96.3c-1.2-3.3,0.5-7,3.7-8.2c3.3-1.2,7,0.5,8.2,3.7"></path>
	</g>
	<g opacity="0.1" id="">
		<path d="M154,55.4c-3.2-1.5-4.6-5.2-3.1-8.4c1.5-3.2,5.2-4.6,8.4-3.1"></path>
	</g>
</g>
<g id="x_13_">
	<g opacity="0.1" id="">
		<path d="M125.4,38.1c-4.4,0-7.9-3.5-7.9-7.9s3.5-7.9,7.9-7.9"></path>
	</g>
	<g opacity="0.1" id="">
		<path d="M63.9,63.3c-3.1,3.1-8.1,3.1-11.2,0c-3.1-3.1-3.1-8.1,0-11.2"></path>
	</g>
	<g opacity="0.1" id="">
		<path d="M38.1,124.6c0,4.4-3.5,7.9-7.9,7.9s-7.9-3.5-7.9-7.9"></path>
	</g>
	<g opacity="0.1" id="">
		<path d="M63.3,186.1c3.1,3.1,3.1,8.1,0,11.2c-3.1,3.1-8.1,3.1-11.2,0"></path>
	</g>
	<g opacity="0.1" id="">
		<path d="M124.6,211.9c4.4,0,7.9,3.5,7.9,7.9s-3.5,7.9-7.9,7.9"></path>
	</g>
	<g opacity="0.1" id="">
		<path d="M186.1,186.7c3.1-3.1,8.1-3.1,11.2,0s3.1,8.1,0,11.2"></path>
	</g>
	<g opacity="0.1" id="">
		<path d="M186.7,63.9c-3.1-3.1-3.1-8.1,0-11.2s8.1-3.1,11.2,0"></path>
	</g>
	<g opacity="0.1" id="">
		<path d="M211.9,125.4c0-4.4,3.5-7.9,7.9-7.9c4.4,0,7.9,3.5,7.9,7.9"></path>
	</g>
</g>
<g id="x_11_">
	<path opacity="0.15" d="M117,104.7c-2.2,1-4.8-0.1-5.8-2.3c-1-2.2,0.1-4.8,2.3-5.8"></path>
	<path opacity="0.15" d="M105,116.3c-0.9,2.3-3.5,3.4-5.7,2.5s-3.4-3.5-2.5-5.7"></path>
	<path opacity="0.15" d="M104.7,133c1,2.2-0.1,4.8-2.3,5.8c-2.2,1-4.8-0.1-5.8-2.3"></path>
	<path opacity="0.15" d="M116.3,145c2.3,0.9,3.4,3.5,2.5,5.7c-0.9,2.3-3.5,3.4-5.7,2.5"></path>
	<path opacity="0.15" d="M133,145.3c2.2-1,4.8,0.1,5.8,2.3c1,2.2-0.1,4.8-2.3,5.8"></path>
	<path opacity="0.15" d="M145,133.7c0.9-2.3,3.5-3.4,5.7-2.5c2.3,0.9,3.4,3.5,2.5,5.7"></path>
	<path opacity="0.15" d="M145.3,117c-1-2.2,0.1-4.8,2.3-5.8c2.2-1,4.8,0.1,5.8,2.3"></path>
	<path opacity="0.15" d="M133.7,105c-2.3-0.9-3.4-3.5-2.5-5.7c0.9-2.3,3.5-3.4,5.7-2.5"></path>
</g>
<g>
	<g id="">
		<path fill="#5b6265" d="M135.1,52.2c-3.4,0-6.9-1.7-9.7-4.6c-2.8,2.9-6.3,4.6-9.7,4.6c-8.7,0-14.8-6.5-14.8-15.9
			c0-6.4,4.8-11,9.9-15.9c4.2-4.1,9.1-8.7,12-15l2.5-5.4l2.7,5.3c3.1,6.2,7.8,10.8,12,14.8c5.1,5,10,9.8,10,16.2
			C149.9,45.6,143.8,52.2,135.1,52.2z M125.4,37.7l2.4,3.7c1.6,2.4,4.3,5,7.3,5c5.6,0,9-3.9,9-10.2c0-4-3.6-7.6-8.3-12.1
			c-3.4-3.4-7.2-7.1-10.4-11.8c-3.2,4.9-7.1,8.7-10.7,12.2c-4.6,4.4-8.2,7.9-8.2,11.8c0,6.3,3.5,10.2,9,10.2c3,0,5.8-2.6,7.3-5
			L125.4,37.7z" class="color color-1" data-color="#552955"></path>
	</g>
	<g id="">
		<path fill="#5b6265" d="M122.8,99c-2.9-6.3-7.7-11-11.9-15.3c-5.1-5.1-10-10-10-16.4c0-9.3,6.1-15.9,14.8-15.9
			c3.4,0,6.9,1.7,9.7,4.6c2.8-2.9,6.3-4.6,9.7-4.6c8.7,0,14.8,6.5,14.8,15.9c0,6.5-4.7,11.2-10.1,16.7c-4.1,4.2-8.7,8.9-11.9,15
			l-2.7,5.3L122.8,99z M127.8,62.3l-2.4,3.7l-2.4-3.7c-1.6-2.4-4.3-5-7.3-5c-5.6,0-9,3.9-9,10.2c0,4,3.7,7.7,8.3,12.3
			c3.5,3.5,7.4,7.4,10.5,12.3c3.1-4.7,6.9-8.5,10.3-12c4.7-4.8,8.4-8.6,8.4-12.7c0-6.3-3.5-10.2-9-10.2
			C132.1,57.2,129.3,59.8,127.8,62.3z" class="color color-1" data-color="#552955"></path>
	</g>
	<g id="">
		<path fill="#5b6265" d="M125,135.5c-5.8,0-10.5-4.7-10.5-10.5c0-5.8,4.7-10.5,10.5-10.5c5.8,0,10.5,4.7,10.5,10.5
			C135.5,130.8,130.8,135.5,125,135.5z M125,117.9c-3.9,0-7.1,3.2-7.1,7.1s3.2,7.1,7.1,7.1s7.1-3.2,7.1-7.1S128.9,117.9,125,117.9z" class="color color-1" data-color="#552955"></path>
	</g>
	<g id="">
		<path fill="#5b6265" d="M125.4,40.3c-5.5,0-10-4.5-10-10s4.5-10,10-10c5.5,0,10,4.5,10,10S131,40.3,125.4,40.3z M125.4,24.5
			c-3.2,0-5.8,2.6-5.8,5.8s2.6,5.8,5.8,5.8c3.2,0,5.8-2.6,5.8-5.8S128.6,24.5,125.4,24.5z" class="color color-1" data-color="#552955"></path>
	</g>
	<path fill="#5b6265" d="M94,57.8c-4.7,0-8.5-3.8-8.5-8.5c0-4.7,3.8-8.5,8.5-8.5c4.7,0,8.5,3.8,8.5,8.5C102.6,54,98.7,57.8,94,57.8z
		 M94,45.1c-2.3,0-4.2,1.9-4.2,4.2c0,2.3,1.9,4.2,4.2,4.2c2.3,0,4.2-1.9,4.2-4.2C98.3,47,96.4,45.1,94,45.1z" class="color color-1" data-color="#552955"></path>
	<g id="">
		<circle fill="#5b6265" cx="125" cy="109.6" r="3.3" class="color color-1" data-color="#552955"></circle>
	</g>
	<g id="">
		<circle fill="#5b6265" cx="114.1" cy="114.1" r="3.3" class="color color-1" data-color="#552955"></circle>
	</g>
	<g id="">
		<circle fill="#5b6265" cx="109.6" cy="125" r="3.3" class="color color-1" data-color="#552955"></circle>
	</g>
	<g id="">
		<circle fill="#5b6265" cx="114.1" cy="135.9" r="3.3" class="color color-1" data-color="#552955"></circle>
	</g>
	<g id="">
		<circle fill="#5b6265" cx="125" cy="140.4" r="3.3" class="color color-1" data-color="#552955"></circle>
	</g>
	<g id="">
		<circle fill="#5b6265" cx="135.9" cy="135.9" r="3.3" class="color color-1" data-color="#552955"></circle>
	</g>
	<g id="">
		<circle fill="#5b6265" cx="140.4" cy="125" r="3.3" class="color color-1" data-color="#552955"></circle>
	</g>
	<g id="">
		<circle fill="#5b6265" cx="135.9" cy="114.1" r="3.3" class="color color-1" data-color="#552955"></circle>
	</g>
	<g id="">
		<path fill="#5b6265" d="M125.4,83.4c-4.7,0-8.5-3.8-8.5-8.5c0-4.7,3.8-8.5,8.5-8.5c4.7,0,8.5,3.8,8.5,8.5
			C133.9,79.6,130.1,83.4,125.4,83.4z M125.4,70.6c-2.3,0-4.2,1.9-4.2,4.2c0,2.3,1.9,4.2,4.2,4.2c2.3,0,4.2-1.9,4.2-4.2
			C129.6,72.5,127.8,70.6,125.4,70.6z" class="color color-1" data-color="#552955"></path>
	</g>
	<g id="">
		<path fill="#5b6265" d="M89.8,97.8c-2.2,0-4.4-0.8-6-2.5c-3.3-3.3-3.3-8.7,0-12c3.3-3.3,8.7-3.3,12,0c3.3,3.3,3.3,8.7,0,12
			C94.2,96.9,92,97.8,89.8,97.8z M89.8,85c-1.1,0-2.2,0.4-3,1.2c-0.8,0.8-1.2,1.9-1.2,3c0,1.1,0.4,2.2,1.2,3c1.7,1.6,4.3,1.6,6,0
			c1.6-1.6,1.6-4.3,0-6C92,85.4,90.9,85,89.8,85z" class="color color-1" data-color="#552955"></path>
	</g>
	<g id="">
		<path fill="#5b6265" d="M74.9,133.1c-4.7,0-8.5-3.8-8.5-8.5c0-4.7,3.8-8.5,8.5-8.5c4.7,0,8.5,3.8,8.5,8.5
			C83.4,129.3,79.6,133.1,74.9,133.1z M74.9,120.3c-2.3,0-4.2,1.9-4.2,4.2c0,2.3,1.9,4.2,4.2,4.2c2.3,0,4.2-1.9,4.2-4.2
			C79.1,122.2,77.2,120.3,74.9,120.3z" class="color color-1" data-color="#552955"></path>
	</g>
	<g id="">
		<path fill="#5b6265" d="M89.2,168.7c-2.2,0-4.4-0.8-6-2.5c-3.3-3.3-3.3-8.7,0-12c3.3-3.3,8.7-3.3,12,0c3.3,3.3,3.3,8.7,0,12
			C93.6,167.8,91.4,168.7,89.2,168.7z M89.2,155.9c-1.1,0-2.2,0.4-3,1.2c-0.8,0.8-1.2,1.9-1.2,3c0,1.1,0.4,2.2,1.2,3
			c1.6,1.6,4.4,1.6,6,0c1.6-1.6,1.6-4.3,0-6C91.4,156.4,90.4,155.9,89.2,155.9z" class="color color-1" data-color="#552955"></path>
	</g>
	<g id="">
		<path fill="#5b6265" d="M124.6,183.7c-4.7,0-8.5-3.8-8.5-8.5c0-4.7,3.8-8.5,8.5-8.5c4.7,0,8.5,3.8,8.5,8.5
			C133.1,179.8,129.3,183.7,124.6,183.7z M124.6,170.9c-2.3,0-4.2,1.9-4.2,4.2c0,2.3,1.9,4.2,4.2,4.2c2.3,0,4.2-1.9,4.2-4.2
			C128.8,172.8,126.9,170.9,124.6,170.9z" class="color color-1" data-color="#552955"></path>
	</g>
	<g id="">
		<path fill="#5b6265" d="M160.2,169.3c-2.3,0-4.4-0.9-6-2.5c-3.3-3.3-3.3-8.7,0-12c3.3-3.3,8.7-3.3,12,0c3.3,3.3,3.3,8.7,0,12
			C164.6,168.4,162.4,169.3,160.2,169.3z M160.2,156.5c-1.1,0-2.2,0.4-3,1.2c-1.6,1.6-1.6,4.3,0,6c1.6,1.6,4.4,1.6,6,0
			c1.6-1.6,1.6-4.3,0-6C162.3,156.9,161.2,156.5,160.2,156.5z" class="color color-1" data-color="#552955"></path>
	</g>
	<g id="">
		<path fill="#5b6265" d="M175.1,133.9c-4.7,0-8.5-3.8-8.5-8.5c0-4.7,3.8-8.5,8.5-8.5s8.5,3.8,8.5,8.5
			C183.7,130.1,179.8,133.9,175.1,133.9z M175.1,121.2c-2.3,0-4.2,1.9-4.2,4.2c0,2.3,1.9,4.2,4.2,4.2s4.2-1.9,4.2-4.2
			C179.4,123.1,177.5,121.2,175.1,121.2z" class="color color-1" data-color="#552955"></path>
	</g>
	<g id="">
		<path fill="#5b6265" d="M160.8,98.4c-2.3,0-4.4-0.9-6-2.5c-1.6-1.6-2.5-3.7-2.5-6c0-2.3,0.9-4.4,2.5-6c3.2-3.2,8.8-3.2,12,0
			c1.6,1.6,2.5,3.7,2.5,6c0,2.3-0.9,4.4-2.5,6l0,0l0,0l0,0C165.2,97.5,163,98.4,160.8,98.4z M160.8,85.6c-1.1,0-2.2,0.4-3,1.2
			c-0.8,0.8-1.2,1.9-1.2,3c0,1.1,0.4,2.2,1.2,3c1.6,1.6,4.4,1.6,6,0l0,0c0.8-0.8,1.2-1.9,1.2-3c0-1.1-0.4-2.2-1.2-3
			C162.9,86.1,161.9,85.6,160.8,85.6z" class="color color-1" data-color="#552955"></path>
	</g>
	<g id="">
		<path fill="#5b6265" d="M110.3,109.6l-5.6-1.8c-6.6-2.2-13.1-2.1-18.9-2c-7.2,0.1-14,0.2-18.5-4.4c-6.6-6.6-6.9-15.5-0.8-21.7
			c2.4-2.4,6.1-3.7,10.1-3.6c-0.1-4.1,1.2-7.7,3.6-10.1c6.1-6.1,15.1-5.8,21.7,0.8c4.5,4.5,4.4,11.2,4.2,18.3
			c-0.1,5.9-0.2,12.6,2.2,19.1L110.3,109.6z M89,100c3.9,0,8,0.2,12.4,1c-1.2-5.7-1.1-11.2-1-16.1c0.1-6.3,0.2-11.3-2.6-14.1
			c-4.4-4.4-9.6-4.7-13.6-0.8c-2.1,2.1-2.2,5.9-1.6,8.7l0.9,4.3l-4.3-0.9c-2.8-0.6-6.6-0.5-8.7,1.6c-3.9,3.9-3.6,9.1,0.8,13.6
			c2.9,2.9,8,2.8,14.4,2.7C86.7,100,87.9,100,89,100z" class="color color-1" data-color="#552955"></path>
	</g>
	<g id="">
		<path fill="#5b6265" d="M67.4,149.1c-9.3,0-15.9-6.1-15.9-14.8c0-3.4,1.7-6.9,4.6-9.7c-2.9-2.8-4.6-6.3-4.6-9.7
			c0-8.7,6.5-14.8,15.9-14.8c6.4,0,11,4.8,15.9,9.9c4.1,4.2,8.7,9.1,15,12l5.4,2.5l-5.3,2.7c-6.2,3.1-10.8,7.8-14.8,12
			C78.6,144.3,73.8,149.1,67.4,149.1z M67.4,105.9c-6.3,0-10.2,3.5-10.2,9c0,3,2.6,5.8,5,7.3l3.7,2.4l-3.7,2.4c-2.4,1.6-5,4.3-5,7.3
			c0,5.6,3.9,9,10.2,9c4,0,7.6-3.6,12.1-8.3c3.4-3.4,7.1-7.2,11.8-10.4c-4.9-3.2-8.7-7.1-12.2-10.7
			C74.8,109.5,71.3,105.9,67.4,105.9z" class="color color-1" data-color="#552955"></path>
	</g>
	<g id="">
		<path fill="#5b6265" d="M89.9,188c-3.8,0-7.4-1.6-10.2-4.4c-2.4-2.4-3.7-6.1-3.6-10.1c-4.1,0.1-7.7-1.2-10.1-3.6
			c-6.1-6.1-5.8-15.1,0.8-21.7c4.5-4.5,11.2-4.4,18.3-4.2c5.9,0.1,12.6,0.2,19.1-2.2l5.5-2l-1.8,5.6c-2.2,6.6-2.1,13.1-2,18.9
			c0.1,7.2,0.2,14-4.4,18.5C98,186.2,94.1,188,90,188C90,188,89.9,188,89.9,188z M83,166.5l-0.9,4.3c-0.6,2.8-0.5,6.6,1.6,8.7
			c1.8,1.8,3.9,2.9,6.3,2.7c2.5,0,5-1.2,7.3-3.5c2.9-2.9,2.8-8,2.7-14.4c-0.1-4.8-0.1-10.1,1-15.7c-5.7,1.2-11.2,1.1-16.1,1
			c-6.3-0.1-11.3-0.2-14.1,2.6c-4.4,4.4-4.7,9.6-0.8,13.6c2.1,2.1,5.9,2.2,8.7,1.6L83,166.5z" class="color color-1" data-color="#552955"></path>
	</g>
	<g id="">
		<path fill="#5b6265" d="M134.4,198.5c-3.4,0-6.9-1.7-9.7-4.6c-2.8,2.9-6.3,4.6-9.7,4.6c-8.7,0-14.8-6.5-14.8-15.9
			c0-6.4,4.8-11,9.9-15.9c4.2-4.1,9.1-8.7,12-15l2.5-5.4l2.7,5.3c3.1,6.2,7.8,10.8,12,14.8c5.1,5,10,9.8,10,16.2
			C149.1,192,143.1,198.5,134.4,198.5z M124.6,184l2.4,3.7c1.6,2.4,4.3,5,7.3,5c5.6,0,9-3.9,9-10.1c0-4-3.6-7.6-8.3-12.1
			c-3.4-3.4-7.2-7.1-10.4-11.8c-3.2,4.9-7.1,8.7-10.7,12.2c-4.6,4.4-8.2,7.9-8.2,11.8c0,6.3,3.5,10.1,9,10.1c3,0,5.8-2.6,7.3-5
			L124.6,184z" class="color color-1" data-color="#552955"></path>
	</g>
	<g id="">
		<path fill="#5b6265" d="M159.6,188.5c-0.1,0-0.1,0-0.2,0c-4,0-7.9-1.8-11.3-5.2l0,0l0,0c-4.5-4.5-4.4-11.2-4.2-18.3
			c0.1-5.9,0.2-12.6-2.2-19.1l-2-5.5l5.6,1.8c6.6,2.2,13.1,2.1,18.9,2c7.2-0.1,14-0.2,18.5,4.4c6.6,6.6,6.9,15.5,0.8,21.7
			c-2.4,2.4-6.1,3.7-10.1,3.6c0.1,4.1-1.2,7.7-3.6,10.1C167,187,163.3,188.5,159.6,188.5z M148.6,149c1.2,5.7,1.1,11.2,1,16.1
			c-0.1,6.3-0.2,11.3,2.6,14.1l0,0c2.3,2.3,4.8,3.5,7.3,3.5c0,0,0.1,0,0.1,0c2.2,0,4.4-0.9,6.2-2.7c2.1-2.1,2.2-5.9,1.6-8.7
			l-0.9-4.3l4.3,0.9c2.8,0.6,6.6,0.5,8.7-1.6c1.8-1.8,2.8-4,2.7-6.3c0-2.5-1.2-5-3.5-7.3c-2.9-2.9-8-2.8-14.4-2.7
			C159.5,150.1,154.2,150.1,148.6,149z" class="color color-1" data-color="#552955"></path>
	</g>
	<g id="">
		<path fill="#5b6265" d="M182.6,149.9c-6.4,0-11-4.8-15.9-9.9c-4.1-4.2-8.7-9.1-15-12l-5.4-2.5l5.3-2.7c6.2-3.1,10.8-7.8,14.8-12
			c5-5.1,9.8-10,16.2-10c9.3,0,15.9,6.1,15.9,14.8c0,3.4-1.7,6.9-4.6,9.7c2.9,2.8,4.6,6.3,4.6,9.7
			C198.5,143.8,192,149.9,182.6,149.9z M158.7,125.3c4.9,3.2,8.7,7.1,12.2,10.7c4.4,4.6,7.9,8.2,11.8,8.2c6.3,0,10.1-3.5,10.1-9
			c0-3-2.6-5.8-5-7.3l-3.7-2.4l3.7-2.4c2.4-1.6,5-4.3,5-7.3c0-5.6-3.9-9-10.1-9c-4,0-7.6,3.6-12.1,8.3
			C167.1,118.3,163.4,122.1,158.7,125.3z" class="color color-1" data-color="#552955"></path>
	</g>
	<g id="">
		<path fill="#5b6265" d="M140.4,110.3l1.8-5.6c2.2-6.6,2.1-13.1,2-18.9c-0.1-7.2-0.2-14,4.4-18.5c3.4-3.4,7.3-5.1,11.3-5.2
			c3.8,0.1,7.5,1.5,10.4,4.4c2.4,2.4,3.7,6.1,3.6,10.1c4.1-0.1,7.7,1.2,10.1,3.6c6.1,6.2,5.8,15.1-0.8,21.7
			c-4.5,4.5-11.2,4.4-18.3,4.2c-5.9-0.1-12.6-0.2-19.1,2.2L140.4,110.3z M160.1,67.7C160.1,67.7,160,67.7,160.1,67.7
			c-2.6,0-5.1,1.2-7.4,3.5c-2.9,2.9-2.8,8-2.7,14.4c0.1,4.8,0.1,10.1-1,15.7c5.7-1.2,11.2-1.1,16.1-1c6.3,0.1,11.3,0.2,14.1-2.6
			c4.4-4.4,4.7-9.6,0.8-13.6c-2.1-2.1-5.9-2.2-8.7-1.6l-4.3,0.9l0.9-4.3c0.6-2.8,0.5-6.6-1.6-8.7C164.5,68.7,162.4,67.7,160.1,67.7z
			" class="color color-1" data-color="#552955"></path>
	</g>
	<g id="">
		<path fill="#5b6265" d="M56.7,84.5c-4,0-8.1-1.7-11.5-5.2c-4.5-4.5-4.4-11.2-4.2-18.3c0.1-5.9,0.2-12.6-2.2-19.1l-2-5.5l5.6,1.8
			c6.6,2.2,13.1,2.1,18.9,2c7.2-0.1,14-0.2,18.5,4.4c6.6,6.6,6.9,15.5,0.8,21.7c-2.4,2.4-6.1,3.7-10.1,3.6c0.1,4.1-1.2,7.7-3.6,10.1
			C63.9,83.1,60.3,84.5,56.7,84.5z M45.6,45c1.2,5.7,1.1,11.2,1,16.1c-0.1,6.3-0.2,11.3,2.6,14.1c4.4,4.4,9.6,4.7,13.6,0.8
			c2.1-2.1,2.2-5.9,1.6-8.7L63.5,63l4.3,0.9c2.8,0.6,6.6,0.5,8.7-1.6c3.9-3.9,3.6-9.1-0.8-13.6c-2.9-2.9-8-2.8-14.4-2.7
			C56.6,46.1,51.3,46.1,45.6,45z" class="color color-1" data-color="#552955"></path>
	</g>
	<g id="">
		<path fill="#5b6265" d="M36.3,149.1c-6.4,0-11-4.8-15.9-9.9c-4.1-4.2-8.7-9.1-15-12L0,124.8l5.3-2.7c6.2-3.1,10.8-7.8,14.8-12
			c5-5.1,9.8-10,16.2-10c9.3,0,15.9,6.1,15.9,14.8c0,3.4-1.7,6.9-4.6,9.7c2.9,2.8,4.6,6.3,4.6,9.7C52.2,143.1,45.6,149.1,36.3,149.1
			z M12.3,124.6c4.9,3.2,8.7,7.1,12.2,10.7c4.4,4.6,7.9,8.2,11.8,8.2c6.3,0,10.2-3.5,10.2-9c0-3-2.6-5.8-5-7.3l-3.7-2.4l3.7-2.4
			c2.4-1.6,5-4.3,5-7.3c0-5.6-3.9-9-10.2-9c-4,0-7.6,3.6-12.1,8.3C20.8,117.6,17.1,121.4,12.3,124.6z" class="color color-1" data-color="#552955"></path>
	</g>
	<g id="">
		<path fill="#5b6265" d="M58.3,67.7c-2.7,0-5.2-1-7.1-2.9c-3.9-3.9-3.9-10.3,0-14.2c3.9-3.9,10.3-3.9,14.2,0l0,0
			c1.9,1.9,2.9,4.4,2.9,7.1c0,2.7-1,5.2-2.9,7.1S61,67.7,58.3,67.7z M58.3,51.9c-1.5,0-2.9,0.6-4.1,1.7c-2.2,2.2-2.2,5.9,0,8.1
			c2.2,2.2,5.9,2.2,8.1,0c2.2-2.2,2.2-5.9,0-8.1C61.2,52.5,59.8,51.9,58.3,51.9z" class="color color-1" data-color="#552955"></path>
	</g>
	<g id="">
		<path fill="#5b6265" d="M30.2,134.6c-5.5,0-10-4.5-10-10c0-5.5,4.5-10,10-10s10,4.5,10,10C40.3,130.1,35.8,134.6,30.2,134.6z
			 M30.2,118.8c-3.2,0-5.8,2.6-5.8,5.8c0,3.2,2.6,5.8,5.8,5.8s5.8-2.6,5.8-5.8C36,121.4,33.4,118.8,30.2,118.8z" class="color color-1" data-color="#552955"></path>
	</g>
	<g id="">
		<path fill="#5b6265" d="M57.7,201.8c-2.7,0-5.2-1-7.1-2.9c-3.9-3.9-3.9-10.3,0-14.2l0,0c3.8-3.8,10.4-3.8,14.2,0
			c1.9,1.9,2.9,4.4,2.9,7.1c0,2.7-1,5.2-2.9,7.1C62.9,200.7,60.4,201.8,57.7,201.8z M53.6,187.7c-2.2,2.2-2.2,5.9,0,8.1
			c2.2,2.2,5.9,2.2,8.1,0c2.2-2.2,2.2-5.9,0-8.1C59.5,185.4,55.9,185.4,53.6,187.7L53.6,187.7z" class="color color-1" data-color="#552955"></path>
	</g>
	<g id="">
		<path fill="#5b6265" d="M36.4,213.2l1.8-5.6c2.2-6.6,2.1-13.1,2-18.9c-0.1-7.2-0.2-14,4.4-18.5c6.6-6.6,15.5-6.9,21.7-0.8
			c2.4,2.4,3.7,6.1,3.6,10.1c4.1-0.1,7.7,1.2,10.1,3.6c2.9,2.9,4.5,6.6,4.4,10.4c0,4-1.8,7.9-5.2,11.3l0,0
			c-4.5,4.5-11.2,4.4-18.3,4.2c-5.9-0.1-12.6-0.2-19.1,2.2L36.4,213.2z M56.2,170.6c-2.5,0-5.1,1.2-7.4,3.5c-2.9,2.9-2.8,8-2.7,14.4
			c0.1,4.8,0.1,10.1-1,15.7c5.7-1.2,11.2-1.1,16.1-1c6.3,0.1,11.3,0.2,14.1-2.6l0,0c2.3-2.3,3.5-4.8,3.5-7.3c0-2.3-0.9-4.5-2.7-6.3
			c-2.1-2.1-5.9-2.2-8.7-1.6l-4.3,0.9l0.9-4.3c0.6-2.8,0.5-6.6-1.6-8.7C60.5,171.6,58.3,170.6,56.2,170.6z" class="color color-1" data-color="#552955"></path>
	</g>
	<g id="">
		<path fill="#5b6265" d="M124.6,229.8c-5.5,0-10-4.5-10-10c0-5.5,4.5-10,10-10c5.5,0,10,4.5,10,10
			C134.6,225.3,130.1,229.8,124.6,229.8z M124.6,214c-3.2,0-5.8,2.6-5.8,5.8s2.6,5.8,5.8,5.8c3.2,0,5.8-2.6,5.8-5.8
			S127.7,214,124.6,214z" class="color color-1" data-color="#552955"></path>
	</g>
	<g id="">
		<path fill="#5b6265" d="M124.8,250l-2.7-5.3c-3.1-6.2-7.8-10.8-12-14.8c-5.1-5-10-9.8-10-16.2c0-9.3,6.1-15.9,14.8-15.9
			c3.4,0,6.9,1.7,9.7,4.6c2.8-2.9,6.3-4.6,9.7-4.6c8.7,0,14.8,6.5,14.8,15.9c0,6.4-4.8,11-9.9,15.9c-4.2,4.1-9.1,8.7-12,15
			L124.8,250z M114.9,203.6c-5.6,0-9,3.9-9,10.1c0,4,3.6,7.6,8.3,12.1c3.4,3.4,7.2,7.1,10.4,11.8c3.2-4.9,7.1-8.7,10.7-12.2
			c4.6-4.4,8.2-7.9,8.2-11.8c0-6.3-3.5-10.1-9-10.1c-3,0-5.8,2.6-7.3,5l-2.4,3.7l-2.4-3.7C120.7,206.2,117.9,203.6,114.9,203.6z" class="color color-1" data-color="#552955"></path>
	</g>
	<g id="">
		<path fill="#5b6265" d="M213.2,213.6l-5.6-1.8c-6.6-2.2-13.1-2.1-18.9-2c-7.2,0.1-14,0.2-18.5-4.4c-6.6-6.6-6.9-15.5-0.8-21.7
			c2.4-2.4,6-3.7,10.1-3.6c-0.1-4.1,1.2-7.7,3.6-10.1c2.9-2.9,6.5-4.4,10.4-4.4c4,0,7.9,1.8,11.3,5.2c4.5,4.5,4.4,11.2,4.2,18.3
			c-0.1,5.9-0.2,12.6,2.1,19.1L213.2,213.6z M192,204c3.9,0,8,0.2,12.4,1c-1.2-5.7-1.1-11.2-1-16.1c0.1-6.3,0.2-11.3-2.6-14.1
			c-2.3-2.3-4.8-3.5-7.3-3.5c-2.4-0.1-4.5,0.9-6.3,2.7c-2.1,2.1-2.2,5.9-1.6,8.7l0.9,4.3l-4.3-0.9c-2.8-0.6-6.6-0.5-8.7,1.6
			c-3.9,3.9-3.6,9.1,0.8,13.6c2.9,2.9,8,2.8,14.4,2.7C189.7,204,190.8,204,192,204z" class="color color-1" data-color="#552955"></path>
	</g>
	<g id="">
		<path fill="#5b6265" d="M191.7,202.4c-2.7,0-5.2-1-7.1-2.9c-1.9-1.9-2.9-4.4-2.9-7.1c0-2.7,1-5.2,2.9-7.1c3.8-3.8,10.4-3.8,14.2,0
			c1.9,1.9,2.9,4.4,2.9,7.1c0,2.7-1,5.2-2.9,7.1C196.9,201.3,194.4,202.4,191.7,202.4z M191.7,186.6c-1.5,0-2.9,0.6-4.1,1.7
			c-1.1,1.1-1.7,2.5-1.7,4.1c0,1.5,0.6,3,1.7,4.1c2.2,2.2,5.9,2.2,8.1,0c1.1-1.1,1.7-2.5,1.7-4.1c0-1.5-0.6-3-1.7-4.1
			C194.7,187.1,193.2,186.6,191.7,186.6z" class="color color-1" data-color="#552955"></path>
	</g>
	<g id="">
		<path fill="#5b6265" d="M213.7,149.9c-9.3,0-15.9-6.1-15.9-14.8c0-3.4,1.7-6.9,4.6-9.7c-2.9-2.8-4.6-6.3-4.6-9.7
			c0-8.7,6.5-14.8,15.9-14.8c6.4,0,11,4.8,15.9,9.9c4.1,4.2,8.7,9.1,15,12l5.4,2.5l-5.3,2.7c-6.2,3.1-10.8,7.8-14.8,12
			C224.9,145,220.2,149.9,213.7,149.9z M213.7,106.6c-6.3,0-10.1,3.5-10.1,9c0,3,2.6,5.8,5,7.3l3.7,2.4l-3.7,2.4
			c-2.4,1.6-5,4.3-5,7.3c0,5.6,3.9,9,10.1,9c4,0,7.6-3.6,12.1-8.3c3.4-3.4,7.1-7.2,11.8-10.4c-4.9-3.2-8.7-7.1-12.2-10.7
			C221.1,110.2,217.6,106.6,213.7,106.6z" class="color color-1" data-color="#552955"></path>
	</g>
	<g id="">
		<path fill="#5b6265" d="M193.8,85c-3.7,0-7.2-1.5-10.2-4.4c-2.4-2.4-3.7-6.1-3.6-10.1c-4.1,0.1-7.7-1.2-10.1-3.6
			c-6.1-6.2-5.8-15.1,0.8-21.7c4.5-4.5,11.2-4.4,18.3-4.2c5.9,0.1,12.6,0.2,19.1-2.2l5.5-2l-1.8,5.6c-2.2,6.6-2.1,13.1-2,18.9
			c0.1,7.2,0.2,14-4.4,18.5C201.9,83.3,197.8,85,193.8,85z M187,63.5l-0.9,4.3c-0.6,2.8-0.5,6.6,1.6,8.7c3.9,3.9,9.2,3.6,13.6-0.8
			c2.9-2.9,2.8-8,2.7-14.4c-0.1-4.8-0.1-10.1,1-15.7c-5.7,1.2-11.2,1.1-16.1,1c-6.4-0.1-11.4-0.2-14.1,2.6
			c-4.4,4.4-4.7,9.6-0.8,13.6c2.1,2.1,5.9,2.2,8.7,1.6L187,63.5z" class="color color-1" data-color="#552955"></path>
	</g>
	<g id="">
		<path fill="#5b6265" d="M192.3,68.3c-2.7,0-5.2-1-7.1-2.9c-1.9-1.9-2.9-4.4-2.9-7.1c0-2.7,1-5.2,2.9-7.1c3.8-3.8,10.4-3.8,14.2,0
			c1.9,1.9,2.9,4.4,2.9,7.1c0,2.7-1,5.2-2.9,7.1C197.5,67.3,195,68.3,192.3,68.3z M192.3,52.5c-1.5,0-2.9,0.6-4.1,1.7
			c-2.2,2.2-2.2,5.9,0,8.1c2.2,2.2,5.9,2.2,8.1,0c2.2-2.2,2.2-5.9,0-8.1C195.3,53.1,193.8,52.5,192.3,52.5z" class="color color-1" data-color="#552955"></path>
	</g>
	<g id="">
		<path fill="#5b6265" d="M49.6,101.9c-2.2,0-4.4-0.8-6-2.5c-3.3-3.3-3.3-8.7,0-12c3.3-3.3,8.7-3.3,12,0c3.3,3.3,3.3,8.7,0,12
			C53.9,101,51.8,101.9,49.6,101.9z M49.6,89.1c-1.1,0-2.2,0.4-3,1.2c-0.8,0.8-1.2,1.9-1.2,3c0,1.1,0.4,2.2,1.2,3
			c1.7,1.6,4.3,1.6,6,0c1.6-1.6,1.6-4.3,0-6C51.8,89.6,50.7,89.1,49.6,89.1z" class="color color-1" data-color="#552955"></path>
	</g>
	<g id="">
		<path fill="#5b6265" d="M49.3,164.5c-4.7,0-8.5-3.8-8.5-8.5c0-4.7,3.8-8.5,8.5-8.5c4.7,0,8.5,3.8,8.5,8.5
			C57.8,160.7,54,164.5,49.3,164.5z M49.3,151.7c-2.3,0-4.2,1.9-4.2,4.2s1.9,4.2,4.2,4.2c2.3,0,4.2-1.9,4.2-4.2
			S51.6,151.7,49.3,151.7z" class="color color-1" data-color="#552955"></path>
	</g>
	<g id="">
		<path fill="#5b6265" d="M93.4,208.9c-2.3,0-4.4-0.9-6-2.5c-1.6-1.6-2.5-3.7-2.5-6c0-2.3,0.9-4.4,2.5-6l0,0l0,0l0,0
			c3.2-3.2,8.8-3.2,12,0c1.6,1.6,2.5,3.7,2.5,6c0,2.3-0.9,4.4-2.5,6C97.8,208.1,95.6,208.9,93.4,208.9z M93.4,196.2
			c-1.1,0-2.2,0.4-3,1.2l0,0c-0.8,0.8-1.2,1.9-1.2,3c0,1.1,0.4,2.2,1.2,3c1.6,1.6,4.4,1.6,6,0c0.8-0.8,1.2-1.9,1.2-3
			c0-1.1-0.4-2.2-1.2-3C95.6,196.6,94.5,196.2,93.4,196.2z" class="color color-1" data-color="#552955"></path>
	</g>
	<g id="">
		<path fill="#5b6265" d="M156,209.2c-4.7,0-8.5-3.8-8.5-8.5s3.8-8.5,8.5-8.5c4.7,0,8.5,3.8,8.5,8.5S160.7,209.2,156,209.2z
			 M156,196.5c-2.3,0-4.2,1.9-4.2,4.2s1.9,4.2,4.2,4.2s4.2-1.9,4.2-4.2S158.3,196.5,156,196.5z" class="color color-1" data-color="#552955"></path>
	</g>
	<g id="">
		<path fill="#5b6265" d="M200.4,165.2c-2.3,0-4.4-0.9-6-2.5l0,0c-3.3-3.3-3.3-8.7,0-12c3.2-3.2,8.8-3.2,12,0c3.3,3.3,3.3,8.7,0,12
			C204.8,164.3,202.7,165.2,200.4,165.2z M200.4,152.4c-1.1,0-2.2,0.4-3,1.2c-1.6,1.6-1.6,4.3,0,6l0,0c1.6,1.6,4.4,1.6,6,0
			c1.6-1.6,1.6-4.3,0-6C202.6,152.8,201.5,152.4,200.4,152.4z" class="color color-1" data-color="#552955"></path>
	</g>
	<g id="">
		<path fill="#5b6265" d="M200.7,102.6c-4.7,0-8.5-3.8-8.5-8.5c0-4.7,3.8-8.5,8.5-8.5c4.7,0,8.5,3.8,8.5,8.5
			C209.2,98.7,205.4,102.6,200.7,102.6z M200.7,89.8c-2.3,0-4.2,1.9-4.2,4.2c0,2.3,1.9,4.2,4.2,4.2s4.2-1.9,4.2-4.2
			C204.9,91.7,203,89.8,200.7,89.8z" class="color color-1" data-color="#552955"></path>
	</g>
	<g id="">
		<path fill="#5b6265" d="M156.6,58.1c-2.2,0-4.4-0.8-6-2.5c-3.3-3.3-3.3-8.7,0-12c3.3-3.3,8.7-3.3,12,0c3.3,3.3,3.3,8.7,0,12l0,0
			C161,57.3,158.8,58.1,156.6,58.1z M156.6,45.4c-1.1,0-2.2,0.4-3,1.2c-1.6,1.6-1.6,4.3,0,6c1.7,1.6,4.3,1.6,6,0
			c1.6-1.6,1.6-4.3,0-6C158.8,45.8,157.7,45.4,156.6,45.4z" class="color color-1" data-color="#552955"></path>
	</g>
	<g id="">
		<path fill="#5b6265" d="M219.8,135.5c-5.5,0-10-4.5-10-10c0-5.5,4.5-10,10-10c5.5,0,10,4.5,10,10
			C229.8,131,225.3,135.5,219.8,135.5z M219.8,119.7c-3.2,0-5.8,2.6-5.8,5.8c0,3.2,2.6,5.8,5.8,5.8s5.8-2.6,5.8-5.8
			C225.5,122.3,223,119.7,219.8,119.7z" class="color color-1" data-color="#552955"></path>
	</g>
	<path fill="#5b6265" d="M115.2,107.3c-3.6,0-6.6-2.9-6.6-6.6s2.9-6.6,6.6-6.6s6.6,2.9,6.6,6.6S118.8,107.3,115.2,107.3z
		 M115.2,98.5c-1.2,0-2.3,1-2.3,2.3c0,1.2,1,2.3,2.3,2.3c1.2,0,2.3-1,2.3-2.3C117.4,99.5,116.4,98.5,115.2,98.5z" class="color color-1" data-color="#552955"></path>
	<path fill="#5b6265" d="M100.9,121.4c-1.7,0-3.4-0.6-4.6-1.9c-2.6-2.6-2.6-6.7,0-9.3c2.6-2.6,6.7-2.6,9.3,0c2.6,2.6,2.6,6.7,0,9.3
		C104.3,120.7,102.6,121.4,100.9,121.4z M100.9,112.6c-0.6,0-1.2,0.2-1.6,0.7c-0.9,0.9-0.9,2.3,0,3.2c0.9,0.9,2.3,0.9,3.2,0
		c0.9-0.9,0.9-2.3,0-3.2C102.1,112.8,101.5,112.6,100.9,112.6z" class="color color-1" data-color="#552955"></path>
	<path fill="#5b6265" d="M100.8,141.4c-3.6,0-6.6-2.9-6.6-6.6s2.9-6.6,6.6-6.6s6.6,2.9,6.6,6.6S104.4,141.4,100.8,141.4z
		 M100.8,132.6c-1.2,0-2.3,1-2.3,2.3c0,1.2,1,2.3,2.3,2.3c1.2,0,2.3-1,2.3-2.3C103,133.6,102,132.6,100.8,132.6z" class="color color-1" data-color="#552955"></path>
	<path fill="#5b6265" d="M114.8,155.6c-1.8,0-3.4-0.7-4.6-1.9c-1.2-1.2-1.9-2.9-1.9-4.6s0.7-3.4,1.9-4.6l0,0c0,0,0,0,0,0l0,0
		c2.5-2.5,6.8-2.5,9.3,0c1.2,1.2,1.9,2.9,1.9,4.6s-0.7,3.4-1.9,4.6C118.2,155,116.6,155.6,114.8,155.6z M114.8,146.8
		c-0.6,0-1.2,0.2-1.6,0.7h0c-0.4,0.4-0.7,1-0.7,1.6c0,0.6,0.2,1.2,0.7,1.6c0.9,0.9,2.3,0.9,3.2,0c0.4-0.4,0.7-1,0.7-1.6
		c0-0.6-0.2-1.2-0.7-1.6C116,147.1,115.4,146.8,114.8,146.8z" class="color color-1" data-color="#552955"></path>
	<path fill="#5b6265" d="M134.8,155.8c-3.6,0-6.6-2.9-6.6-6.6s2.9-6.6,6.6-6.6s6.6,2.9,6.6,6.6S138.4,155.8,134.8,155.8z M134.8,147
		c-1.2,0-2.3,1-2.3,2.3s1,2.3,2.3,2.3s2.3-1,2.3-2.3S136.1,147,134.8,147z" class="color color-1" data-color="#552955"></path>
	<path fill="#5b6265" d="M149.1,141.7c-1.7,0-3.4-0.6-4.6-1.9c-2.6-2.6-2.6-6.7,0-9.3c2.6-2.6,6.7-2.6,9.3,0c2.6,2.6,2.6,6.7,0,9.3
		C152.4,141.1,150.8,141.7,149.1,141.7z M149.1,132.9c-0.6,0-1.2,0.2-1.6,0.7c-0.9,0.9-0.9,2.3,0,3.2c0.9,0.9,2.3,0.9,3.2,0
		c0.9-0.9,0.9-2.3,0-3.2C150.2,133.1,149.7,132.9,149.1,132.9z" class="color color-1" data-color="#552955"></path>
	<path fill="#5b6265" d="M149.2,121.7c-3.6,0-6.6-2.9-6.6-6.6s2.9-6.6,6.6-6.6c3.6,0,6.6,2.9,6.6,6.6S152.8,121.7,149.2,121.7z
		 M149.2,112.9c-1.2,0-2.3,1-2.3,2.3c0,1.2,1,2.3,2.3,2.3c1.2,0,2.3-1,2.3-2.3C151.5,113.9,150.5,112.9,149.2,112.9z" class="color color-1" data-color="#552955"></path>
	<path fill="#5b6265" d="M135.2,107.5c-1.7,0-3.4-0.6-4.6-1.9c-2.6-2.6-2.6-6.7,0-9.3c2.6-2.6,6.7-2.6,9.3,0c2.6,2.6,2.6,6.7,0,9.3
		v0C138.5,106.8,136.9,107.5,135.2,107.5z M135.2,98.6c-0.6,0-1.2,0.2-1.6,0.7c-0.9,0.9-0.9,2.3,0,3.2c0.9,0.9,2.3,0.9,3.2,0
		c0.9-0.9,0.9-2.3,0-3.2C136.3,98.9,135.8,98.6,135.2,98.6z" class="color color-1" data-color="#552955"></path>
</g>
</svg>